<svg version="1.1" xmlns="http://www.w3.org/2000/svg" xmlns:xlink="http://www.w3.org/1999/xlink" viewBox="0 0 1000 1000">
	<style type="text/css">
		.st0{fill:#FFFFFF;}
		.st1{fill:#A33823;}
	</style>
	<path class="st0" d="M114.7,461.3c0-107.4,39.9-205.4,105.6-280.2C131.8,258.9,76,372.9,76,500c0,234.4,190.1,424.5,424.5,424.5
		c127.1,0,241.1-55.8,318.9-144.3c-74.8,65.7-172.8,105.6-280.2,105.6C304.7,885.8,114.7,695.8,114.7,461.3z"/>
	<path class="st1" d="M500.5,75.5c-107.4,0-205.4,39.9-280.2,105.6c-65.7,74.8-105.6,172.8-105.6,280.2
		c0,234.4,190.1,424.5,424.5,424.5c107.4,0,205.4-39.9,280.2-105.6C885.1,705.4,925,607.4,925,500C925,265.6,734.9,75.5,500.5,75.5z"
		/>
</svg>
