<?xml version="1.0" encoding="utf-8"?>
<!-- Generator: Adobe Illustrator 23.0.6, SVG Export Plug-In . SVG Version: 6.00 Build 0)  -->
<svg version="1.1" id="Layer_1" xmlns="http://www.w3.org/2000/svg" xmlns:xlink="http://www.w3.org/1999/xlink" x="0px" y="0px"
	 viewBox="0 0 698 207.2" style="enable-background:new 0 0 698 207.2;" xml:space="preserve">
<style type="text/css">
	.st0{fill:#F9F7F7;}
	.st1{fill:#C8102E;}
	.st2{fill:#1D428A;}
</style>
<path class="st0" d="M21.5,0h49C82.4,0,92,9.5,92,21.3v164.5c0,11.8-9.6,21.3-21.5,21.3h-49C9.6,207.2,0,197.6,0,185.8V21.3
	C0,9.5,9.6,0,21.5,0z"/>
<g>
	<path class="st1" d="M60.5,5.9c-3,0-5.2,0-5.3,0h-0.3l0.7,0.3c0.9,0.4,2,1,2.6,1.5C58.3,8,58.7,8.5,59,8.9c0.3,0.5,0.5,0.7,0.7,0.8
		c0.7,0.3,1.3,0.8,1.8,1.9c0.4,0.8,0.5,1.6,0.5,2.9c0,1.8-0.4,3.5-1.4,5.6l-0.5,1l0.3,0.4c0.7,0.8,0.6,1.5-0.7,3.5
		c-0.3,0.5-0.6,1-0.7,1.3c-0.3,0.7-0.6,1-1.2,1.1l-0.5,0.2l-0.6,1.2c-1.5,2.8-2.6,4.3-3.5,4.7c-0.2,0.1-0.4,0.2-0.4,0.3
		c-0.2,0.2-0.3,0.8-0.3,1.2c0,0.8,0.1,0.9,1.6,1.6c1.6,0.8,2.8,1.5,3.6,2.1c0.5,0.4,0.5,0.4,0.5,0.8c0,0.3,0,0.4,0.2,0.5
		c0.7,0.4,1.3,0.8,1.8,1.2c0.3,0.2,1.1,0.8,1.8,1.2c1.5,1,2.3,1.6,3.2,2.6c2.9,3,4.5,7.4,4.9,13.6c0,0.7,0.1,2.3,0.1,3.6v2.4
		l0.3,1.2c0.3,1.2,0.6,2.9,1.1,5.7c0.3,1.9,0.6,3.4,0.9,4.2c0.1,0.3,0.6,1.5,1.2,2.7c1.3,2.7,1.8,3.8,2.3,5.3c0.4,1.3,0.8,2.8,0.9,4
		c0.3,3,0.8,5.5,1.2,5.9c0.1,0.1,0.5,0.2,1.1,0.4c0.5,0.1,1.2,0.4,1.5,0.5c0.5,0.2,0.6,0.3,0.8,0.8l0.3,0.6l1,0.5
		c0.5,0.3,1.1,0.6,1.2,0.7c0.3,0.3,0.6,0.8,0.6,1.2c0,0.2,0.2,0.6,0.3,0.8c0.6,0.9,1.5,2.5,1.5,2.9c0,0.1,0-18.1,0-40.3
		c0-44.4,0.1-41.3-0.5-43.4c-0.5-1.8-1.2-3.5-2.3-5.1C81,9.4,77.1,6.9,72.4,6.1c-0.8-0.1-1.7-0.2-9.1-0.2
		C62.6,5.9,61.5,5.9,60.5,5.9L60.5,5.9z M59.2,60.9c-0.4,0-3.5,1.9-5.3,3.2c-0.7,0.5-0.8,0.6-1.1,1.2c-0.4,0.9-2.1,5-3.8,9.6
		L48.2,77v1c0,0.9,0,1,0.1,1c0.2,0,1,0.5,1.4,0.9c0.9,0.8,1.4,1.9,2.1,4.2c0.6,1.8,1.9,6.5,3,10.5l1.1,4.1l0.4,1.3l-0.5,0.5
		l-0.5,0.5l0.2,0.7c0.1,0.4,0.3,1.1,0.5,1.6c1.6,5.9,2.4,10.2,3.1,17.8c0.4,3.6,0.6,4.9,1.5,6.9c0.8,2,1.7,3.7,2.8,5.6
		c1.6,2.6,2.5,4.5,3,6.3c0.5,1.7,1.1,5,1.9,9.6c1,6,1.3,8,1.5,8.5c0.1,0.5,0.3,0.8,1,1.7c1.2,1.6,1.5,2,2,3.1c1,1.8,1.2,2.9,0.9,4.2
		c-0.1,0.4-0.3,1.4-0.5,2.2c-0.9,3.8-1.1,5.5-0.7,7.3c0,0.2,0.2,1.4,0.4,2.5c0.4,2.4,0.6,3.4,1,3.9c0.3,0.4,0.6,1.3,0.6,1.8
		c0,0.2-0.1,0.5-0.2,0.7s-0.2,0.4-0.2,0.5s0.4,1.3,0.9,2.7s1,3,1.1,3.4c1,3.4,0.9,6.2-0.1,8.2c-0.7,1.4-1.5,2.3-3.1,3.3
		c-0.1,0.1-0.1,0.1,0.3,0.1c0.6-0.1,1.6-0.3,2.6-0.7c2.4-0.8,4.8-2.4,6.7-4.4c2.3-2.5,3.9-5.9,4.2-9.3c0.1-0.6,0.1-12.7,0.1-38.6
		v-37.7l-0.3,0.6c-0.4,0.8-1.2,2.2-1.7,2.8c-1.4,1.8-3.3,3.3-5.3,4.3c-4.9,2.3-10.5,1.8-14.9-1.3c-1.1-0.7-2.7-2.3-3.4-3.4
		c-3.1-4.3-3.6-9.9-1.4-14.7c1.7-3.6,5-6.6,8.7-7.7c0.5-0.2,0.9-0.3,1-0.4s-0.1-0.6-1.3-3.1c-0.9-2-2.1-4.5-4.1-8.5
		c-1.1-2.2-1.2-2.6-1.9-5.5c-0.6-2.7-1.6-7.9-2.5-13C59.4,60.8,59.4,60.9,59.2,60.9L59.2,60.9z"/>
	<path class="st2" d="M35.1,5.9c-7,0-14.2,0-14.8,0.1c-3.9,0.4-7.3,1.9-10.1,4.6C7.5,13.2,6,16.1,5.3,20c-0.1,0.8-0.1,6.1-0.2,83.7
		c0,56.3,0,83.4,0.1,84.5C5.4,192.5,7,196,10,199c2.9,2.9,6.5,4.5,10.4,4.8c1.2,0.1,49.8,0.1,49.8,0c0,0-0.2-0.2-0.5-0.4
		c-1.1-0.7-2-1.9-2.3-3.1c-0.4-1.5-0.4-3.1,0.1-6.9c0.4-3.3,0.6-5.9,0.7-7.5l0.1-1.6l-0.5-0.5c-1-1.1-1.2-1.9-0.7-2.9
		c0.1-0.3,0.2-0.6,0.2-0.7c0-0.3-0.5-1.8-0.9-2.9c-0.5-1.2-1.3-2.7-2.4-4.8c-1.7-2.9-2-3.7-2-4.7c0-0.6,0.1-0.9,0.5-1.4l0.3-0.3
		l-0.2-0.7c-0.3-1-0.7-1.8-1.4-3.4l-0.6-1.3l-0.8-0.5c-3.2-1.9-7-4.8-10.8-8.2c-1.1-1-3.1-2.9-4.8-4.6c-1-1-2.6-2.5-3.5-3.3
		c-1.6-1.4-2.2-2-2.5-2.6c-0.1-0.1-0.4-0.5-0.6-0.8c-3.5-4-11.4-15.7-14.1-20.8c-0.3-0.6-0.5-1-0.6-1.1c0,0-0.9-0.2-2.1-0.3
		c-1.1-0.2-2.1-0.3-2.1-0.4c0,0-0.2-0.6-0.4-1.1c-0.7-2.3-1.6-4.3-4.1-9c-3.6-6.8-4.5-10.2-4-14.7c0.3-2.9,1.3-7.4,1.8-8.4
		c0.3-0.6,1-1.4,2-2.5l1-0.9v-1.1v-1.1h-2.3c-3.1,0-4-0.1-4.6-0.7c-0.4-0.3-0.5-0.5-0.8-2C7.2,76.2,7,75.5,6.8,75
		c-0.7-1.7-0.7-2.3-0.2-3.8C6.8,70.7,7,70,7,69.7c0.7-2.7,2.5-6.9,5.9-13.8c0.6-1.2,1.2-2.5,1.3-3c1-3,2-5.4,3-7.4
		c2.3-4.4,4-7,5.8-8.8c0.9-0.9,1.6-1.4,2.7-1.9c1.4-0.7,2.5-0.9,6-1.2l2.3-0.2l0.3-0.3l0.3-0.3l1.1-0.1c3.7-0.2,5.1-0.6,5.7-2
		c0.3-0.7,0.5-1.4,0.8-4.1c0.2-1.4,0.3-2.5,0.3-2.6s0-0.1-0.1-0.1c-0.8,0.1-1.5-1.6-1.5-3.9c0-1.9,0.3-2.3,1.5-2.4l0.7-0.1v-0.7
		c0-1.4,0.2-3.5,0.4-4.4c0.4-2.2,0.9-3.2,2-4.4c0.8-0.8,1.7-1.4,3-1.9c0.5,0,0.7-0.1,0.6-0.2C49.1,5.9,42.1,5.9,35.1,5.9L35.1,5.9z
		 M15.5,163.6h2.8h2.8l0.1,0.8c0.1,0.4,0.3,1.9,0.6,3.2s0.6,3.3,0.8,4.3c0.2,1,0.7,3.8,1.1,6.2s1,5.4,1.2,6.8
		c0.2,1.4,0.5,2.5,0.5,2.5s-0.1-2.3-0.3-4.9c-0.1-0.9-0.1-1.9-0.2-3c0-0.5-0.1-1.2-0.1-1.5s-0.1-1.2-0.1-2.1s-0.1-1.8-0.1-2
		s-0.1-2.6-0.1-5.3l-0.1-4.9h1.8H28v15v15h-2.5H23l-0.4-2.3c-0.2-1.3-0.7-3.8-1.1-5.7c-0.3-1.9-0.9-4.8-1.2-6.5
		c-0.8-4.5-1.2-6.7-1.5-7.9l-0.2-1v0.8c0,0.5,0.1,2,0.1,3.4s0.1,3,0.1,3.6c0,0.7,0.1,13.7,0,15.5c0,0.1-0.1,0.2-1.7,0.2h-1.7v-15
		L15.5,163.6L15.5,163.6z M30.9,163.6h3.2c1.8,0,3.4,0,3.8,0.1c1.9,0.3,3.2,1.3,3.8,3c0.4,1.1,0.5,1.7,0.4,5.6c0,3-0.1,3.6-0.2,4
		c-0.2,0.9-0.6,1.4-1.1,2l-0.5,0.5l0.5,0.5c0.6,0.6,0.9,1.1,1.1,1.9c0.2,0.6,0.2,0.7,0.2,4.3c0,4.1,0,4.1-0.6,5.4
		c-0.6,1.2-1.6,2-3,2.4c-0.4,0.1-1,0.2-4,0.2H31v-15L30.9,163.6L30.9,163.6z M46.9,163.6h2.9h2.9l0.1,0.3c0,0.2,0.3,2.2,0.5,4.5
		c0.3,2.3,0.8,7,1.2,10.4c1.5,13.3,1.7,14.5,1.7,14.6c0,0-0.9,0.1-2.1,0.1H52v-0.3c0-0.2-0.1-1.3-0.2-2.5c-0.1-1.2-0.2-2.5-0.2-2.8
		l-0.1-0.5h-1.8c-1.8,0-1.8,0-1.8,0.2c0,0.1-0.1,1.2-0.2,2.5s-0.2,2.6-0.2,2.8l-0.1,0.5h-2h-2v-0.3c0-0.2,0.6-5.2,1.2-9.9
		c0.1-0.6,0.6-4.8,1.1-9.4c1.1-9.5,1.2-9.7,1.2-10.1V163.6L46.9,163.6z M49.5,167L49.5,167c-0.1,0.1-0.1,0.4-0.1,0.8
		c0,0.4-0.1,1-0.1,1.3s-0.2,2.1-0.3,4s-0.4,5.1-0.6,7s-0.3,3.6-0.3,3.7c0,0.1,0.4,0.1,1.5,0.1c0.8,0,1.5,0,1.5-0.1
		c0,0-0.1-1.4-0.2-2.9C49.8,168.3,49.7,167,49.5,167L49.5,167z M34.9,167.4v4.9c0,2.7,0,4.9,0,4.9s0.5,0,1.1,0
		c1.2,0,1.5-0.1,1.8-0.6l0.2-0.3v-3.9c0-3.8,0-4-0.2-4.2c-0.3-0.6-0.5-0.7-1.8-0.7L34.9,167.4L34.9,167.4z M34.9,180.5v4.6v4.6h1
		c1.2,0,1.7-0.2,2-0.7c0.2-0.3,0.2-0.5,0.2-3.9s0-3.6-0.2-3.9c-0.3-0.5-0.7-0.6-1.9-0.7L34.9,180.5L34.9,180.5z"/>
</g>
<g>
	<g>
		<path class="st0" d="M242.6,18.3l-19.8,83h-24.9l-13.3-55.5l-13.4,55.5h-24.9l-19.8-83h21.8L159,78.5l14.6-60.1h22l14.6,60.1
			L221,18.4h21.6V18.3z"/>
		<path class="st0" d="M254.6,9.8c2.2-2,5.1-3,8.7-3s6.5,1,8.7,3s3.3,4.5,3.3,7.6c0,3-1.1,5.5-3.3,7.5c-2.2,2-5.1,3-8.7,3
			s-6.5-1-8.7-3s-3.3-4.5-3.3-7.5C251.3,14.3,252.4,11.8,254.6,9.8z M273.3,35.8v65.5h-20.1V35.8H273.3z"/>
		<path class="st0" d="M346.6,42.6c4.4,5,6.6,11.9,6.6,20.7v38h-20.1V65.7c0-4.4-1.2-7.8-3.5-10.3s-5.4-3.7-9.2-3.7
			c-4.1,0-7.3,1.3-9.7,3.9c-2.4,2.6-3.6,6.3-3.6,11v34.8H287V35.8h20.1v12c1.9-3.9,4.7-7,8.4-9.3c3.7-2.3,8.1-3.4,13.1-3.4
			C336.2,35.1,342.2,37.6,346.6,42.6z"/>
		<path class="st0" d="M410.3,41.2c5,4.2,8.1,9.6,9.3,16.4h-18.8c-0.5-2.7-1.8-4.8-3.7-6.3c-1.9-1.5-4.3-2.3-7.2-2.3
			c-2.3,0-4,0.5-5.2,1.5s-1.8,2.4-1.8,4.2c0,2,1.1,3.6,3.2,4.6c2.2,1,5.5,2,10.2,3.1c5,1.2,9.1,2.4,12.3,3.6c3.2,1.2,6,3.2,8.3,5.9
			c2.3,2.7,3.5,6.4,3.5,11c0,3.8-1,7.1-3.1,10c-2,2.9-5,5.2-8.8,6.8c-3.8,1.6-8.4,2.5-13.6,2.5c-8.8,0-15.9-2-21.3-5.9
			c-5.3-3.9-8.6-9.5-9.7-16.8h19.4c0.3,2.8,1.5,5,3.6,6.5s4.8,2.2,8,2.2c2.3,0,4-0.5,5.2-1.6s1.8-2.4,1.8-4.2c0-2.3-1.1-3.9-3.2-4.9
			c-2.2-1-5.7-2-10.5-3.1c-4.9-1-8.8-2.1-12-3.3c-3.1-1.2-5.8-3.1-8.1-5.7c-2.3-2.6-3.4-6.2-3.4-10.7c0-5.9,2.2-10.6,6.7-14.3
			c4.5-3.6,10.8-5.5,18.9-5.5C398.6,35,405.3,37.1,410.3,41.2z"/>
		<path class="st0" d="M475.2,72.2v29.1h-20.1v-83h32.5c9.9,0,17.4,2.4,22.5,7.3c5.2,4.9,7.7,11.5,7.7,19.8c0,5.2-1.2,9.8-3.5,13.8
			s-5.7,7.2-10.3,9.5c-4.5,2.3-10.1,3.5-16.6,3.5H475.2z M497.6,45.5c0-7.3-4-10.9-12.1-10.9h-10.2v21.6h10.2
			C493.5,56.2,497.6,52.6,497.6,45.5z"/>
		<path class="st0" d="M575.9,39.1c5.1,2.7,9.2,6.6,12.1,11.7c2.9,5.1,4.4,11,4.4,17.8s-1.5,12.8-4.4,17.8c-2.9,5.1-7,9-12.1,11.7
			s-10.9,4.1-17.4,4.1s-12.3-1.4-17.5-4.1s-9.2-6.6-12.2-11.7c-2.9-5.1-4.4-11-4.4-17.8s1.5-12.8,4.4-17.8c2.9-5.1,7-9,12.2-11.7
			s11-4.1,17.5-4.1C565,35,570.8,36.4,575.9,39.1z M548.8,56.6c-2.6,2.8-3.9,6.8-3.9,12s1.3,9.2,3.9,12c2.6,2.7,5.9,4.1,9.7,4.1
			s7-1.4,9.6-4.1s3.9-6.7,3.9-12c0-5.2-1.3-9.3-3.9-12c-2.6-2.8-5.8-4.2-9.6-4.2C554.7,52.4,551.4,53.8,548.8,56.6z"/>
		<path class="st0" d="M651,39.1c5.1,2.7,9.2,6.6,12.1,11.7c2.9,5.1,4.4,11,4.4,17.8s-1.5,12.8-4.4,17.8c-2.9,5.1-7,9-12.1,11.7
			s-10.9,4.1-17.4,4.1s-12.3-1.4-17.5-4.1s-9.2-6.6-12.2-11.7c-2.9-5.1-4.4-11-4.4-17.8s1.5-12.8,4.4-17.8c2.9-5.1,7-9,12.2-11.7
			s11-4.1,17.5-4.1C640,35,645.8,36.4,651,39.1z M623.8,56.6c-2.6,2.8-3.9,6.8-3.9,12s1.3,9.2,3.9,12c2.6,2.7,5.9,4.1,9.7,4.1
			s7-1.4,9.6-4.1s3.9-6.7,3.9-12c0-5.2-1.3-9.3-3.9-12c-2.6-2.8-5.8-4.2-9.6-4.2C629.7,52.4,626.5,53.8,623.8,56.6z"/>
		<path class="st0" d="M698,14.5v86.9h-20.1V14.5H698z"/>
	</g>
</g>
<g>
	<g>
		<path class="st0" d="M147.7,165.8c5.3-5.8,8-11.2,8-16.1c0-2.9-0.7-5.3-2.2-7c-1.4-1.7-3.8-2.6-7-2.6c-3.3,0-5.8,1.1-7.5,3.2
			c-1.7,2.1-2.6,5.2-2.9,9.2H127c0.4-6.6,2.4-11.6,6.1-15.1s8.4-5.2,14.1-5.2c5.6,0,10,1.5,13.2,4.4c3.2,3,4.8,7.1,4.8,12.3
			c0,4.2-1.3,8.4-3.9,12.7c-2.6,4.3-5.9,8.3-9.8,11.9c-4,3.6-8.1,6.7-12.3,9.3h27.3v7.6h-40v-6.9
			C135.3,177.6,142.4,171.6,147.7,165.8z"/>
		<path class="st0" d="M173.7,161.6c0-9.1,1.6-16.3,4.9-21.5c3.3-5.2,8.7-7.7,16.3-7.7s13.1,2.6,16.3,7.8c3.3,5.2,4.9,12.3,4.9,21.4
			c0,9.1-1.6,16.3-4.9,21.5c-3.3,5.2-8.7,7.8-16.3,7.8s-13.1-2.6-16.3-7.8C175.4,178,173.7,170.8,173.7,161.6z M206.8,161.6
			c0-6.5-0.8-11.5-2.4-15.1c-1.6-3.5-4.8-5.3-9.5-5.3s-7.9,1.7-9.5,5.2s-2.4,8.5-2.4,15.1s0.8,11.7,2.4,15.3
			c1.6,3.5,4.8,5.3,9.5,5.3s7.8-1.8,9.5-5.3C206,173.4,206.8,168.3,206.8,161.6z"/>
		<path class="st0" d="M221.4,142v-8.7h18.4v57.6H230V142H221.4z"/>
		<path class="st0" d="M263,181.4c1.7,1.7,4,2.5,7,2.5c4.1,0,7.2-1.6,9.3-4.9c2-3.3,3.1-8.5,3.1-15.5l-0.1-2.8
			c-0.9,2.9-2.7,5.3-5.4,7.1c-2.7,1.8-5.9,2.7-9.6,2.7c-5.7,0-10.1-1.7-13.3-5.1c-3.2-3.4-4.8-8.1-4.8-14.2c0-3.7,0.7-7,2.2-10
			c1.5-2.9,3.7-5.3,6.6-7s6.6-2.6,10.8-2.6c8.3,0,14,2.5,17.2,7.6c3.1,5.1,4.7,12.1,4.7,21.1c0,10.2-1.6,17.9-4.8,23.2
			c-3.2,5.3-8.5,8-15.9,8c-5.7,0-10.2-1.6-13.4-4.9c-3.2-3.2-5.1-7.4-5.6-12.4h8.8C260.2,177.3,261.3,179.7,263,181.4z M278.3,143.2
			c-2-2.4-5.1-3.5-9.2-3.5c-3.4,0-6.1,1-8.1,3s-3.1,4.8-3.1,8.5c0,3.9,1,6.8,3.1,8.9c2,2.1,4.8,3.1,8.4,3.1c2.1,0,4-0.4,5.8-1.3
			c1.8-0.8,3.3-2.1,4.4-3.8s1.7-3.7,1.7-6.1C281.3,148.5,280.3,145.5,278.3,143.2z"/>
		<path class="st0" d="M331.6,157.4v7.8H302v-7.8H331.6z"/>
		<path class="st0" d="M360.5,165.8c5.3-5.8,8-11.2,8-16.1c0-2.9-0.7-5.3-2.2-7c-1.4-1.7-3.8-2.6-7-2.6c-3.3,0-5.8,1.1-7.5,3.2
			c-1.7,2.1-2.6,5.2-2.9,9.2h-9.1c0.4-6.6,2.4-11.6,6.1-15.1s8.4-5.2,14.1-5.2c5.6,0,10,1.5,13.2,4.4c3.2,3,4.8,7.1,4.8,12.3
			c0,4.2-1.3,8.4-3.9,12.7s-5.9,8.3-9.8,11.9c-4,3.6-8.1,6.7-12.3,9.3h27.3v7.6h-40v-6.9C348.1,177.6,355.2,171.6,360.5,165.8z"/>
		<path class="st0" d="M386.5,161.6c0-9.1,1.6-16.3,4.9-21.5s8.7-7.7,16.3-7.7c7.6,0,13.1,2.6,16.3,7.8c3.3,5.2,4.9,12.3,4.9,21.4
			c0,9.1-1.6,16.3-4.9,21.5s-8.7,7.8-16.3,7.8c-7.6,0-13.1-2.6-16.3-7.8C388.2,178,386.5,170.8,386.5,161.6z M419.7,161.6
			c0-6.5-0.8-11.5-2.4-15.1c-1.6-3.5-4.8-5.3-9.5-5.3s-7.9,1.7-9.5,5.2s-2.4,8.5-2.4,15.1s0.8,11.7,2.4,15.3
			c1.6,3.5,4.8,5.3,9.5,5.3s7.8-1.8,9.5-5.3C418.8,173.4,419.7,168.3,419.7,161.6z"/>
		<path class="st0" d="M457.5,165.8c5.3-5.8,8-11.2,8-16.1c0-2.9-0.7-5.3-2.2-7c-1.4-1.7-3.8-2.6-7-2.6c-3.3,0-5.8,1.1-7.5,3.2
			c-1.7,2.1-2.6,5.2-2.9,9.2H437c0.4-6.6,2.4-11.6,6.1-15.1s8.4-5.2,14.1-5.2c5.6,0,10,1.5,13.2,4.4c3.2,3,4.8,7.1,4.8,12.3
			c0,4.2-1.3,8.4-3.9,12.7s-5.9,8.3-9.8,11.9c-4,3.6-8.1,6.7-12.3,9.3h27.3v7.6h-40v-6.9C445.2,177.6,452.2,171.6,457.5,165.8z"/>
		<path class="st0" d="M483.6,161.6c0-9.1,1.6-16.3,4.9-21.5s8.7-7.7,16.3-7.7s13.1,2.6,16.3,7.8c3.3,5.2,4.9,12.3,4.9,21.4
			c0,9.1-1.6,16.3-4.9,21.5c-3.3,5.2-8.7,7.8-16.3,7.8c-7.6,0-13.1-2.6-16.3-7.8C485.2,178,483.6,170.8,483.6,161.6z M516.7,161.6
			c0-6.5-0.8-11.5-2.4-15.1c-1.6-3.5-4.8-5.3-9.5-5.3s-7.9,1.7-9.5,5.2s-2.4,8.5-2.4,15.1s0.8,11.7,2.4,15.3
			c1.6,3.5,4.8,5.3,9.5,5.3s7.8-1.8,9.5-5.3C515.9,173.4,516.7,168.3,516.7,161.6z"/>
	</g>
</g>
</svg>
