<?xml version="1.0" encoding="utf-8"?>
<!-- Generator: Adobe Illustrator 23.0.6, SVG Export Plug-In . SVG Version: 6.00 Build 0)  -->
<svg version="1.1"
	 id="Layer_1" xmlns:cc="http://creativecommons.org/ns#" xmlns:dc="http://purl.org/dc/elements/1.1/" xmlns:rdf="http://www.w3.org/1999/02/22-rdf-syntax-ns#"
	 xmlns="http://www.w3.org/2000/svg" xmlns:xlink="http://www.w3.org/1999/xlink" x="0px" y="0px" viewBox="0 0 300 300"
	 style="enable-background:new 0 0 300 300;" xml:space="preserve">
<style type="text/css">
	.st0{fill:#FFFFFF;}
	.st1{fill:#E03A3E;}
</style>
<g>
	<path class="st0" d="M299,150.1c-0.1,82.3-66.8,148.9-149.1,148.9S0.9,232.2,1,149.9C1.1,67.6,67.8,0.9,150.1,1c0,0,0,0,0,0
		C232.4,1.2,299,67.9,299,150.1z"/>
	<path class="st1" d="M150.1,259.1c-29.1,0.1-57.1-11.6-77.4-32.5c56-29,91.2-21.4,91.2-15.7c0,5.7-8.8,19-8.8,19
		c45.8-6.4,79.1-34,79.1-71.2c0-37-34.7-55.1-43.5-60.5c-9.5-5.9-5.2-14-36.3-25.6c-19-7.1-45.6-14.2-56-16.9
		c52.6-28.6,118.3-9.1,146.9,43.5c28.6,52.6,9.1,118.3-43.5,146.9C185.9,254.6,168.2,259.1,150.1,259.1L150.1,259.1z M150.1,11.9
		c-43.9-0.1-85.2,20.6-111.4,55.8c3.6,1.2,10.7,3.1,19.2,5.7c13.5,4,58.7,17.1,67.2,19.9c24.7,7.8,31.1,10.9,38.2,18.5
		c8.5,8.6,17.8,16.3,27.8,23c10.2,7.4,15.2,15.2,15.2,27.8c0,12.3-9.5,22.8-15.4,26.6c0,0,2.1-6.2-0.7-8.8
		c-2.8-2.6-12.1-7.6-35.4-5.9c-23.3,1.7-54.4,13.1-75.5,24.2c0,0,10.2-15.9,25.2-23c0,0-12.3,0-81.9,30.4
		c30.5,70.4,112.4,102.7,182.8,72.2S308.1,166,277.6,95.6C255.5,44.8,205.5,11.9,150.1,11.9z"/>
	<path class="st1" d="M148.9,114.7c-5.6,0.2-11.1-0.9-16.1-3.3c-8.1-4.3-20.4-13.3-31.3-3.3c0,0,9-1.2,8.3,1.2
		c-0.7,2.6-1.7,16.4,10.9,21.6C133,136.3,147.5,132.3,148.9,114.7z"/>
</g>
</svg>
