<?xml version="1.0" encoding="utf-8"?>
<!-- Generator: Adobe Illustrator 23.0.6, SVG Export Plug-In . SVG Version: 6.00 Build 0)  -->
<svg version="1.1"
	 id="Layer_1" xmlns:cc="http://creativecommons.org/ns#" xmlns:dc="http://purl.org/dc/elements/1.1/" xmlns:rdf="http://www.w3.org/1999/02/22-rdf-syntax-ns#"
	 xmlns="http://www.w3.org/2000/svg" xmlns:xlink="http://www.w3.org/1999/xlink" x="0px" y="0px" viewBox="0 0 300 300"
	 style="enable-background:new 0 0 300 300;" xml:space="preserve">
<style type="text/css">
	.st0{fill:#FFFFFF;}
</style>
<g>
	<path d="M297,40.6v-8.6l-3.4-1.8C291.1,29.1,232.8,0,151.9,0h-3.7C67.2,0,8.9,29.1,6.6,30.3L3,32.1v8.4
		c-0.5,34.4,3.6,121.9,57,189.8c43.3,55.3,84.1,67.9,88.6,69.2l1.8,0.5l1.8-0.4c1.8-0.5,43.3-12.7,87.9-69.2
		C293.4,162.6,297.7,75,297,40.6z"/>
	<path class="st0" d="M150.4,290.9c-3.4-0.9-41.9-12.8-83.6-65.8C12.1,155.4,11.9,64.3,12.3,42.8v-4.6c0.1,0,0.2-0.1,0.2-0.2
		c0,0,0,0,0,0v-0.2l1.2-0.5c3-1.2,9.4-4.1,18.9-7.5C69.7,16.2,109,9.3,148.5,9.3h3.7c39.3,0.1,78.4,7,115.3,20.5
		c9.4,3.4,16,6.2,18.9,7.5l1.2,0.5V38l0.2,0.2v4.6c0.5,21.6,0.4,112.7-54.5,182.4C191.6,278.1,153.6,290,150.4,290.9z M236,227.5
		c52.4-66.5,56.5-152.2,55.8-185.9v-6.2l-1.1-0.5c-2.3-1.2-59.5-29.6-138.9-29.6h-3.9C68.6,5.2,11.6,33.5,9.1,34.8L8,35.3v5.9
		C7.3,75,11.4,160.8,63.8,227.3c42.2,53.8,81.5,66.3,85.9,67.4l0.5,0.2l0.5-0.2C152.8,294.3,192.5,282.5,236,227.5z"/>
	<path class="st0" d="M251.3,81.1c-19.4-20.1-21.6-23.4-21.6-31.7c0-8.2,3.6-9.3,7.1-9.3c2.2,0.1,4.5,0.4,6.6,1.1
		c14.1,4.1,14.1,11.8,14.1,17.5v8.2c0,0.6,0.3,1.2,0.9,1.4c3.6,1.1,5.2,1.8,8.7,3c0.5,0.3,1.1,0.2,1.4-0.2c0.5-0.2,0.7-0.7,0.7-1.2
		v-6.8c0-8.6,0-23-25.1-30.3c-17.6-5-26.7,0.4-26.7,15.7c0,12.7,7.8,20.1,20.9,32.8l2.5,2.5c15.3,15.2,18.4,20,18.4,29.4
		c0,3.6-0.5,5.9-1.6,7.3c-1.1,1.6-2.7,2.1-5.3,2.1c-2.6-0.1-5.2-0.5-7.7-1.2c-6.8-2-11.6-4.6-14.6-7.8c-3.6-3.9-3.6-7.3-3.6-14.1
		v-7.1c0-0.7-0.4-1.4-1.1-1.4c-3.9-0.9-5.7-1.2-9.3-2c-0.4-0.1-0.9,0-1.2,0.4c-0.3,0.4-0.5,0.8-0.5,1.2v12.8
		c0,11.9,10,21.2,28.5,26.6c4.4,1.4,9.1,2.2,13.7,2.3c14.4,0,14.4-11.9,14.4-16.9C271.1,102.1,264.3,94.5,251.3,81.1z M212.1,26.4
		c-18.6-3.4-37.4-5.2-56.3-5.3c-0.7-0.2-1.4,0.3-1.6,1c0,0.2,0,0.4,0,0.6v5.7c0.1,0.9,0.7,1.5,1.6,1.6c8.7,0,13.4,0.4,21.7,0.9v84.5
		c0,0.8,0.6,1.5,1.4,1.6c3.7,0.4,5.5,0.4,9.3,0.9h0.2c0.4,0,0.7-0.2,0.9-0.5c0.4-0.2,0.6-0.6,0.5-1.1V32.1
		c8.4,0.9,13.2,1.6,21.9,3.2c0.4,0.1,0.9-0.1,1.2-0.4c0.4-0.3,0.5-0.8,0.5-1.2V28C213.4,27.2,212.8,26.6,212.1,26.4L212.1,26.4z
		 M146.3,21.2c-15.9,0.2-31.7,1.6-47.4,4.3c-0.8,0-1.4,0.6-1.4,1.4c0,0,0,0,0,0v91.6c0.1,0.4,0.3,0.8,0.5,1.1
		c0.3,0.2,0.7,0.3,1.1,0.4h0.2c15.5-2.5,31.2-3.9,46.9-4.1c0.8-0.1,1.4-0.8,1.4-1.6v-5.7c0-0.4-0.2-0.8-0.5-1.1
		c-0.2-0.4-0.6-0.6-1.1-0.5c-12.2,0.2-24.3,1-36.4,2.7V73.4c9.9-1.4,19.8-2.2,29.8-2.5c0.7,0.1,1.4-0.5,1.4-1.2c0-0.1,0-0.2,0-0.2
		v-5.7c0-0.4-0.2-0.7-0.4-1.1c-0.3-0.3-0.7-0.4-1.1-0.4c-10,0.2-19.9,1-29.8,2.3V32.6c12.1-1.7,24.3-2.6,36.5-2.7
		c0.8,0.1,1.5-0.5,1.6-1.3c0,0,0-0.1,0-0.1v-5.7c0.1-0.4-0.2-0.9-0.5-1.1C147.1,21.4,146.7,21.2,146.3,21.2z M85.5,27.8
		c-3.6,0.7-5.3,1.1-8.9,2c-0.7,0.1-1.3,0.7-1.2,1.4l0.7,66.5c0,4.5,0.2,8.6,0.4,12.3c-8.9-23.2-18.4-47.1-28-71.1
		c-0.3-0.7-1.1-1.1-1.8-0.9c-5.3,1.8-8,2.7-13.2,4.8c-0.6,0.2-1,0.8-1.1,1.4v91.6c0,0.5,0.3,0.9,0.7,1.1c0.2,0.4,0.5,0.4,0.9,0.4
		c0.2,0,0.4,0,0.5-0.2c3.2-1.2,5-1.8,8.2-3c0.7-0.1,1.1-0.8,1.1-1.4c-0.2-21.6-0.2-43.3-0.4-64.9c0-5.7,0-8.9-0.2-13
		c9.3,24.1,18.5,47.4,27.3,69.7c0.2,0.7,0.9,1.1,1.6,0.9c0.1,0,0.1,0,0.2-0.1c5.5-1.2,8.4-2,13.9-3c0.7-0.1,1.2-0.7,1.2-1.4V29.2
		c0-0.5-0.2-0.9-0.5-1.2C86.5,27.8,86,27.7,85.5,27.8z"/>
	<path class="st0" d="M201.4,235.1c-0.9,0.7-1.8,1.2-2.9,2c-2.5,1.8-5.2,3.2-7.7,4.8c-1.2,0.8-2.5,1.6-3.7,2.3
		c-9.1,5.7-20.1,11.9-31.7,15.5c-3.2,1-6.4,1.7-9.6,2.3c-2.7,0.5-5.5,0.7-8.2,0.7h-0.5c-3.3,0-6.7-0.3-10-0.9
		c12.7,4.4,26.3,5.1,39.4,2c7.5-1.9,14.7-5,21.2-9.3c6.4-5.2,11.2-11.9,14.1-19.6C201.6,234.9,201.4,234.9,201.4,235.1z
		 M139.4,259.4c7.5-0.9,14.7-3.1,21.4-6.6c1.1-0.5,2.2-1.1,3.2-1.8c0.9-0.4,1.8-0.9,2.7-1.2c6.2-3.2,12.8-6.8,20.9-11.2
		c3-1.4,5.7-3,8.6-4.6l3.2-1.8c1.2-0.7,2.5-1.2,3.6-2c0.2-0.2,0.2-0.2,0.4-0.2c1.1-4,1.8-8.1,2.1-12.3c-8,3.9-20,7.5-37.4,11.1
		c-22.3,4.5-44.2,2.5-63.8-5.9c-13.2-5.5-19.4-13.2-21.9-17.3c0.3,3,0.9,6,1.6,8.9c4.3,16.4,14.4,30.7,28.5,40.1v-0.2l1.8,1.1
		c1.9,1,3.8,1.9,5.9,2.5c4.2,1.1,8.5,1.7,12.8,1.8C134.9,259.7,137.1,259.5,139.4,259.4z M209.3,230.5c-0.2-0.2-0.2-0.2-0.4-0.2
		c-0.6,0-1.1,0.2-1.6,0.5c-0.2,0.2-0.4,0.4-0.5,0.4c-0.2,0.2-0.4,0.2-0.5,0.4c-1.7,4.5-3.9,8.7-6.6,12.7c3.8-4,7.1-8.4,9.8-13.2
		h-0.2V230.5z M211.9,213.5c-0.4,0.4-0.5,0.4-0.7,0.7c-0.4,0.2-0.7,0.4-1.1,0.7c-0.4,4.3-1.2,8.5-2.5,12.7c2.1-0.7,3,0.2,3.2,0.7
		c0,0.2,0,0.2,0.2,0.2c3.6-7,5.9-14.5,6.8-22.3C216.5,209.2,214.5,211.7,211.9,213.5L211.9,213.5z M210.1,210
		c0.2-0.2,0.4-0.2,0.5-0.4c3.7-2.9,6.3-6.9,7.5-11.4c0-5.5-0.7-11-2.1-16.4c0-0.3-0.1-0.5-0.4-0.7c-0.7,5.4-3.3,10.3-7.3,13.9
		C209.6,199.9,210.2,204.9,210.1,210L210.1,210z M108,218.2c16.2,5.3,25.1,7,36.9,7c4.3,0,9.3-0.2,15.3-0.7
		c17.3-1.4,35.5-7.1,45.3-11.9c0-4.8-0.5-9.6-1.4-14.3c-3.1,1.8-6.6,2.7-10.2,2.5c-4.1,0-8.9-0.7-16.9-2.7
		c-9.4-2.3-22.8-10.3-34.8-17.3c-6.4-3.9-12.7-7.5-17.6-10c-19.4-9.6-30.5-8.2-33.3-7.7c-7,11.7-10.3,25.4-9.4,39
		C83.2,203.9,89.8,212.1,108,218.2L108,218.2z M118,162.7c8.3,3.7,16.4,7.8,24.2,12.3c14.4,7.7,29.2,15.7,39.4,18.2
		c8.9,2.3,16.2,2,21.4-0.5v-0.4c-0.2-0.4-0.2-0.7-0.4-1.1c-4.3-18.4-27.3-58.6-67.2-58.6c-1.6,0-3.2,0.2-5,0.2
		c-14.9,4.2-27.9,13.5-36.7,26.2c1.9-0.6,3.9-0.9,5.9-0.9C104.8,158.3,110.9,159.9,118,162.7L118,162.7z M207.1,189.8
		c0.9-1.1,1.7-2.3,2.3-3.6c4.8-9.3,0.7-19.6-1.2-23.2c-13.6-22.3-38.8-34.9-64.9-32.4C170.6,132.1,197,156.5,207.1,189.8
		L207.1,189.8z"/>
	<path class="st0" d="M176.8,211.8c0-5,0-12.3-5.9-18c0.7-1.1,1.3-2.3,1.6-3.6c0.8-2.7,1.2-5.5,1.1-8.4v-13.9
		c-0.2-5.2-0.9-10.5-5.2-15.2c-3.7-4.3-9.4-6.6-16.2-6.6h-18.5c-2.1,0-4,0.9-5.5,2.3c-1.4,1.4-2.2,3.4-2.1,5.3l0.2,89.8
		c-0.1,2.7,1.4,5.3,3.7,6.6c1.2,0.8,2.6,1.2,4.1,1.2h18.9c6.2,0.2,12.2-1.9,16.9-5.9h0.2c6.2-5.5,6.8-12.1,7-18.4v-0.2L176.8,211.8z
		"/>
	<path d="M151.9,189.7c-1.4,0.5-2.3,0.5-5.7,0.7h-3.6c-0.5,0-0.7-0.2-0.7-0.7v-28.9c0-0.4,0.2-0.7,0.6-0.7c0,0,0.1,0,0.1,0h5.7
		c2.5-0.2,5,0.3,7.3,1.2c0.8,0.5,1.3,1.3,1.6,2.1c0.5,1.6,0.7,3.2,0.7,4.8v12.1C157.7,183.1,157.6,187.9,151.9,189.7z M158.5,236.2
		c-1.4,1.1-3.2,1.6-7.5,1.8h-8c-0.5-0.1-0.9-0.5-0.9-1.1v-35.8c0-0.2,0-0.5,0.5-0.5h3.7c3.9,0.2,8,0.4,10.7,2.1
		c1.5,0.9,2.7,2.4,3.2,4.1c0.5,1.9,0.8,3.8,0.7,5.7v13.2C161.1,231.6,160.8,234.4,158.5,236.2L158.5,236.2z M172,212.5
		c0-5.2,0-11.2-5.2-15.5c-1.2-1-2.5-1.8-3.9-2.3c2.4-1.6,4.2-4,5-6.8c0.7-2.2,1-4.5,0.9-6.8v-14.3c-0.2-3.9-0.5-8.6-3.9-12.1
		c-2.7-3-7.1-4.6-12.5-4.6H133c-0.6,0-1.2,0.3-1.6,0.7c-0.4,0.5-0.5,1-0.5,1.6V246c0.1,0.8,0.4,1.5,1.1,2c0.4,0.2,0.8,0.3,1.2,0.4
		h19.6c5,0.2,10-1.4,13.9-4.6c4.6-4.3,5.2-9.3,5.3-15L172,212.5z"/>
</g>
</svg>
