<?xml version="1.0" encoding="utf-8"?>
<!-- Generator: Adobe Illustrator 23.0.6, SVG Export Plug-In . SVG Version: 6.00 Build 0)  -->
<svg version="1.1" id="Layer_1" xmlns="http://www.w3.org/2000/svg" xmlns:xlink="http://www.w3.org/1999/xlink" x="0px" y="0px"
	 viewBox="0 0 300 300" style="enable-background:new 0 0 300 300;" xml:space="preserve">
<style type="text/css">
	.st0{fill:#A1A1A4;}
	.st1{fill:#1D1160;}
	.st2{fill:#00788C;}
	.st3{fill:#FFFFFF;}
</style>
<g>
	<path class="st0" d="M293.3,51.4c-6.7,17.8-15.6,36.3-20,43.9c-7.5,12.8-22.3,20.4-31,23.4c0,0-4.3,10.3-8.7,15.9h17.8v24.1l17,8.1
		l-17,8.5v20.4l-16.5,10.1c0,0-13.1-1.6-19.5-2.3l-52.1,30.1c-10.3,47.2-12.9,60.7-12.9,60.7s-2.5-12.9-12.9-60.7l-52.1-30.1
		c-6.3,0.7-19.5,2.3-19.5,2.3l-16.5-10.1v-20.4l-17-8.4l17-8.1v-24.3h17.8c-4.3-5.4-8.8-16.1-8.8-16.1c-5.1-1.8-10.3-4.1-14.7-6.9
		c-7.1-4.4-12.8-10.3-16.5-16.3c-6.6-12.6-15-31.3-19.5-43.9C4.7,43.7,1,32,1,32s9.7,4.6,12.6,6C9,24.1,4.9,5.6,4.9,5.6
		s66.6,43.9,113.3,81.3l0.7-0.6v-2.5c0-0.6,0-1.4,0.3-2.7c0.6-1.6,1.8-3.4,4.4-5.1c-3.4-2.7-9.7-6.7-10.3-7.5
		c-4.4-3.9-5.3-8.4-5-10.4l0.7-5L134.5,72c13.8-3.9,23.5-2.1,30.8,0l25.3-18.8l0.7,5c0.3,2.3-0.3,6.6-5,10.4
		c-0.6,0.6-6.7,4.8-10.3,7.5c2.8,1.8,3.9,3.5,4.4,5.1c0.3,1.2,0.3,2.1,0.3,2.7v2.5l0.7,0.6c48-38.2,113.5-81.2,113.5-81.2
		s-3.4,15.3-8.7,32.5c2.7-1.2,12.6-6,12.6-6C297.2,41.4,293.3,51.4,293.3,51.4L293.3,51.4z"/>
	<path class="st1" d="M73.9,137.4H52.6v23.1l-12.8,6.2l12.8,6.7v20.4l14.1,8.7c5.1-0.7,11.7-1.6,19.5-2.3l54.4,31.3l10,45.5
		c0-0.2,10.1-45.5,10.1-45.5l54.4-31.3c7.6,0.9,14.4,1.6,19.5,2.3l14-8.7v-20.4l12.8-6.6l-12.8-6.3v-23.1h-21.3
		c0,0,3.4-3.2,7.5-10.3c1.8-3,3.4-6.7,5.3-11c15.4-4.6,26.7-14.5,31.7-24.1C285,67.9,295,38.2,295,38.2s-5.7,2.8-12.6,6.2
		c5.5-17,9-31.6,9-31.6s-61,40.4-108.6,78.3l-4.1-2.5c0-0.3,0.2-3.7,0.2-4.1c0,0,0.6-3.9-6.6-6.3c-0.6-0.2-0.9-0.3-1.2-0.3
		c3.4-2.7,8.8-6.6,12.6-9.2c6.2-4.3,5.5-9,5.5-9l-22.7,16.9c-17.4-5.7-31.9,0-31.9,0l-22.7-16.9c0,0-0.7,4.6,5.5,9
		c3.9,2.7,9.4,6.6,12.8,9.2c-0.3,0.2-0.9,0.3-1.2,0.3c-7.1,2.5-6.6,6.3-6.6,6.3c0,0.3,0.2,3.7,0.2,4.1l-4.1,2.1
		C70.8,52.9,9.9,12.6,9.9,12.6s3.4,14.5,9,31.6C11.4,40.6,6.3,38,6.3,38s9.9,29.8,23.1,53.8c4.8,9.7,16.3,19.5,31.7,24.1
		c0,0,2.7,6,4.8,10.3C68.7,131.7,73.8,137.4,73.9,137.4L73.9,137.4z"/>
	<path class="st2" d="M279.4,29.5c-43.9,26.8-83,57-103.4,73.4c-0.2,0.7-0.6,1.4-0.7,1.9c21.5-14,58.6-38.2,100.4-65.4
		C275.7,39.4,275.7,40.3,279.4,29.5L279.4,29.5z M21.4,29.5c3.5,10.6,3.7,10,3.7,10c41.8,26.9,79.2,51.4,100.7,65.4
		c-0.4-0.6-0.6-1.3-0.7-2C104.9,86.4,65.7,56.3,21.4,29.5z M151.1,78.9c-3.5,0-7.1,0.4-10.7,1.3c3.8,5.3,3.2,12.8,3.2,12.8
		c-1.5-6.7-5.9-9.9-8.5-11.3c-1,0.3-2.3,0.6-3.7,1.2c2.8,1.1,6.2,3.9,8.5,9.2c1.1,2.7,1.8,12.8,7.5,15.3c-4.7,4.4-10.6,3.2-15-0.7
		c5.5,11.9,14.7,16.5,18.2,17.9c3.1-2.4,4.7-9.7,3.2-17.2c5.7-2.5,6.4-12.6,7.5-15.3c2.3-5.5,5.7-8,8.5-9.2
		c-1.2-0.3-2.5-0.9-3.7-1.2c-2.7,1.4-7.1,4.7-8.5,11.3c0,0-0.5-7.5,3.2-12.8C157.8,79.4,154.5,78.9,151.1,78.9L151.1,78.9z
		 M231.1,117.3l-4.1,1.2c-13.8,3.7-39.8,7.2-39.8,7.2c12.5,0.2,23.4,1.2,29.4,1.9c1.3-1.6,2.8-3.4,3.4-5c0,0-0.6,4.7-1.6,7.8
		c-1.2,3.9-2.9,7.2-3.5,7.9C215.9,137.7,225.6,130.2,231.1,117.3z M214.9,138.5c-0.1,0-0.2,0.2-0.2,0.2
		C214.7,138.6,214.8,138.6,214.9,138.5z M69.8,117.4c6,13.8,16.5,21.3,16.5,21.3s-2.1-3.7-3.7-8.1c-1-3-1.6-7.8-1.6-7.8
		c0.6,1.4,2.2,3.4,3.4,5c6-0.7,16.8-1.6,29.4-1.9c0,0-26.2-3.7-39.8-7.2C73.9,118.6,69.8,117.4,69.8,117.4z M91.4,188.1
		c-1.9,0.2-3.7,0.3-5.5,0.6l37,21.4c-2-2.2-3.6-4.3-5-6.6C118,203.5,91.4,188.1,91.4,188.1z M209.7,188.1l-26.6,15.4
		c-1.2,2.3-2.8,4.4-5,6.6l37-21.4C213.4,188.4,211.6,188.3,209.7,188.1L209.7,188.1z M148.2,189.4c-7.5,0.2-13.1,1-17,2.1
		c0.9,1,1.9,1.9,2.8,2.8c4.4,4.3,8.3,6.2,8.3,12.1c0,1.8-0.9,3.4-2.1,4.6c-0.7,1-2.2,1.8-3.4,2.5c-0.3,0.2-0.9,0.4-1.2,0.6
		c5,3.1,8.5,4.3,10,4.8c0,0-2.8,0.5-6.2,0.2c1.1,1.8,2.2,3.4,3.2,5.3c0.9-0.3,3.7-1.9,7.6-1.9c4.1,0,6.7,1.6,7.3,1.9
		c0.9-1.9,2.2-3.5,3.2-5.3c-3.2,0.6-6.2-0.2-6.2-0.2c1.4-0.6,5.1-1.6,10-4.8c-0.3-0.2-0.9-0.4-1.2-0.6c-1-0.6-2.3-1.4-3.4-2.5
		c-1.2-1.2-2.1-2.6-2.1-4.6c0-5.7,3.9-7.8,8.3-12.1c0.9-0.9,1.8-1.9,2.8-2.8c-4.1-1-9.6-1.9-17-2.1l-1.9,24.7H150L148.2,189.4
		L148.2,189.4z M129,191.9c-3.7,1.4-5.9,2.8-7.1,3.7c2.6,2.5,7.6,5.7,16.5,7.6c-1-2.6-3.8-5.5-6.7-8.7L129,191.9z M172,192l-2.6,2.6
		c-2.9,3-5.7,5.9-6.7,8.7c9-1.9,13.8-5.1,16.5-7.6C178,194.7,175.7,193.2,172,192L172,192z M122.1,198.9c2.5,4.8,6,9.2,10.4,12.1
		c0.2,0.1,5.1-1.5,6.2-3.7C127,204.6,122.1,198.9,122.1,198.9L122.1,198.9z M179.1,198.9c0,0-4.8,5.9-16.6,8.4
		c1,2.1,6.2,3.7,6.2,3.7C173.1,207.8,176.8,203.8,179.1,198.9L179.1,198.9z"/>
	<path class="st3" d="M276.1,39.3c-41.8,27.1-79,51.4-100.4,65.4c-0.9,2.3-1.8,4.3-2.8,6.2l84.3-45.9l-65.7,47.5l3.2-0.6l34.7-3.4
		c0,0,23.5-2.3,36.7-19.8c6.2-9.6,16.6-37,16.6-37l-15.5,7.8C272.3,47.8,276.1,39.3,276.1,39.3L276.1,39.3z M25.1,39.5
		c0,0,3.7,8.3,8.8,20l-15.2-7.6c0,0,10.4,27.5,16.5,37C48.5,106.4,72,108.7,72,108.7l34.7,3.4l3.2,0.6L44.2,65.2l84.1,45.9
		c-1-1.9-1.9-3.9-2.8-6.2C104.1,90.9,66.9,66.6,25.1,39.5z M137.6,98.9c0.1,0-5.6,9.6,5,9C142.5,107.9,138.3,105.1,137.6,98.9z
		 M163.8,98.9c-0.7,6.2-5,9-5,9C169.3,108.4,163.8,98.9,163.8,98.9z M93.5,132.7v9.2l1.3,1.2h6.3v-3.4h-2.5v1h-2.4v-5.6h2.4v0.7h2.5
		v-3.2H93.5z M107,132.7v10.4h2.5v-3.4h3v3.4h2.5v-10.4h-2.5v4.7h-3v-4.7H107z M120.6,132.7V143h2.7v-3.4h3v3.4h2.4v-9.1l-1.2-1.2
		C127.5,132.7,120.6,132.7,120.6,132.7z M128.7,143v0.2V143L128.7,143z M149.3,132.7v10.4h6.4v-2.3h-3.8v-8.1H149.3z M160.9,132.7
		v9.2l1.2,1.2h6.9v-9.2l-1.2-1.2H160.9z M174.7,132.7v2.5h2.3v7.9h2.8v-7.9l2.1-0.2v-2.3H174.7z M187.2,132.7v2.5h2.3v7.9h2.8v-7.9
		l1.9-0.2v-2.3H187.2z M200.3,132.7v10.4h7.6v-2.3h-5.1v-1.6h5.1v-2.4h-5.1v-1.6h5.1v-2.5H200.3z M134.7,132.9v10.3h2.6v-3.6h1.9
		l1.6,3.5h2.7l-1.7-3.5h1v-5.5l-1.2-1.2H134.7z M123.3,134.9h3v2.5h-3V134.9z M137.4,135h3.1v2.1h-3.1V135z M163.3,135.1h3v5.7h-3
		V135.1z M217.2,143l2.8,3.2v16.9l14.7,6.3v9.4c0,0-3.4-0.3-7.6-1v-3l-7.1-0.9v9.6c7.8,0.9,15,1.9,21.8,3.2
		c-0.2-5.3-0.2-13.1-0.2-17c2.3-1,4.4-2.1,6.6-3.2c-7.1-3.4-14.1-6.2-21.5-9v-8.1h7.6v3h7.2V143H217.2L217.2,143z M59,143.1V164
		c0,0-5.9,2.8-5.9,3l5.9,3v17c2.3-0.3,4.6-0.9,7.1-1.2v-16.3l8.1-3.4v18.2c2.3-0.3,4.6-0.7,7.1-0.9v-40.4h-7.1v14.5l-8.1,3.4v-17.9
		C66.1,143.1,59,143.1,59,143.1z M111.7,149.2l2.8,3.4v28c2.5-0.2,4.6-0.2,7.1-0.3v-10.9h-0.1c1.8,0,3.4-0.2,5.3-0.2
		c1.4,3.4,2.6,7.2,3.9,10.6c2.5,0,4.6-0.2,7.1-0.2c-1.4-3.4-2.6-7.2-3.9-10.6h2.8v-16.6l-3.2-3.2L111.7,149.2L111.7,149.2z
		 M84,149.3l2.7,3.2v26.6l2.8,3.4c6.2-0.7,12.9-1.2,19.7-1.6v-28.2l-3.4-3.4H84z M195.7,149.3v6.6h6.2v25.7c2.6,0.2,5.1,0.3,7.8,0.7
		v-26.4h6.2v-6.6L195.7,149.3L195.7,149.3z M139.3,149.4l2.8,3.4v27.1h7.2c-0.1-0.2-0.1-23.9-0.1-23.9h8.1v23.8c2.5,0,5,0,7.5,0.2
		v-27.1l-3.4-3.4H139.3L139.3,149.4z M167.7,149.6l2.6,3.4v27.3c7.2,0.2,14.5,0.6,21.4,1v-7.2h-0.2V174c-4.6-0.2-9.2-0.6-13.8-0.7
		v-5c4.6,0.2,9.2,0.3,13.8,0.6v-7.1c-4.6-0.2-9.2-0.2-13.8-0.3v-5.3h13.8v-6.6L167.7,149.6L167.7,149.6z M93.7,155.9h8.1v18.4
		c-2.8,0.2-5.3,0.3-8.1,0.6V155.9z M121.5,155.9h8.1v6.3c-2.8,0-5.3,0-8.1,0.2V155.9z M150.4,229.6c-3.4,0-4.3,0.9-5.3,1.6l5.5,21.9
		l5.1-21.8C155,230.4,153.8,229.6,150.4,229.6z"/>
</g>
</svg>
