<?xml version="1.0" encoding="utf-8"?>
<!-- Generator: Adobe Illustrator 23.0.6, SVG Export Plug-In . SVG Version: 6.00 Build 0)  -->
<svg version="1.1"
	 id="Layer_1" xmlns:cc="http://creativecommons.org/ns#" xmlns:dc="http://purl.org/dc/elements/1.1/" xmlns:rdf="http://www.w3.org/1999/02/22-rdf-syntax-ns#"
	 xmlns="http://www.w3.org/2000/svg" xmlns:xlink="http://www.w3.org/1999/xlink" x="0px" y="0px" viewBox="0 0 300 300"
	 style="enable-background:new 0 0 300 300;" xml:space="preserve">
<style type="text/css">
	.st0{fill:#CE1141;}
	.st1{fill:none;stroke:#CE1141;stroke-width:0.3432;}
	.st2{fill:#FFFFFF;}
</style>
<g>
	<path d="M298.9,72.4c-1.2-20.8-10.5-39.5-16-50.6l-0.7-1.2l-2.4-4.8l0.5,5.3c0.5,7.4,2.2,32.8-5.3,47.4
		c-9.4,19.4-37.1,17.5-46.2,17h-0.5c-14.9-1-63.5-2.7-78.4-2.7c-19.6,0.2-41.2,1.7-58.7,3.1c-8.6,0.7-16,1.2-20.9,1.4
		c-0.5,0-1,0.2-1.9,0.2c-24.4,2.2-39.8-5-45.8-21.5C19,55.8,19,35.7,19,26.1v-6.9l-1.9,3.4C8.3,38.2,2.9,55.5,1.1,73.3
		c-1.7,30.9,14.4,42,26.6,47.5c12.9,6,25.9,6.9,30.2,7.2h0.2c1,0.1,1.9,0.2,2.9,0.2c1.4,0,2.9,0.1,4.3,0.3c-2.4,0.5-5.5,1-8.1,1.4
		c-2.9,0.7-5.7,1-7,1.4c-2.9,0.7-15.3,3.4-21.8,5.8c-5.5,1.9-11.7,4.8-11.8,4.8l-1,0.5l0.9,1c0,0,2.1,2.7,4.1,5
		c8.4,7.6,19.6,11.2,30.9,10.1c11.5-1.4,17.8-4.3,20.3-5.5c1.2,4.4,2.7,8.7,4.5,12.9c5.1,12.9,17.2,37.8,21.6,46.3
		c3.6,7,7.2,13.2,9.6,17.3l0.9,1.5c-0.7,2.2-2.2,4.2-4.1,5.5c-0.3,0.3-0.5,0.7-0.9,0.9l-0.2,0.3v0.5c-0.2,2.2-0.7,24,13.9,39.8
		l0.2,0.2h0.2c7.4,2.9,16.8,5.8,32.3,5.8c15.6,0,28.8-3.8,33.5-6l0.2-0.2l0.2-0.2c10.1-12,14.9-30.4,14.9-36.9v-0.3l-0.3-0.3
		l-0.7-0.7c-2.4-2.1-4.1-4.9-4.8-8.1c1.4-2.1,3.8-7.2,5.8-11.3c0.7-1.8,1.6-3.6,2.6-5.3c4.3-8.6,16.8-35.7,22-48.4
		c3.1-8.2,4.8-12.2,5.7-13.9c2.2,1.2,8.2,3.9,19.6,5.1c14.6,1.4,28.5-8.2,32.4-13.7c0.7-0.9,1.7-2.1,1.9-2.2l0.9-1l-1.2-0.5
		c-0.2,0-0.5-0.2-2.9-1l-8.1-2.6l-8.1-2.7c-2.2-0.7-12.2-2.9-19.2-4.5l-5.5-1.2l1.7-0.3C256.8,124.3,301.5,116.5,298.9,72.4z"/>
	<path class="st0" d="M17.3,27.8c-0.5,11.5-0.3,24,2.2,35c-2.3-2.5-4.8-4.8-7.4-7c-2.4,2.6-4.5,5.3-6.9,7.7
		C7.7,51.1,11.8,39.1,17.3,27.8z"/>
	<path class="st1" d="M17.3,27.8c-0.5,11.5-0.3,24,2.2,35c-2.3-2.5-4.8-4.8-7.4-7c-2.4,2.6-4.5,5.3-6.9,7.7
		C7.7,51.1,11.8,39.1,17.3,27.8z"/>
	<path class="st0" d="M294.4,58.4l0.7,3.1l-6-4.3c-2.7,1.2-5.3,2.9-7.9,4.1c1.9-11.3,2.4-22.7,1.7-34.2
		C288.3,36.9,291.2,47.5,294.4,58.4z"/>
	<path class="st1" d="M294.4,58.4l0.7,3.1l-6-4.3c-2.7,1.2-5.3,2.9-7.9,4.1c1.9-11.3,2.4-22.7,1.7-34.2
		C288.3,36.9,291.2,47.5,294.4,58.4z"/>
	<path class="st0" d="M150.3,167.2c6.2,9.6,17.7,12.4,28.3,9.6c3.9-0.9,7.7-2.2,11.3-3.9c-3.7,10.5-5.5,21.5-5.3,32.6
		c0,9.6,1.6,19.2,4.6,28.3c-1.5-0.3-2.9-1.5-4.6-2.2c-21.1-10.6-50.8-10.3-71.6,0.7c1-3.3,2.1-7,2.9-10.5c3.1-16,0.9-32.6-4.6-47.2
		c11.2,4.6,27.5,5.7,36.6-4.6C148.6,168.9,149.4,168,150.3,167.2z"/>
	<path class="st1" d="M150.3,167.2c6.2,9.6,17.7,12.4,28.3,9.6c3.9-0.9,7.7-2.2,11.3-3.9c-3.7,10.5-5.5,21.5-5.3,32.6
		c0,9.6,1.6,19.2,4.6,28.3c-1.5-0.3-2.9-1.5-4.6-2.2c-21.1-10.6-50.8-10.3-71.6,0.7c1-3.3,2.1-7,2.9-10.5c3.1-16,0.9-32.6-4.6-47.2
		c11.2,4.6,27.5,5.7,36.6-4.6C148.6,168.9,149.4,168,150.3,167.2z"/>
	<path class="st0" d="M103.2,175.1c-0.5,4.5-2.1,9.6-6.9,11.3c-3.9,1-7.4-1.2-10-3.9c-1.2-1.3-2-2.9-2.4-4.6
		c6,3.9,13.9,0.9,19.1-2.9L103.2,175.1z"/>
	<path class="st1" d="M103.2,175.1c-0.5,4.5-2.1,9.6-6.9,11.3c-3.9,1-7.4-1.2-10-3.9c-1.2-1.3-2-2.9-2.4-4.6
		c6,3.9,13.9,0.9,19.1-2.9L103.2,175.1z"/>
	<path class="st0" d="M216.3,175.6c-1.4,4.1-5,8.2-9.1,9.1c-3.2,0.5-6.3-1-7.9-3.8c-1.1-1.5-1.7-3.3-1.9-5.1
		C202.8,180,211.2,179,216.3,175.6z"/>
	<path class="st1" d="M216.3,175.6c-1.4,4.1-5,8.2-9.1,9.1c-3.2,0.5-6.3-1-7.9-3.8c-1.1-1.5-1.7-3.3-1.9-5.1
		C202.8,180,211.2,179,216.3,175.6z"/>
	<path class="st0" d="M204.7,187.2c2.3,0.2,4.6-0.1,6.7-0.9c-6,14.9-13.2,29.3-20.6,43.8c-2.6-7.2-1.9-14.9-1.5-23
		c1.1-9.4,3.2-18.6,6.2-27.6C197.5,183,200.7,186.6,204.7,187.2z"/>
	<path class="st1" d="M204.7,187.2c2.3,0.2,4.6-0.1,6.7-0.9c-6,14.9-13.2,29.3-20.6,43.8c-2.6-7.2-1.9-14.9-1.5-23
		c1.1-9.4,3.2-18.6,6.2-27.6C197.5,183,200.7,186.6,204.7,187.2z"/>
	<path class="st0" d="M110.8,230v0.2c-9.1-13.7-16-28.3-22.5-42.9c2.9,1.5,7.9,2.6,11,0.5c2.8-2.2,4.8-5.2,5.7-8.6
		C112.3,193.9,114.1,213.2,110.8,230z"/>
	<path class="st1" d="M110.8,230v0.2c-9.1-13.7-16-28.3-22.5-42.9c2.9,1.5,7.9,2.6,11,0.5c2.8-2.2,4.8-5.2,5.7-8.6
		C112.3,193.9,114.1,213.2,110.8,230z"/>
	<path class="st0" d="M195.4,241.6c-1.2,12.6-6.2,24.5-14.2,34.2c-18.7,7.4-43.9,8.1-62.6,0.2c-9.3-10-12.7-22.8-13.2-36.6
		c19.9-14.4,51-17.7,73.8-7.4C184.8,234.8,190.4,237.5,195.4,241.6z"/>
	<path class="st1" d="M195.4,241.6c-1.2,12.6-6.2,24.5-14.2,34.2c-18.7,7.4-43.9,8.1-62.6,0.2c-9.3-10-12.7-22.8-13.2-36.6
		c19.9-14.4,51-17.7,73.8-7.4C184.8,234.8,190.4,237.5,195.4,241.6z"/>
	<path class="st0" d="M272.5,138.3c-16.9-6-34.7-9.3-52.7-9.8c-1.5-19.1-3.8-30.9-7.6-41.7c-8.8-0.5-47.5-2.1-62.6-2.1
		c-14.9,0-53.2,2.4-61.8,2.9c-4.9,13.4-8.1,27.5-9.4,41.7c-19.1,1.5-37.9,5.5-55.9,11.8c-2.4,0.9-3.4,1.7-3.4,1.5
		c6.6,8.3,16.5,13.3,27.1,13.6c5.1,0.2,14.9-0.9,21.1-3.6c1.7-0.7,5.1-2.2,5.1-2.2c0.7,1.2,1.2,2.4,1.7,3.6
		c1.7,4.8,3.9,11.8,5.5,14.8c2.2,4.6,5.8,8.1,11.7,8.2c3.9-0.2,7.4-2.1,9.8-5.1c-15.1-0.9-21.5-8.9-22.5-21.1
		c-3.6-0.5-4.6-0.9-5-2.9c-0.4-2.2,0.1-4.5,1.5-6.2c1.7-2.4,4.6-4.6,11.8-2.4c4.1,1.6,7.9,3.9,11.2,6.9c3.1,2.9,12.2,12.4,17.7,15.4
		c5.8,3.4,17,6.7,24.2-0.5c4.6-4.3,7.6-10.1,8.6-16.3c-11.4-0.3-22.7-1.3-34-2.9c-3.1-0.5-1.7-3.4,0.7-2.7c0,0,19.7,2.6,33.8,2.7
		c0-1.7,0-4.5,0.2-7.7c-11.9-0.3-23.7-1.5-35.4-3.6c-2.6-0.7-2.1-3.6,0.3-2.9c11.6,1.9,23.3,3,35,3.4c0-2.4,0.2-6,0.2-9.3
		c-11.6-0.2-23.2-1.2-34.7-3.1c-2.9-0.5-2.2-3.1,0-2.7c11.5,1.6,23.1,2.5,34.7,2.7V111c0-2.9,2.6-3.1,2.6-0.2v7.7
		c10.9-0.3,21.8-1.3,32.6-3.1c3.4-0.7,3.1,2.2,1.5,2.4c-11.3,2.2-22.7,3.5-34.2,3.9v9.3c10.5-0.3,22.8-0.7,33.3-3.1
		c3.9-0.9,4.3,2.2,1,2.7c-11.3,1.9-22.7,3.1-34.2,3.4c0,2.6,0,5.8,0.2,7.7c11.9-0.4,23.8-1.4,35.5-3.1c2.7-0.5,3.3,2.4,0.3,2.9
		c-2.9,0.3-22.7,2.9-35.4,3.3c1.4,4.3,1.5,10.5,7.7,15.8c5.8,5.1,16,4.6,23,0.5c5.5-3.3,14.2-12.7,17.3-15.6c2.6-2.2,8.8-7.9,17-7.7
		c8.1,0.2,8.2,4.3,8.8,5.5c0.3,1.4,0.7,3.6-1.2,4.8c-1.4,0.9-2.7,0.5-4.1,1.2c-1,6.7-3.1,14.2-8.4,18.2c-5.7,4.3-14.4,4.8-14.4,4.8
		s1.2,1.4,1.5,1.7c2.3,1.6,5.1,2.4,7.9,2.1c3.6-0.6,7-2.4,9.6-5c2.7-3.6,5.3-11,7.2-15.8c0.7-1.7,2.4-5,2.9-6.4
		c1.7,0.7,2.4,1.2,5.5,2.4c6.3,2.4,13,3.5,19.7,3.4c8.4-0.2,18-5.3,23.7-10.6c0.9-0.9,2.9-3.3,2.9-3.3S274,138.8,272.5,138.3z"/>
	<path class="st1" d="M272.5,138.3c-16.9-6-34.7-9.3-52.7-9.8c-1.5-19.1-3.8-30.9-7.6-41.7c-8.8-0.5-47.5-2.1-62.6-2.1
		c-14.9,0-53.2,2.4-61.8,2.9c-4.9,13.4-8.1,27.5-9.4,41.7c-19.1,1.5-37.9,5.5-55.9,11.8c-2.4,0.9-3.4,1.7-3.4,1.5
		c6.6,8.3,16.5,13.3,27.1,13.6c5.1,0.2,14.9-0.9,21.1-3.6c1.7-0.7,5.1-2.2,5.1-2.2c0.7,1.2,1.2,2.4,1.7,3.6
		c1.7,4.8,3.9,11.8,5.5,14.8c2.2,4.6,5.8,8.1,11.7,8.2c3.9-0.2,7.4-2.1,9.8-5.1c-15.1-0.9-21.5-8.9-22.5-21.1
		c-3.6-0.5-4.6-0.9-5-2.9c-0.4-2.2,0.1-4.5,1.5-6.2c1.7-2.4,4.6-4.6,11.8-2.4c4.1,1.6,7.9,3.9,11.2,6.9c3.1,2.9,12.2,12.4,17.7,15.4
		c5.8,3.4,17,6.7,24.2-0.5c4.6-4.3,7.6-10.1,8.6-16.3c-11.4-0.3-22.7-1.3-34-2.9c-3.1-0.5-1.7-3.4,0.7-2.7c0,0,19.7,2.6,33.8,2.7
		c0-1.7,0-4.5,0.2-7.7c-11.9-0.3-23.7-1.5-35.4-3.6c-2.6-0.7-2.1-3.6,0.3-2.9c11.6,1.9,23.3,3,35,3.4c0-2.4,0.2-6,0.2-9.3
		c-11.6-0.2-23.2-1.2-34.7-3.1c-2.9-0.5-2.2-3.1,0-2.7c11.5,1.6,23.1,2.5,34.7,2.7V111c0-2.9,2.6-3.1,2.6-0.2v7.7
		c10.9-0.3,21.8-1.3,32.6-3.1c3.4-0.7,3.1,2.2,1.5,2.4c-11.3,2.2-22.7,3.5-34.2,3.9v9.3c10.5-0.3,22.8-0.7,33.3-3.1
		c3.9-0.9,4.3,2.2,1,2.7c-11.3,1.9-22.7,3.1-34.2,3.4c0,2.6,0,5.8,0.2,7.7c11.9-0.4,23.8-1.4,35.5-3.1c2.7-0.5,3.3,2.4,0.3,2.9
		c-2.9,0.3-22.7,2.9-35.4,3.3c1.4,4.3,1.5,10.5,7.7,15.8c5.8,5.1,16,4.6,23,0.5c5.5-3.3,14.2-12.7,17.3-15.6c2.6-2.2,8.8-7.9,17-7.7
		c8.1,0.2,8.2,4.3,8.8,5.5c0.3,1.4,0.7,3.6-1.2,4.8c-1.4,0.9-2.7,0.5-4.1,1.2c-1,6.7-3.1,14.2-8.4,18.2c-5.7,4.3-14.4,4.8-14.4,4.8
		s1.2,1.4,1.5,1.7c2.3,1.6,5.1,2.4,7.9,2.1c3.6-0.6,7-2.4,9.6-5c2.7-3.6,5.3-11,7.2-15.8c0.7-1.7,2.4-5,2.9-6.4
		c1.7,0.7,2.4,1.2,5.5,2.4c6.3,2.4,13,3.5,19.7,3.4c8.4-0.2,18-5.3,23.7-10.6c0.9-0.9,2.9-3.3,2.9-3.3S274,138.8,272.5,138.3z"/>
	<path d="M182,243.7c1.5,2.9,0.3,6.2-1.4,8.8c-3.1,3.9-8.2,5.6-13,4.3c-3-0.9-5.5-2.9-7.2-5.5c-0.7,2.4,1,4.1,0.9,6.4
		c-0.3,0.4-0.8,0.5-1.3,0.3c0,0-0.1-0.1-0.1-0.1c-2.7-3.6-3.8-9.1-1.4-13c2.9-5.5,8.6-7.7,14.6-7.2C176.9,238,180.2,240.3,182,243.7
		z"/>
	<path class="st1" d="M182,243.7c1.5,2.9,0.3,6.2-1.4,8.8c-3.1,3.9-8.2,5.6-13,4.3c-3-0.9-5.5-2.9-7.2-5.5c-0.7,2.4,1,4.1,0.9,6.4
		c-0.3,0.4-0.8,0.5-1.3,0.3c0,0-0.1-0.1-0.1-0.1c-2.7-3.6-3.8-9.1-1.4-13c2.9-5.5,8.6-7.7,14.6-7.2C176.9,238,180.2,240.3,182,243.7
		z"/>
	<path d="M140.7,245.6c2.4,3.9,1.2,9.1-1,12.9c-0.3,0.5-0.9,1-1.5,0.5c-1-1.2,0.3-2.2,0.5-3.4c0.3-1,0.4-2.1,0.2-3.1
		c-3,4.4-8.2,6.6-13.4,5.7c-3.9-0.9-7.1-3.7-8.6-7.4c-0.7-2.4-0.3-5,1-7c3.6-4.8,10.1-5.8,15.4-4.1
		C136.4,240.6,139,242.8,140.7,245.6z"/>
	<path class="st1" d="M140.7,245.6c2.4,3.9,1.2,9.1-1,12.9c-0.3,0.5-0.9,1-1.5,0.5c-1-1.2,0.3-2.2,0.5-3.4c0.3-1,0.4-2.1,0.2-3.1
		c-3,4.4-8.2,6.6-13.4,5.7c-3.9-0.9-7.1-3.7-8.6-7.4c-0.7-2.4-0.3-5,1-7c3.6-4.8,10.1-5.8,15.4-4.1
		C136.4,240.6,139,242.8,140.7,245.6z"/>
	<path d="M181.7,271.5c-0.3,0.9-0.5,0.9-1.2,1.7c-1.9-0.5-3.9-1.2-6-1.9c-17.2-6.7-39-4.8-55.1,1.9c-0.5-0.4-0.9-0.9-1-1.5
		C137.1,263.3,162.8,262.2,181.7,271.5z"/>
	<path class="st1" d="M181.7,271.5c-0.3,0.9-0.5,0.9-1.2,1.7c-1.9-0.5-3.9-1.2-6-1.9c-17.2-6.7-39-4.8-55.1,1.9
		c-0.5-0.4-0.9-0.9-1-1.5C137.1,263.3,162.8,262.2,181.7,271.5z"/>
	<path d="M184.8,180.4c-2.7,13.6-11.3,29.2-25.7,33.1c-11.3,2.9-24,0.5-31.8-8.9c-5.3-6.8-8.5-15.1-9.1-23.7
		c0.5-0.3,1.1-0.4,1.7-0.3c1.2,12.9,7.9,26.9,20.8,30.9c11.7,3.7,24.4,0,32.3-9.4c5-6.6,8.4-14.2,10.1-22.3
		C183.7,179.7,184.3,179.9,184.8,180.4z"/>
	<path class="st1" d="M184.8,180.4c-2.7,13.6-11.3,29.2-25.7,33.1c-11.3,2.9-24,0.5-31.8-8.9c-5.3-6.8-8.5-15.1-9.1-23.7
		c0.5-0.3,1.1-0.4,1.7-0.3c1.2,12.9,7.9,26.9,20.8,30.9c11.7,3.7,24.4,0,32.3-9.4c5-6.6,8.4-14.2,10.1-22.3
		C183.7,179.7,184.3,179.9,184.8,180.4z"/>
	<path class="st2" d="M22.4,71.6c7.4,14.2,22.3,18.9,37.6,18c8.4,0,16.6-0.9,25.1-1.4v0.5c-4.3,12-7.3,24.3-8.9,36.9
		c-22,0.9-44.5-1-60.6-15.6C4.4,98.9,1.6,83.4,4,68.1c2.6-3.1,5.5-5.7,8.1-8.8C15.7,63.3,21.5,66.4,22.4,71.6z"/>
	<path class="st2" d="M295.8,65.2c0.5,2.2,0.5,4.3,0.9,6.7c1,16.8-6.4,32.4-20.8,41c-15.8,9.6-34,12.7-53.4,13.4
		c-0.3-1.7-0.5-4.1-0.9-6c-1.4-11.1-3.6-22.2-6.7-33c20.8-0.3,46,5.1,59.7-13.9c1.7-2.7,3.6-5,5.1-7.9c3.1-1.4,6-3.4,9.1-5
		C291.5,61.8,293.2,63.8,295.8,65.2z"/>
	<path class="st2" d="M217,150.9c0.2,6.5-2.1,13.2-7.9,16.3c-2.8,1.4-5.8,2.1-8.9,1.9c-0.1-0.6-0.1-1.3,0-1.9
		c4.6,0,9.3-1.7,11.8-5.5c1.6-3,2.4-6.4,2.4-9.8C215.2,151.3,216.1,151,217,150.9z"/>
	<path class="st2" d="M100,168.4c-1,0.3-2,0.3-2.9,0c-8.4,0-15.1-6.8-15.1-15.1c0-0.4,0-0.8,0-1.2c0.9-0.3,2-0.3,2.9,0
		c0,6,2.4,13.9,14.8,13.9C100.5,167.3,99.6,167.5,100,168.4z"/>
</g>
</svg>
