<?xml version="1.0" encoding="utf-8"?>
<!-- Generator: Adobe Illustrator 23.0.6, SVG Export Plug-In . SVG Version: 6.00 Build 0)  -->
<svg version="1.1"
	 id="Layer_1" xmlns:cc="http://creativecommons.org/ns#" xmlns:dc="http://purl.org/dc/elements/1.1/" xmlns:rdf="http://www.w3.org/1999/02/22-rdf-syntax-ns#"
	 xmlns="http://www.w3.org/2000/svg" xmlns:xlink="http://www.w3.org/1999/xlink" x="0px" y="0px" viewBox="0 0 300 300"
	 style="enable-background:new 0 0 300 300;" xml:space="preserve">
<style type="text/css">
	.st0{fill:#FFB81C;}
	.st1{fill-rule:evenodd;clip-rule:evenodd;fill:#041342;}
	.st2{fill-rule:evenodd;clip-rule:evenodd;fill:#6F263D;}
</style>
<g transform="matrix(1.25 0 0 -1.25 -566.16 137.5)">
	<g>
		<path class="st0" d="M633.4,92.6c-57.6-0.7-128.8-44.1-158.2-68.4L455.4-6.5L480-0.4c-37.7-47.3-24.2-78.4-22.7-81.6
			c4-11.2,13-20.1,27.7-26c11.2-4.5,23.8-5,34.7-4.5C566.6-110.2,622-81,657.8-49.9l0.8,0.7l7.1,35.9L651.9-21
			c-48.3-21.2-87.1-32.9-87.1-32.9c-25.4-7.9-37.1-9.2-45.4-7.3l-1,0.3c-2.3,0.9-2.7,3-2.7,3.5c-0.4,15.9,27,50.1,40.8,64.9
			c12.8,13.8,33,28.9,50.1,36.1c11.4,4.8,18.8,6.7,22.3,6.4c-0.9-3-2.5-6.6-4.7-11.1c0,0-18.3-36.1-19.1-37.6
			c-0.5-0.8,87.2,50.3,87.2,50.3v17.5l-4.3,4.3C673.3,87.5,654.2,92.8,633.4,92.6L633.4,92.6z"/>
		<path class="st1" d="M686.3,66.4l-57.5-35.2c-0.5-1-7.9-15.5-8.6-16.2l66.3,40.1C686.4,55.1,686.3,66.4,686.3,66.4z M622.9,65
			c-5.8-0.2-14.1-3-23.5-6.9c-18.1-7.6-39-23.3-52.3-37.7c-13-13.9-42.9-50.3-42.5-69.4c0.1-5,1.9-8.5,4.8-10.9
			c-0.1,0.8-0.2,1.6-0.2,2.4c-0.5,19.1,29.5,55.5,42.5,69.4C565,26.2,586,41.9,604,49.5c11.9,5,22.1,8.2,27.7,6.4
			C632.2,62.6,628.8,65.1,622.9,65z M502.2,21.2c-7.2-1.7-15.1-3.5-22.9-5.3c-1.5-1.9-8-10.9-8.9-12c6.3,1.6,13.4,3.3,20.4,5
			C494.9,13.5,498.7,17.7,502.2,21.2z M657-29.3c-34.5-33.2-93.6-66-142.1-68.2c-10.5-0.5-22.1,0.1-32,4
			c-9.1,3.6-15.4,8.3-19.6,13.8c3.2-9.1,10.7-17,24.2-22.3c9.9-4,21.4-4.6,32-4.1c45,2.1,99,30.4,134.2,61L657-29.3L657-29.3z"/>
		<path class="st2" d="M636.1,86.2c-54.7,0.8-125.7-41.2-156.5-66.7c11.5,3.2,23.3,5.7,34.9,8.4c-128.1-122.5,2.1-171.2,140-54.7
			c-48.7-21.4-88-33.3-88-33.3C465.7-91.5,498-25.9,544.1,23.2c5.7,6,23.7,22.8,39.5,31.1c27.7,16.3,69.2,26.9,46.2-18.2L683.4,69
			C670.8,80.9,654.4,85.9,636.1,86.2z"/>
	</g>
</g>
</svg>
