<?xml version="1.0" encoding="utf-8"?>
<!-- Generator: Adobe Illustrator 23.0.6, SVG Export Plug-In . SVG Version: 6.00 Build 0)  -->
<svg version="1.1"
	 id="Layer_1" xmlns:cc="http://creativecommons.org/ns#" xmlns:dc="http://purl.org/dc/elements/1.1/" xmlns:rdf="http://www.w3.org/1999/02/22-rdf-syntax-ns#"
	 xmlns="http://www.w3.org/2000/svg" xmlns:xlink="http://www.w3.org/1999/xlink" x="0px" y="0px" viewBox="0 0 300 300"
	 style="enable-background:new 0 0 300 300;" xml:space="preserve">
<style type="text/css">
	.st0{fill:#FFFFFF;}
	.st1{fill:#C4CED4;}
	.st2{fill:#007DC5;}
</style>
<g>
	<path d="M27.3,212.1c-1.8-2.4-9.2-14.1-9.2-33.7v-1.8c-5.2-14-7.8-28.8-7.8-43.8c0-36.4,15.6-69.2,40.9-93.1
		c55.6-51.6,141.6-51.6,197.1,0c26.1,24,41,57.7,41.1,93.1c0,13.2-2.1,26.2-6.3,38.7c0.1,24.1-6.8,47.6-20.1,67.7
		c-0.7,0.7-1.7,1.4-2.6,2h-0.2c-0.2,0.2-0.2,0.2-0.2,0.7c0,0-0.5,1.5-0.8,2.8l0.5-0.2l-0.7,0.8c-25.1,33.9-64.9,53.8-107.1,53.5
		C94,299.2,44.8,262.6,27.3,212.1z"/>
	<path class="st0" d="M17.6,133.1C17.6,64.4,77,8.4,149.9,8.4s132.3,55.9,132.3,124.7c0,68.6-59.2,124.5-132.3,124.5
		C77,257.6,17.6,201.6,17.6,133.1z"/>
	<path d="M70,59.1l5.4-4.6c3.7-2.8,4.8-6.7,2.8-9.2c-2.6-3.3-6.7-2.2-11.1,1.1l-4.3,3.7L70,59.1z M69.6,49.4l0.2-0.2
		c1.8-1.3,3.1-1.5,4.1-0.2c0.8,1.1,0.2,2.6-1.3,3.7l-0.2,0.5L69.6,49.4z"/>
	<path d="M102.9,36.7l3.9-1.8l1.1,1.1l5.6-2.4l-9.6-8.2l-5.9,2.2l-0.7,12.6l5.6-2.2L102.9,36.7z M102.7,33.6l-0.3-3.5V30
		c0.3,0.5,0.7,0.9,1.1,1.3l1.3,1.5L102.7,33.6z"/>
	<polygon points="130.5,18.5 136.2,17.8 137.1,25.4 141.8,24.9 142.3,28.7 131.8,29.8 	"/>
	<polygon points="162.9,17.8 168.8,18.6 167.5,26.2 172.3,26.9 171.6,30.6 161.4,29.1 	"/>
	<path d="M195.6,36.3l3.9,1.8l-0.2,1.5l5.6,2.6l-0.7-12.8l-5.9-2.4l-9.6,8.2l5.6,2.6L195.6,36.3z M197.6,34.3l2.4-2.8v0.2
		c0,0.7-0.2,0.8-0.2,1.5l-0.2,2L197.6,34.3z"/>
	<path d="M223.9,49.4l0.2,0.5c0.5,1.1,1.1,2.2,2,3.1c0.5,0.5,1.3,0.8,1.5,0.5c0.2-0.4-0.2-1.1-0.5-1.3l-0.8-0.8
		c-1.5-1.8-2.4-3.5-1.3-5c1.8-2,5.4-1.1,8.1,1.1c1.2,1.1,2.3,2.4,3.3,3.9l-3.1,1.3c-0.5-1-1.2-2-2.2-2.6c-0.2-0.5-1.1-0.8-1.3-0.5
		c-0.2,0.5,0.2,0.8,0.7,1.3l0.7,0.8c1.8,1.8,2.4,3.7,1.1,5.2c-1.8,2-5.2,0.8-7.9-1.3c-1.6-1.2-3-2.8-3.9-4.6L223.9,49.4z"/>
	<path d="M260.8,101.1c-0.8-0.7-2.6-1.8-2.6-1.8c-0.4-0.2-0.7-0.5-0.8-0.8c-0.2-1-0.5-2.1-0.8-3.1c-11.5-14.8-26-26.9-42.6-35.5
		c-1.8-0.7-3.7-1.3-5.6-1.5c-0.4,0-0.7-0.2-1.1-0.5c-1.4-1.4-3.1-2.5-5-3.3c-15.9-6.5-33.1-9.8-50.3-9.8c-5.3,0-10.6,0.4-15.9,1.1
		l6.9-9.4c-27.4-0.7-47.2,20.9-47.2,20.9c-6.6,3-12.9,6.5-18.9,10.4c-8.2,2.7-15,8.8-18.5,16.8C54.6,87.4,47.4,97,47.4,97
		c-1.7,1.1-3.3,2.3-4.8,3.7c-6.4,6.8-10.7,15.3-12.6,24.4c-0.2,0.2-0.3,0.4-0.2,0.7c-0.2,0.7-0.2,1.5-0.5,2.4
		c-0.2,1.8-0.7,3.3-0.8,5l0.2-0.2c0,0.3-0.1,0.5-0.2,0.7c-0.9,2.7-1.8,5.4-2.4,8.2c-0.2,1.1-4.1,12.4-4.1,12.4l0,0
		c-9.8,34.4,3.3,55.1,5.4,58.3C44.8,262.9,94,299,151.6,299c42.2,0.3,82-19.6,107.1-53.5c0.5-1,0.7-2.2,0.8-3.3
		c0-0.5,0.3-0.8,0.7-1.1c1.8-0.8,2.4-1.5,2.4-1.8c13.2-20.1,20.1-43.7,20.1-67.7C283,146.6,275.4,121.9,260.8,101.1z"/>
	<path class="st0" d="M97,76.4c0.2-0.5,0.7-0.7,0.8-0.8l0.7-0.7h0.2c0-3.9,0.6-7.9,1.5-11.7c12-16.6,31.6-20.9,31.6-20.9
		c2.4-0.8,0.8,0.2,0.8,0.2c-12.3,13.9-11,25.2-11,25.2l12,42.9c0,0-9.6-3.5-17-18.3c-3.5,30.1,25,54.4,25,54.4
		c1.1,1.1-0.8-0.2-0.8-0.2c-6.9-3.5-15.3-11.1-17.4-13c0.5,2.4,14.3,71.6,14.6,72.1c0.1,0.5,0.2,0.9,0.5,1.3l4.6-11.7l4.1,35
		c-18.3,16.8-37.5,10.2-38.5,9.8c0.3,0.4,0.5,0.7,0.7,1.1c0,0,15.6,30.5,79.5,27.5c0,0,1.5,0,1.3,0.2c-0.2,0-0.3,0.1-0.5,0.2
		c-1,0.3-2,0.6-3.1,0.7C109.7,290.1,69.9,224.9,68.1,222c-2.4-3.5-4.6-7.2-6.3-11.1c0-0.2,0-0.7,0.2-0.2c0,0,8.1,8.2,31.3,10.4h0.2
		C75.7,201.5,68,187.2,67,185c0,0-2.2-3.3-4.8-12.4c0,0,0.2-0.5,0.2,0c0.8,1.8,6.9,10.4,14.1,12.4c-6.1-9.8-10-25.2-10.4-27.5
		c8.2,11.5,23.1,12.4,23.1,12.4c0-0.1-0.1-0.2-0.2-0.2l0,0v0.2c-24.2-24.2-18.9-50.3-9.2-69.2C84.3,91.6,90.1,83.5,97,76.4z"/>
	<polygon class="st1" points="169.3,235.4 153.4,252 173,237 162.7,202.1 167.3,160.3 159.5,200.1 	"/>
	<path class="st1" d="M165.4,150.6c0.3-0.1,0.7-0.2,0.8-0.5c1.7-0.8,3.2-2.1,4.3-3.5c4.3-4.5,6.6-10.6,6.3-16.8
		c-0.1-4.4-0.8-8.8-2.2-13C174.5,122.6,172.8,144.2,165.4,150.6z"/>
	<path class="st1" d="M172.8,79.4c5.4-8.2,14.6-8.9,18.5-8.9c-2.9-0.9-6-1.5-9.2-1.5c-3.2-0.1-6.4,0.5-9.4,1.5
		c-1.8,0.7-2.8,1.1-3.3,1.3C170.7,74.2,171.8,76.7,172.8,79.4z"/>
	<path class="st1" d="M158.8,101.6l0.2-0.2L158.8,101.6z M165.6,97c0.1,0,0.2,0.1,0.2,0.2l0,0v2.4c0,17.8-4.6,37.5-6.6,44.4
		c5.8-13.1,8.8-27.4,8.7-41.8c0-5.2-0.5-10.5-1.3-15.6c-0.2-1.5-0.5-3.1-0.8-4.6c-1.8,13.5-6.9,19.6-6.9,19.6l-0.2,0.2
		c-0.2,0-0.2,0-0.5-0.2c-4.9-8.7-11.3-16.6-18.9-23.1c-3.1-2.7-6.4-5.1-10-6.9c16.1,34.9,20.9,61.6,22.2,70.6V139
		c-0.3-10.9-1.5-21.6-3.7-32.2c-1.8-9.4-3.7-16.1-3.7-16.1v-0.5h0.5c7.2,5.6,12.4,21.6,13,24.6c2-3,3.6-6.2,4.8-9.6
		c1.3-4.1,2.6-8.1,2.6-8.1L165.6,97z"/>
	<path class="st1" d="M30,169.5c0,16.6,2.8,33.7,17.1,55.9c13.7,28.5,38.5,43.8,50.3,49.7c3.9,1.8,6.3,2.8,6.3,2.8
		c16,7.7,33.5,11.7,51.3,11.7c24.1-0.2,47.7-7.5,67.7-20.9c3.5-2.4,5.4-3.9,5.4-3.9l0,0l1.5-1.5c0,0.2-0.5,0.5-0.7,0.5l-1.3,0.8
		C202.2,279.4,179,284,159.7,284c-30.1,0-49.2-11.1-49.2-11.1c-63.5-33.1-64.5-90.5-64.5-90.5c0-0.1,0.1-0.2,0.2-0.2l0,0h0.7
		c8.1,15.9,18.1,21.1,22.4,22.9c0.5,0.3,1,0.5,1.5,0.7c-18.5-23.1-23.7-42.6-23.7-57.3c0-19.6,9.4-30.5,9.4-30.5l0.2-0.2
		c0.1,0,0.2,0.1,0.2,0.2l0,0c-1.1,6-1.7,12-1.8,18.1c-0.1,6.6,0.7,13.1,2.6,19.4c0.6,1.7,1.2,3.4,2,5c-0.6-4.5-0.9-9-0.8-13.5
		c0-28.1,11.1-55.1,30.9-75.1c-4.1,1.8-8.9,6.1-12.8,10.2c-4.3,4.3-7.9,8.7-7.9,8.7h-0.2c-0.2,0-0.2,0-0.2-0.2
		c0.4-3.5,1.5-6.8,3.3-9.8c-3.4,3.4-6.1,7.4-8.1,11.7c-1.3,2.6-2.4,5.4-3.3,8.2v0.2c-5.5,6.5-10.1,13.6-13.7,21.4
		c-1.6,3.3-2.9,6.7-3.9,10.2c-0.2,0.8-0.5,1.3-0.5,1.5c0,0,0,0.2-0.5,0.2c-0.5,0-0.2-0.2-0.2-0.5v-0.2c0-0.5,0.1-0.8,0.2-1.3
		c0-8.2,3.5-17.1,4.8-20.7c-9.6,10.2-12,24.4-12,35.5c0,6.3,0.7,12.6,2.2,18.7c0.3,7.1,1,14.1,2.4,21.1c1.5,6.6,2.6,11.3,2.6,11.3
		c0.3,0.7,0.6,1.4,0.7,2.2v0.2h-0.2c-0.5,0-0.5-0.2-0.7-0.5c-0.2,0-0.2-0.2-0.5-0.7l-0.5-0.8c-6.9-10.4-10.2-27.5-10.9-31.6
		C30,167.9,30,168.7,30,169.5z"/>
	<path class="st2" d="M243.9,96.3c0,0-30.9-41.3-89-41.3h-1.3c-0.4,0-0.7,0.2-0.8,0.5c0,0.5,0.5,0.7,0.8,0.8
		c4.7,3.7,9.1,7.8,13,12.2v0.2l0.2-0.2c1.2-0.6,2.4-0.9,3.7-1.3c3.3-0.8,6.7-1.3,10-1.3c6.6,0,12.9,1.7,18.7,4.8
		c-3.1,1.5-17.4,8.7-20.7,17.1l0.2,0.2c0,0,14.6,13,44.6,13c5.2,0.1,10.5-0.3,15.6-1.1c0.8,0,1.8-0.2,2.6-0.5
		c1.3-0.5,2.8-0.8,2.8-2.4C244.3,97,244.1,96.7,243.9,96.3z"/>
	<path class="st2" d="M181.5,154.2c-0.2-0.2-0.5-0.2-0.5,0c-0.2,0-0.2,0.2,0,0.2c0.3,0.4,0.7,0.7,0.8,1.1c1.8,2.4,5,8.1,5,18.1
		c-0.2,9.4-2.5,18.6-6.7,27c0-3.2-0.4-6.5-1.1-9.6c-1.1-5.6-3.1-11.5-7.6-12.8h-0.5l-2.6,24.6l9.8,36.5l-19.3,15.7
		c-0.2,0-0.2,0-0.2,0.2c0,0.1,0.1,0.2,0.2,0.2l0,0c6.7,1.8,13.6,2.5,20.4,2.4c8.2,0,16.5-0.9,24.6-2.6c1.4-0.4,2.5-1.5,3.1-2.8
		c1.5-8,2.2-16,2.2-24.2C209.3,206.7,204.7,176,181.5,154.2z"/>
	<path class="st2" d="M213.4,252.4c-0.5-0.2-0.5-0.7-0.5-1.3V250c0.7-2.6,1.2-5.3,1.5-8.1c1-6.7,1.6-13.5,1.5-20.2
		c0-22-5.2-52.7-29.8-76.4c-0.1-0.1-0.3-0.2-0.5-0.2l-0.7-0.7c0-0.2,0.1-0.3,0.2-0.5h0.5c0.4,0,0.7,0.1,1.1,0.2
		c4.2,1.4,8.1,3.7,11.1,6.9c-0.2-1.1-0.7-3.5-1.3-6.6c-1.6-5.2-4.1-10.1-7.6-14.3l-0.7-0.7c-0.2-0.5-0.5-0.5-0.5-0.8v-0.5h0.5
		c0.2,0,0.5,0.2,1.1,0.7c1.5,0.7,63.3,30.5,65.5,90.5v1.1c0.1,2.2-0.7,4.4-2.2,6.1c-0.7,0.7-15.3,18.9-37,25.7
		c-0.4,0.3-0.8,0.4-1.3,0.5C214.3,252.8,213.6,252.8,213.4,252.4z"/>
	<path class="st2" d="M259.8,208.4c-1.3-49.7-48.4-83.4-71.8-97.3c-4.2-2.6-8.5-5-13-6.9l-1.1-0.5h1.5c5.7,0,11.1,2.4,14.8,6.7
		c-0.1-2.2-0.5-4.3-1.1-6.3l-0.5-0.7l0.7,0.2c6.7,2.6,15.3,3.5,23.7,3.5c7.4-0.1,14.8-0.7,22.2-1.8c5.9-0.7,9.8-1.5,9.8-1.5h0.8
		c3.5,0,4.6,2,4.6,2.2c8.1,8.9,17.8,29.4,19.6,54c0.2,3.1,0.2,6.1,0.2,8.9c0,18.5-3.9,32.9-6.7,38.7c-1.1,2.2-2,3.3-2.8,3.3
		C260,210.8,259.8,210,259.8,208.4z"/>
	<path d="M124.2,48.1l0.2-0.2c-0.7,0.2-13.5,4.1-17.1,23.3c0,0,0,0.5,0.2,0c1.1-1.8,5-7.9,8.7-6.1v-0.5
		C116.4,63.1,117.7,56.3,124.2,48.1z"/>
	<path d="M114.7,222.3c-2.8-5.4-20.4-43.9-20.4-43.9c-5.4,2-12.2-2.6-12.2-2.6c8.7,22.9,29.1,42.9,32.4,46.6
		c0.5,0.7,0.5,0.5,0.5,0.5C114.7,222.8,114.7,222.3,114.7,222.3z"/>
	<path d="M97,97.4c-15.9,36.2,19.8,51.2,20.4,51.3l-2-8.5l-1.1-4.6c-0.8-0.5-1.7-0.8-2.6-1.1c-0.2,0-0.5-0.2-0.7-0.5
		c-0.4,0-0.7-0.2-1.1-0.5c-15.6-8.2-14.1-28.1-13-34.6v-0.5c0.2-0.4,0.2-0.8,0.2-1.3l0,0C97.2,96.8,97.2,97.3,97,97.4z"/>
	<path class="st1" d="M120.5,199.3l-2.6-45.4l15.5,50.7C133.3,204.5,128.4,192.6,120.5,199.3z"/>
	<path class="st1" d="M133.3,110.5l-11.7-42.8v0.8l3.3,27.2c0.2,0.4,0.2,0.7,0.2,1.1c0,1.5-0.8,3.5-8.2-4.1
		c-0.2-0.5-0.5-0.5-0.5-0.5C123.8,107.2,133.3,110.5,133.3,110.5z"/>
	<path class="st1" d="M105.3,118.3c-1-2-1.5-4.1-1.5-6.3c0.1-3.9,1.9-7.7,5-10.2l0.2-0.2c-0.3-3.7-0.3-7.2,0-10.9
		c-3.9,5.6-12.2,19.4-2.2,30.1c-0.2-0.2-0.5-0.5-0.5-0.7C106,119.5,105.6,118.9,105.3,118.3z"/>
	<path d="M115.7,123.8c-3.7-6.8-6-14.2-6.7-22v-0.2c-3.1,2.5-5,6.4-5,10.4c0.1,2.1,0.6,4.1,1.3,6.1c0.5,0.6,0.8,1.2,1.1,2
		c0.2,0,0.5,0.5,0.5,0.7l0.7,0.7c2.4,2.4,5.7,3.8,9.2,3.9C116.2,124.8,115.9,124.3,115.7,123.8z"/>
	<path class="st1" d="M129.9,205.2c0,0-7.6-2-6.9,13.7c0-0.5,0.2-0.9,0.5-1.3c2.2-5.2,4.3-7.2,6.3-7.4c1.5,0,2.8,1.5,3.7,3.5
		c0.9,2.3,1.8,4.8,2.4,7.2c0.7,2.1,1,4.2,1.3,6.3c0.2,1.4,0.3,2.7,0.2,4.1v0.2C137.4,229.8,140.7,208.2,129.9,205.2z"/>
	<path d="M137.3,231.5L137.3,231.5c-0.2-2-0.2-3.3-0.5-4.3c-0.2-1.8-0.7-3.9-1.1-6.1c-0.6-2.5-1.5-5.1-2.6-7.4
		c-0.8-2-2.2-3.3-3.7-3.3c-2,0-3.9,2.2-6.3,7.2c0,0.6-0.2,1-0.5,1.5l3.9,8.1C126.6,227.1,128.8,205.2,137.3,231.5z"/>
</g>
</svg>
