<?xml version="1.0" encoding="utf-8"?>
<!-- Generator: Adobe Illustrator 23.0.6, SVG Export Plug-In . SVG Version: 6.00 Build 0)  -->
<svg version="1.1"
	 id="Layer_1" xmlns:cc="http://creativecommons.org/ns#" xmlns:dc="http://purl.org/dc/elements/1.1/" xmlns:rdf="http://www.w3.org/1999/02/22-rdf-syntax-ns#"
	 xmlns="http://www.w3.org/2000/svg" xmlns:xlink="http://www.w3.org/1999/xlink" x="0px" y="0px" viewBox="0 0 300 300"
	 style="enable-background:new 0 0 300 300;" xml:space="preserve">
<style type="text/css">
	.st0{fill:#FFC627;}
	.st1{fill:#8B2332;}
	.st2{fill:#0D2240;}
	.st3{fill:#FFFFFF;}
</style>
<g>
	<path class="st0" d="M150.1,1C232.3,1.1,298.9,67.8,299,150c0,82.2-66.8,149-148.9,149C67.8,299.1,1.1,232.4,1,150.1
		c0-39.6,15.7-77.5,43.7-105.5C72.6,16.6,110.5,0.9,150.1,1"/>
	<path class="st1" d="M150.1,287.2c75.5,0,137-61.5,137-137.2c0-75.5-61.5-137.1-137-137.1c-75.7-0.1-137.2,61.5-137.2,137
		C12.9,225.6,74.4,287.2,150.1,287.2"/>
	<path class="st2" d="M23.1,149.9C23.1,80,80,23.1,150,23.1c70.1,0,126.9,56.8,126.9,126.9c0,70.1-56.8,126.9-126.9,126.9
		C80,276.9,23.1,220,23.1,149.9"/>
	<path class="st0" d="M250,96.8l2.8-1.6l-9.1-14.2l-2.5,1.9c-15.5-19.6-43.1-41.4-69.3-44.7c19.7,9,41.9,32,55.5,49.8l-14.2,10.4
		l1.7,2.6l-64.4,41.8L86.2,101l1.7-2.6L73.6,88c13.6-17.7,35.8-40.8,55.6-49.8C103,41.5,75.4,63.4,60,82.9l-2.7-1.9L48.2,95l2.8,1.6
		L51,96.8c-11.3,22.3-19.7,56.6-11.5,81.8c-0.2-21.8,11.5-51.6,22-71.5l15.3,8.6l1.6-2.5l59.7,37.5l-78.8,51.3l-0.1-0.1l-10.6,2.8
		l0.1,0.3c-0.5,1.9,0.4,5.6,2.7,9.1c2.2,3.6,5.1,5.9,7.2,6.3l0.1,0.3l7-8.5l-0.1-0.1l157-98.7l1.6,2.5l15.4-8.6
		c10.5,19.9,22.2,49.8,22.1,71.5C269.7,153.5,261.3,119.1,250,96.8"/>
	<path class="st0" d="M241.9,201.9l-0.1,0.1L169.2,155l-12.7,7.5l78.7,49.5l-0.1,0.1l7,8.5l0.2-0.3c2.1-0.4,4.9-2.8,7.2-6.3
		c2.2-3.5,3.2-7.1,2.7-9.1l0.1-0.3L241.9,201.9z"/>
	<polygon class="st0" points="162.9,50.9 157.5,58.1 149.9,40 149.9,123.3 175.3,90.8 200.7,97.4 	"/>
	<polygon class="st3" points="162.9,70.4 162.9,50.9 157.5,58.1 	"/>
	<polygon class="st3" points="149.9,40 104,96.1 124.2,90.9 149.9,123.3 	"/>
	<path class="st0" d="M123,249.8c6.5-6.2,14.8-10.1,23.8-11v-12.4h-34.3C113.1,235.2,116.8,243.5,123,249.8"/>
	<path class="st0" d="M146.6,261.4v-14.8c-6.7,0.8-12.9,3.7-17.9,8.2C134.1,258.5,140.2,260.7,146.6,261.4"/>
	<path class="st3" d="M154.3,185v14.7c6.7-0.8,12.9-3.6,17.8-8.2C166.8,187.9,160.7,185.7,154.3,185"/>
	<path class="st3" d="M178,196.6c-6.4,6.2-14.8,10-23.7,10.9v11.3h34.3C187.6,210.4,183.8,202.6,178,196.6"/>
	<path class="st3" d="M146.6,199.7V185c-6.4,0.6-12.5,2.9-17.8,6.6C133.8,196.1,140,198.9,146.6,199.7"/>
	<path class="st0" d="M154.3,226.4v12.4c8.9,0.8,17.3,4.7,23.7,11c6.2-6.3,10-14.6,10.7-23.4L154.3,226.4L154.3,226.4z"/>
	<path class="st3" d="M112.4,218.8h34.3v-11.3c-8.9-0.9-17.3-4.7-23.8-10.9C117.1,202.6,113.4,210.4,112.4,218.8"/>
	<path class="st0" d="M154.3,261.4c6.4-0.6,12.5-2.9,17.8-6.6c-4.9-4.5-11.2-7.4-17.8-8.2V261.4z"/>
</g>
</svg>
