<?xml version="1.0" encoding="utf-8"?>
<!-- Generator: Adobe Illustrator 23.0.6, SVG Export Plug-In . SVG Version: 6.00 Build 0)  -->
<svg version="1.1"
	 id="Layer_1" xmlns:cc="http://creativecommons.org/ns#" xmlns:dc="http://purl.org/dc/elements/1.1/" xmlns:rdf="http://www.w3.org/1999/02/22-rdf-syntax-ns#"
	 xmlns="http://www.w3.org/2000/svg" xmlns:xlink="http://www.w3.org/1999/xlink" x="0px" y="0px" viewBox="0 0 300 300"
	 style="enable-background:new 0 0 300 300;" xml:space="preserve">
<style type="text/css">
	.st0{fill:#B5B3B3;}
	.st1{fill:#1D428A;}
	.st2{fill:#C8102E;}
	.st3{fill:#FFFFFF;}
</style>
<g>
	<path class="st0" d="M299,150c0,82.3-66.7,149-149,149S1,232.3,1,150S67.7,1,150,1C232.3,1,299,67.7,299,150
		C299,150,299,150,299,150"/>
	<path class="st1" d="M294.7,150c0,79.9-64.8,144.7-144.7,144.7S5.3,229.9,5.3,150C5.3,70.1,70.1,5.3,150,5.3c0,0,0,0,0,0
		C229.9,5.3,294.7,70.1,294.7,150C294.7,150,294.7,150,294.7,150"/>
	<path class="st2" d="M273.4,150c0,68.2-55.2,123.4-123.4,123.4c-68.2,0-123.4-55.2-123.4-123.4S81.8,26.6,149.9,26.6
		C218.1,26.6,273.4,81.8,273.4,150C273.4,150,273.4,150,273.4,150"/>
	<path class="st3" d="M150,26.6C81.9,26.6,26.6,81.9,26.6,150S81.9,273.4,150,273.4S273.4,218.1,273.4,150
		C273.3,81.9,218.1,26.7,150,26.6 M33.7,153.6h22.7v-7.2H33.7c0.1-2.7,0.2-5.5,0.5-8.2c8-40.5,56.9-71.8,115.7-71.8
		s107.7,31.2,115.7,71.8c0.3,2.7,0.4,5.4,0.5,8.2h-22.7v7.2h22.7c-0.1,2.7-0.2,5.5-0.5,8.2c-8.1,40.5-56.9,71.8-115.7,71.8
		S42.3,202.4,34.2,161.8C34,159.1,33.8,156.4,33.7,153.6 M150,33.7c48,0.1,91,29.5,108.4,74.2C237.7,79.6,196.9,60.3,150,60.3
		S62.3,79.6,41.6,107.9C59,63.2,102,33.7,150,33.7 M150,266.4c-48-0.1-91-29.5-108.4-74.2c20.7,28.3,61.5,47.6,108.4,47.6
		s87.7-19.3,108.4-47.6C241,236.8,198,266.3,150,266.4"/>
	<polygon class="st3" points="97.8,192.4 106.5,192.4 106.5,153.3 97.8,153.3 	"/>
	<path class="st3" d="M131.3,153.3H131c-2.4,0-11.4-0.1-13.1,0h-0.5c-2.6,0-4.3,1.2-4.7,3.5c0,0.2,0,0.4-0.1,0.7
		c0,0.1-0.6,7.4,0.1,9.5c1.2,3.4,3.9,4.6,6.4,5.4c0.1,0,0.2,0.1,0.3,0.1l0.5,0.2c0.2,0.1,0.4,0.2,0.6,0.5l0.1,14.1h-7.2l0.1,5.2h9.5
		c3.3-0.2,5.5-1.6,6.4-4.1c0.3-1.9,0.3-15.1,0.1-17.8c-0.1-1.1-0.6-2-1.5-2.6c-0.4-0.3-0.9-0.7-1.4-0.9c-0.5-0.3-1.1-0.6-1.6-0.8
		c-2.1-1-4.3-2.1-4.3-4.8v-2.2h6.8c1.4,0,2.6-0.7,3.3-2c0.4-0.6,0.6-1.3,0.7-2.1c0.1-0.6,0.1-1.1,0-1.7L131.3,153.3z"/>
	<path class="st3" d="M171.2,153.2c-1.9-0.1-3.8,0.1-5.6,0.5c-4.3,1-6.4,3.9-6.4,8.7v23.3c0,5.9,4.3,7.2,10.7,7.2
		c7.8,0,12.2-2.7,12.2-7.6v-24.3C182.1,153.2,177.1,153.2,171.2,153.2 M168.3,162.1c0-0.8,0.1-1.6,0.3-2.4l0.2-0.2
		c0.4-0.1,0.8-0.1,1.2-0.1h0.2c2.9,0.1,3.1,0.9,3.1,6.3V182c0,0.5,0,1-0.1,1.4c0,0.5,0,0.9-0.2,1.3l-0.2,0.2c-0.5,0.1-1,0.1-1.6,0.1
		c-0.8,0.1-1.7-0.2-2.3-0.7c-0.7-0.7-0.7-1.9-0.7-3.3v-16.6C168.3,164.5,168.3,162.7,168.3,162.1"/>
	<path class="st3" d="M202.3,169.9c-4.2-15.1-10.9-16.8-13.6-16.8c-0.4,0-0.8,0-1.2,0.1l-0.2,0.1v39.2h8.8v-15.8l6.2,15.8h9v-39.2
		h-9L202.3,169.9L202.3,169.9z"/>
	<path class="st3" d="M87.2,153.2l-22,0.1h-0.3v0.3c0,2.9,2.1,5.3,5,5.7v33.2h9.1v-16.7h7.6c4,0,6.3-2.6,6.3-7.2v-1.4
		C92.8,156,92.4,153.8,87.2,153.2 M83.7,170.6h-4.9v-11.4c0,0,2.7-0.1,3.1,0c1,0.1,1.9,0.5,1.9,1.7
		C83.7,161.3,83.7,170.6,83.7,170.6"/>
	<path class="st3" d="M156.5,153.3H136v6.2h5.8v33.1h9v-33.1h0.3c1.4,0.1,2.8-0.4,3.8-1.4c1-1.2,1.6-2.8,1.5-4.4L156.5,153.3z"/>
	<path class="st3" d="M235.1,153.3h-0.3c-2.4,0-11.4-0.1-13.1,0h-0.5c-2.6,0-4.3,1.2-4.7,3.5c0,0.2,0,0.4-0.1,0.7
		c0,0.1-0.6,7.4,0.1,9.5c1.2,3.4,3.9,4.6,6.4,5.4c0.1,0,0.2,0.1,0.3,0.1l0.5,0.2c0.2,0.1,0.4,0.2,0.6,0.5l0.1,14.1h-7.2l0.1,5.2h9.5
		c3.3-0.2,5.5-1.6,6.4-4.1c0.3-1.9,0.3-15.1,0.1-17.8c-0.1-1.1-0.6-2-1.5-2.6c-0.4-0.3-0.9-0.7-1.4-0.9c-0.5-0.3-1.1-0.6-1.6-0.8
		c-2.1-1-4.3-2.1-4.3-4.8v-2.2h6.8c1.4,0,2.6-0.7,3.3-2c0.4-0.6,0.6-1.3,0.7-2.1c0.1-0.6,0.1-1.1,0-1.7L235.1,153.3z"/>
	<path class="st3" d="M154.9,129h1.5c1.4,0.1,3.9,0.5,3.9,3.1c0,1.2,0.1,5.2,0.2,6.6v0.6c0,0.8,0.1,1.7,0.2,2.5
		c0.6,2.3,2.4,3.7,5.2,3.9h2.5v-14c-0.1-1.5-0.7-2.9-1.6-4.1l-0.2-0.3c1.4-1.5,2.1-3.5,2-5.6v-1.3c0-10.8-0.4-13-5.5-13.6h-16.9
		v38.3h8.7V129z M155,113.1h1.8c2.3,0.1,3.2,0.1,3.1,4.1c0,3.2,0,3.4-0.1,5v0.3c0,0.5-0.2,0.9-0.5,1.3c-0.2,0.2-0.5,0.3-0.7,0.3H155
		L155,113.1z"/>
	<polygon class="st3" points="209.1,107 200.5,107 200.5,145.3 209.1,145.3 	"/>
	<path class="st3" d="M127.4,145.3h8.7V113h0.3c1.4,0.1,2.7-0.4,3.7-1.4c1-1.2,1.5-2.7,1.4-4.3v-0.3h-19.9v6h5.7V145.3z"/>
	<path class="st3" d="M219.2,145.3h8.7V113h0.3c1.4,0.1,2.8-0.4,3.7-1.4c1-1.2,1.5-2.7,1.4-4.3V107h-19.9v6h5.7V145.3z"/>
	<polygon class="st3" points="117.1,139.1 107.9,139.1 107.9,129.8 114.3,129.8 114.3,121.5 107.9,121.5 107.9,112.9 117.1,112.9 
		117.1,107 99.5,107 99.4,145.3 117.1,145.3 	"/>
	<path class="st3" d="M88.3,107H66.5l-0.1,0.3c-0.1,1.4,0.3,2.8,1.1,4c1,1.1,2.5,1.8,4.1,1.8v32.2h16.2c3.7,0,6.2-3.2,6.2-7.8v-17.7
		C94.1,109.9,94.1,107.2,88.3,107 M85.3,139.1h-4.9V113c1.2-0.1,2.5-0.1,3.7,0.2c1.1,0.5,1.1,2.5,1.1,2.6
		C85.5,118.8,85.3,136.8,85.3,139.1"/>
	<path class="st3" d="M185.1,107c-1.9-0.1-3.8,0.1-5.6,0.5c-4.2,1-6.3,3.8-6.3,8.5v22.8c0,5.8,4.2,7,10.6,7c7.7,0,12.2-2.7,12.2-7.3
		v-23.8C195.9,107,190.9,107,185.1,107 M182.2,115.7c0-0.8,0.1-1.6,0.3-2.4l0.2-0.2c0.4-0.1,0.8-0.1,1.2-0.1h0.2
		c2.9,0.1,3,0.9,3,6.2v16c0,0.5,0,0.9-0.1,1.4c0,0.4,0,0.9-0.2,1.3l-0.2,0.2c-0.5,0.1-1,0.1-1.6,0.1c-0.8,0.1-1.7-0.2-2.3-0.7
		c-0.7-0.7-0.7-1.9-0.7-3.2v-16.2C182.2,118.1,182.2,116.3,182.2,115.7"/>
</g>
</svg>
