<?xml version="1.0" encoding="utf-8"?>
<!-- Generator: Adobe Illustrator 23.0.6, SVG Export Plug-In . SVG Version: 6.00 Build 0)  -->
<svg version="1.1"
	 id="Layer_1" xmlns:cc="http://creativecommons.org/ns#" xmlns:dc="http://purl.org/dc/elements/1.1/" xmlns:rdf="http://www.w3.org/1999/02/22-rdf-syntax-ns#"
	 xmlns="http://www.w3.org/2000/svg" xmlns:xlink="http://www.w3.org/1999/xlink" x="0px" y="0px" viewBox="0 0 300 300"
	 style="enable-background:new 0 0 300 300;" xml:space="preserve">
<style type="text/css">
	.st0{fill:#1D428A;}
	.st1{fill:#FDB927;}
</style>
<g>
	<path class="st0" d="M299,150c0,82.3-66.7,149-149,149S1,232.3,1,150C1,67.7,67.7,1,150,1c0,0,0,0,0,0C232.3,1,299,67.7,299,150"/>
	<path class="st1" d="M247.4,52.5c-53.8-53.8-141-53.8-194.8-0.1s-53.8,141-0.1,194.8c0,0,0,0,0.1,0.1c53.8,53.8,141,53.8,194.8,0.1
		S301.3,106.4,247.4,52.5C247.5,52.5,247.4,52.5,247.4,52.5 M57.9,57.8C108.8,6.9,191.4,7,242.2,58c38.2,38.3,48.8,96.1,26.7,145.4
		c-15.8-5.3-31.4-11.3-46.6-18.1c-2-0.9-4-1.8-6-2.7l-5.9-2.8l-3-1.4l-2.9-1.4l-5.9-2.9c-2-1-3.9-2-5.8-3.1l-2.9-1.6
		c-1-0.5-1.9-1-2.9-1.6l-5.7-3.2l-5.7-3.3c-15.2-8.8-29.7-18.7-43.4-29.6c-6.8-5.5-13.5-11.1-19.9-17.2c-3.2-3-6.3-6.1-9.2-9.3
		c-0.7-0.8-1.5-1.6-2.2-2.4c-0.7-0.8-1.4-1.6-2.1-2.5s-1.4-1.6-2.1-2.5c0-0.1-0.1-0.1-0.1-0.1c-0.3-9.6-0.4-15.3-0.4-15.3l-6.5-1.6
		v8.7h-5.5v-9.2l-7,1.7l0.1,3.3l-3.3,1.8c0.1,2.7,0.1,6.3,0.2,10.5c-2.7,4.6-31.5,54.5-53.1,69.9c-0.8-5.9-1.2-11.8-1.2-17.8
		C19.6,115.3,33.3,82.1,57.9,57.8 M229.1,213.9l-13.4,0.5L204.7,186l2.1,1l6,3c2,1,4,1.9,6.1,2.9c0.6,0.3,1.2,0.5,1.7,0.8
		L229.1,213.9z M225.8,196.1c5.4,2.5,10.9,4.8,16.3,7.1l4.5,10l-13.5,0.5L225.8,196.1z M211.5,214.5l-13.7,0.5l-14.3-40.5
		c0.9,0.5,1.8,1,2.7,1.6l2.9,1.6c2,1.1,3.9,2.1,5.9,3.3l4.5,2.4L211.5,214.5z M193.8,215.1l-12.2,0.4l-17.8-53.3
		c2.7,1.8,5.5,3.5,8.3,5.2l5.7,3.5l0.8,0.5L193.8,215.1z M177.4,215.6l-12.8,0.5l-21.2-67.9c4.9,3.6,9.9,7.2,14.9,10.6L177.4,215.6z
		 M160.5,216.2l-12.4,0.4L123,131.8c1.8,1.6,3.6,3.1,5.4,4.6c3.2,2.7,6.4,5.2,9.7,7.7L160.5,216.2z M144.2,216.8l-13.7,0.5
		l-30.1-107.4c2.6,2.9,5.3,5.7,8.1,8.5c2.9,2.9,5.9,5.7,8.9,8.5L144.2,216.8z M126.6,217.3l-11.9,0.4l-16.5-63
		c-0.5-16.3-1-31.3-1.3-43.4L126.6,217.3z M110.7,217.9l-10.2,0.3c-0.7-15-1.2-30.7-1.8-46L110.7,217.9z M255.3,226.9
		c-0.9,1.2-1.8,2.4-2.7,3.6l-151.5-3l-0.1-1.4L255.3,226.9z M250.8,213.2l-3.5-7.8c5.7,2.3,11.5,4.6,17.3,6.6
		c-0.1,0.2-0.3,0.5-0.4,0.7L250.8,213.2z M89.6,117.8v8h-6.1v7.4h6.1v8h-6.1v7.4h6.1v15h-6.1v7.4h6.1v15.5h-6.1v7.4h6.1v24.4
		l-5.6,0.2V105.3h5.5v5h-6.1v7.4h6.1V117.8z M31.1,203.5l17-57.2c8.3-11.1,15.8-22.8,22.4-35L40,220
		C36.6,214.7,33.6,209.2,31.1,203.5 M28.7,197.9c-3-7.6-5.3-15.6-6.8-23.6c7.2-5.9,13.8-12.6,19.7-19.8L28.7,197.9z M74.1,112.7
		c0,11.5-0.2,25.4-0.5,40.2l-17.5,66.8L44,220.1L74.1,112.7z M73.2,169.7c-0.5,16.5-1,33.6-1.9,49.5l-11.2,0.4L73.2,169.7z
		 M50,233.6l20.5,0.7c-0.4,6.3-0.8,12.3-1.4,17.9c-4-3.2-7.7-6.5-11.3-10.1C55.1,239.4,52.4,236.5,50,233.6 M150,280.3
		c-16,0-31.8-2.9-46.8-8.6c-0.6-8.9-1.2-19.6-1.8-31.3l-11.9-4v29.1c-1.9-1-3.8-2-5.6-3.1v-27.6l5.6,0.2v0.2h6.1l11,0.4l137.2,4.9
		c-0.5,0.6-1.1,1.1-1.6,1.7C217.8,266.7,184.6,280.4,150,280.3"/>
</g>
</svg>
