<?xml version="1.0" encoding="utf-8"?>
<!-- Generator: Adobe Illustrator 23.0.6, SVG Export Plug-In . SVG Version: 6.00 Build 0)  -->
<svg version="1.1"
	 id="Layer_1" xmlns:cc="http://creativecommons.org/ns#" xmlns:dc="http://purl.org/dc/elements/1.1/" xmlns:rdf="http://www.w3.org/1999/02/22-rdf-syntax-ns#"
	 xmlns="http://www.w3.org/2000/svg" xmlns:xlink="http://www.w3.org/1999/xlink" x="0px" y="0px" viewBox="0 0 300 300"
	 style="enable-background:new 0 0 300 300;" xml:space="preserve">
<style type="text/css">
	.st0{fill:#9EA2A2;}
	.st1{fill:#CE1141;}
</style>
<g>
	<path class="st0" d="M188.6,139.4l0.3-26.7c0-12.5-13-14.6-22.6-14.5c6.4-2.1,14.2-5.8,19.8-11.8c6.7-6,10.2-14.9,9.4-23.8
		c-1.2-18.1-23.8-27.1-61.3-23.5c-0.6,0.1-1.2,0.1-1.8,0.2c-1.6-13-4.5-25.8-8.7-38.3l-1.9,1.8c-5,15.5-8,27.8-9.7,39.2
		c-12.9,2.2-25.6,5.2-38,9l-1.8,1.8c0,0,18.1-1.6,38.7-1.4c-2.3,23.4,0,45.7,0,87.8c-33.3-0.9-62.5,4.6-69.7,13.5
		c-2.3,1.9-3.6,4.1-3.5,6.3c0.4,10.2,30.7,19.6,73.2,23.1l1.8,57.8l1.9-1.9l3-39.2c0-0.6,0.1-1.1,0.2-1.6c0.9,0.1,1.7,1.3,1.7,3.3
		l1.3,51.6l1.9-1.8l3.2-42c0-0.8,0.1-1.6,0.3-2.3c0.9,0.2,1.7,1.5,1.7,3.8l1.5,53.8l1.8-1.8l2.5-78.3c4.9,0.2,9.9,0.2,15,0.2
		c5.4,0,10.7-0.1,15.9-0.3l2.6,81.7l1.8-1.8l2.2-42.7c0-0.7,0.1-1.4,0.3-2.2c0.8,0.2,1.6,1.4,1.6,3.7l2.2,60l1.8-1.8l2.2-51.8
		c0-0.6,0.1-1.3,0.3-1.9c1.1,0,2.1,1.3,2.2,3.7l1.8,68.7l1.8-1.9l2.7-115c36.4-3.2,64-10.5,70.8-18.9c2.3-1.9,3.5-3.9,3.5-5.9
		C261.9,146.1,228.2,137.5,188.6,139.4 M110.4,170.2c-29.2-2.8-48.9-8.7-48.9-16.2c0-0.6,0.2-1.1,0.5-1.6c6.8-4.8,27.8-7.8,48.8-11
		c0,8.2-0.1,17.2-0.4,27L110.4,170.2z M169.9,69.8c1.1,8.3-1.3,14.5-5.5,19.2c-7.6,6.9-19.5,10-29.2,11.5
		c0.2-15.6-0.1-31.7-1.4-47.6C152.4,54.8,168.5,59.6,169.9,69.8 M164.4,171.7c-4.6,0.1-9.2,0.2-14,0.2c-5.6,0-11.1-0.1-16.4-0.3
		l0.2-6.6c-0.5-16.8,0.5-38,0.9-60.5c13.7,1.6,30.1,5.5,29.8,15.1L164.4,171.7z M236.9,158.8c-6.8,5.4-24.9,9.5-48.7,11.6l0.3-28.7
		c27.3,3.6,49.5,7.6,49.5,14.1C238,156.9,237.6,157.9,236.9,158.8"/>
	<path class="st1" d="M262.4,157.3c-0.5-11.2-34.2-19.8-73.8-18l0.3-26.7c0-16.5-22.6-14.9-30.3-13.9c8.9-1.6,38.6-9,36.8-36.3
		c-1.2-18.1-23.8-27.1-61.3-23.5c-0.6,0.1-1.2,0.1-1.8,0.2c-1.6-13-4.5-25.8-8.7-38.3c-5.2,16.2-8.2,28.9-9.9,40.8
		C100.2,44,87,47.1,74,51.1c0,0,18.1-1.6,38.7-1.4c-2.3,23.8,0.1,46.4,0,89.7c-39.4-1.4-73.6,6.3-73.2,17.9
		c0.4,10.2,30.7,19.6,73.2,23.1l1.8,57.8l3-39.2c0.1-4.9,3.8-4.4,3.8-0.2l1.3,51.6l3.2-42c0-5.7,3.9-5.4,3.8-0.3l1.5,53.8l2.6-80.2
		c5.5,0.2,11.1,0.3,16.8,0.3c5.4,0,10.7-0.1,15.9-0.3l2.6,81.7l2.2-42.7c0-5.4,3.7-5.2,3.7-0.3l2.2,60l2.2-51.8
		c0.2-5.1,4.2-4.9,4.3,0l1.8,68.7l2.7-116.6v-0.1C231.1,176.9,262.4,167.5,262.4,157.3 M171.7,67.9c3,22.6-20,30.1-36.6,32.5
		c0.3-16.6-0.2-33.1-1.6-49.6C153.1,52.7,170.3,57.3,171.7,67.9 M61.6,154c0-6.9,25.5-10.6,51.1-14.4c0,8.2-0.1,17.2-0.4,27l0.1,3.8
		C82.1,167.6,61.6,161.6,61.6,154 M133.9,171.7l0.2-6.6c-0.5-17.3,0.6-39.2,0.9-62.6c14,1.4,32,5.2,31.7,15.3l-0.5,53.9
		c-5.1,0.2-10.4,0.3-15.9,0.3C144.7,172,139.3,171.9,133.9,171.7 M188.2,170.4l0.4-30.8c28.1,3.6,51.3,7.7,51.3,14.4
		C239.8,161.6,218.8,167.7,188.2,170.4"/>
</g>
</svg>
