<?xml version="1.0" encoding="utf-8"?>
<!-- Generator: Adobe Illustrator 23.0.6, SVG Export Plug-In . SVG Version: 6.00 Build 0)  -->
<svg version="1.1"
	 id="Layer_1" xmlns:cc="http://creativecommons.org/ns#" xmlns:dc="http://purl.org/dc/elements/1.1/" xmlns:rdf="http://www.w3.org/1999/02/22-rdf-syntax-ns#"
	 xmlns="http://www.w3.org/2000/svg" xmlns:xlink="http://www.w3.org/1999/xlink" x="0px" y="0px" viewBox="0 0 300 300"
	 style="enable-background:new 0 0 300 300;" xml:space="preserve">
<style type="text/css">
	.st0{fill:#BEC0C2;}
	.st1{fill:#002D62;}
	.st2{fill:#FDBB30;}
</style>
<g>
	<path class="st0" d="M60.1,17.6L1,285.3h116.9c0,0,13-53.3,14-58h50.6c38,0.2,69-12.6,89.9-37.2c38.2-41.5,31.6-102,2.9-136.8
		c-20.5-24.8-51.1-39-83.2-38.6H60.7L60.1,17.6z"/>
	<path class="st1" d="M123.5,216.7l-14,58H14.2L69.2,25.6h122.7c29.1-0.4,56.8,12.4,75.2,34.9c27.3,32.8,30,87.6-2.7,122.9
		c-20,23.3-49.6,33.9-81.8,33.5L123.5,216.7z"/>
	<path class="st2" d="M56.4,82.7h53.7c6.2,0,12.8,5,10.1,13c-1.9,5.1-3.2,10.5-3.9,15.9c-0.4,3.9,4.1,6.6,6.6,6.6h109.7
		c2.1,0,3.1-0.6,3.1-1.7c0-2.4-0.2-4.7-0.6-7c-0.4-2.3-0.6-2.9-2.7-2.9c-13.6,0-19.2-6.2-33.7-15.3c-14.3-9.3-35.3-14.7-53.5-14.7
		h-88L56.4,82.7z"/>
	<path class="st2" d="M122.9,153.5c-1.9-4.3-3.5-8.8-4.8-13.4c-1.2-5.6-6.2-10.1-14.7-10.1H45.8l1.7-6.4l186.9,0.2
		c1.7,0,1.4,0.8,1.2,2.9c0,2.1-0.6,5.8-0.8,8.1c-0.2,2.5-2.1,1.9-3.7,1.9c-5.9-0.2-11.7,1.4-16.7,4.5c-7.6,6-24.4,16.3-33.5,19
		C170.8,163,133.8,174.6,122.9,153.5z"/>
	<path class="st2" d="M35.7,177.1h97.5c3.9-0.1,7.8,1,10.9,3.3c9.1,6.9,19.4,12,30.4,15.1c5,1.7,13.8-0.4,21.7-4.8
		c19.4-11.2,32-32,36.4-45.7c1-3.5-1-3.3-3.5-3.1c-8.3,0.6-16.9,8.1-28.3,15.5c-11.6,7-34.5,14-56.6,14h-107L35.7,177.1z"/>
	<path class="st2" d="M179.1,46.3c3-0.6,6-0.4,8.9,0.4c18.8,7.4,36.2,26.6,43.6,47.1c1.4,4.1,1.9,6.4,0,6.6
		c-8.5,1-12.2-3.3-22.5-9.9c-9.8-6.7-20.5-11.8-31.8-15.3c-12.6-3.9-35.3-4.8-38-4.8c-2.9,0-2.7-1.2-1.4-2.5
		C148.9,56.6,163.4,49.1,179.1,46.3z"/>
	<path class="st2" d="M267.9,116.5c-0.1,1-0.9,1.8-1.9,1.9h-21.5c-2.7,0-2.7-1.2-2.7-2.9c-0.4-2.2-0.6-4.4-0.6-6.6
		c0-1.7-0.8-3.7,1.7-4.8c5.9-3,10.8-7.7,14-13.4c0.6-1.7,2.1-4.3,3.5-2.1C265.8,96.7,267.5,106.6,267.9,116.5z"/>
	<path class="st2" d="M260.2,155c-0.2,0.8-1.9,1.4-2.1,0c-3.1-7.3-8.6-13.2-15.7-16.7c-1.4-0.8-1.4-1.9-1.4-3.5
		c0.2-1.4,0.8-6.4,1-8.3c0-1.7,0.8-2.9,2.1-2.9h22.3c0.6,0,1.7,0.8,1.7,1.2C267.8,135.3,265.1,145.6,260.2,155z"/>
	<path class="st2" d="M202.4,196.7c-1.7,0.4-5.2-0.2,0.2-3.3c16.1-9.5,30.8-31.4,34.5-44.2c1.7-5,1.7-5.2,3.7-4.5
		c3.9,1.7,7.2,4.5,9.5,8.1c2.9,4.1,4.3,12.4,2.5,14.5C240.6,183.3,222.5,193.9,202.4,196.7z"/>
	<path class="st2" d="M243.5,96.9c-3.7,2.1-4.5,1.4-5.4-1.2c-7-24.6-27.9-43-36.4-48.5c-1.4-0.8-1.2-1.7,0-1.4
		c20.2,2.9,40.3,13.8,50.2,28.9C258,83.3,247.2,94.8,243.5,96.9z"/>
</g>
</svg>
