<?xml version="1.0" encoding="utf-8"?>
<!-- Generator: Adobe Illustrator 23.0.6, SVG Export Plug-In . SVG Version: 6.00 Build 0)  -->
<svg version="1.1"
	 id="Layer_1" xmlns:cc="http://creativecommons.org/ns#" xmlns:dc="http://purl.org/dc/elements/1.1/" xmlns:rdf="http://www.w3.org/1999/02/22-rdf-syntax-ns#"
	 xmlns="http://www.w3.org/2000/svg" xmlns:xlink="http://www.w3.org/1999/xlink" x="0px" y="0px" viewBox="0 0 300 300"
	 style="enable-background:new 0 0 300 300;" xml:space="preserve">
<style type="text/css">
	.st0{fill:#FFFFFF;}
	.st1{fill:#FDB927;}
	.st2{fill:#552583;}
</style>
<g>
	<path class="st0" d="M65.8,99.2c0,0,25.3-41.5,77.3-41.5s76.2,40.4,76.2,40.4h70.4l-2.8,17.2c0,0-2,6.9-5.2,7.6h4.8
		c0,0,1.6,6.2-8,27.1H299c0,0,0.7,36.7-43.6,53.9c0,0-22.9,7.3-34.6-5.2c0,0-23.4,43.4-77.8,43.4s-78.9-44.7-78.9-44.7H1l10.1-18.1
		H4.2l8.1-14.9H26l2.3-5.7h-6.4l15.7-29h8.9l3.6-8.9h-7.6l11.7-21.8L65.8,99.2z"/>
	<path class="st1" d="M143.8,232.5c44.4,0,80.5-36.5,80.5-81.7c0-45-36.1-81.6-80.5-81.6s-80.5,36.5-80.5,81.6
		C63.4,196,99.4,232.5,143.8,232.5z"/>
	<path class="st2" d="M152.7,150.4h-3.4c-0.3,0-0.5,0.2-0.5,0.5c0,0.2,0.2,0.4,0.5,0.4h3.6c1.2,0,2.3,0.1,2,0.6l-9.2,17.7
		c-0.4,1.1-1.6,1.6-2.7,1.2c-0.6-0.2-1.1-0.7-1.3-1.3l-4.6-23.6l16-12.4c1.6-1.5,4.7-3.7,6.3-3.7h3.6c2.1,0,2.8,1,2.3,2.3l-0.6,1.1
		c-0.4,0.7-1.7,0.9-2.7,0.9h-2.1c-0.2,0-0.3,0.1-0.4,0.3c0,0,0,0.1,0,0.1c0,0.2,0.1,0.5,0.4,0.5h2.1c0.9,0,1.8,0,1.5,0.6l-7.4,14.3
		C155.7,150.3,154.1,150.4,152.7,150.4z M180.5,159.2c-7.5,9.2-11.7,12.3-19.3,12.3c-2.6,0-3.9-0.6-3.3-1.8l9.1-18.2h3.4
		c3.8,0,3.3,3.2,2.3,7.6c-0.2,0.6,0.2,0.6,0.7,0.1l8.6-15.1c0.4-1-0.7-1.1-1.2-0.4c-4.3,5.8-8.9,5.4-10.8,5.4h-1.5l9.6-18.5h3.9
		c4.9,0.2,7.1,4.4,5.8,14.5h2l7.1-14c0.6-1.2-0.6-2.3-2-2.3l-48.2,0.1c-2.8,0-3,2.1-0.2,2.1c2.2,0,2.1,3.1,0.1,4.6l-20.5,16.4
		l4.2,19.2c0.2,1.4,1.5,2.3,2.8,2.1H173c1.2,0.1,2.3-0.4,3-1.4l7.1-12.4C184.1,157.6,181.9,157.7,180.5,159.2z"/>
	<path class="st2" d="M92.3,154H79.6l16-21.2L92.3,154z M89.3,167.2c-0.4,2.1-2.6,3.6-5.3,4.3l-2.8,0.7l2.3-4.2
		c0.6-1.2-0.7-1.8-2.2-0.1c-9.8,11.4-13,17-28.3,17H49c-1.2,0-2.6-0.5-1.7-1.6l5.4-10.1h20.4c2.7,0,2.1-2.1,0.4-2.1
		c-1.3-0.2-2.4-0.9-3.1-2c-0.5-0.9-0.5-2.1,0.1-3l7.8-10.5h13L89.3,167.2z M119.6,171.1c-0.9-0.1-1.6-0.7-2-1.5
		c-0.4-1.2-0.4-2.5,0.1-3.7l18.6-33c0.2-0.6,1.1-2,2-2c1.6,0,2.3-2.1-0.4-2.1h-15c-2.7,0-2.7,2.1-0.1,2.1c0.7,0,1.3,0.5,1.3,1.2
		c0,0.2,0,0.4-0.1,0.6l-4.1,7.5c-0.6,0.7-1.7,0.9-3,0.9h-3.4c-0.2,0-0.5,0.1-0.5,0.4c0,0.3,0.2,0.5,0.5,0.5h3.4c1,0,1.7,0.2,1.2,1.4
		l-13.8,25.1c-1,1.4-3,1.6-2.8-1l4.8-36.7c0.2-1.1,0-2-1.2-2h-7.4c-0.8,0-1.5,0.4-1.8,1.1l-2.7,3.2c-0.2,0.4-1.1,0.4-1.8,0.4h-6.2
		c-0.3,0-0.5,0.2-0.5,0.5c0,0.2,0.2,0.4,0.5,0.4h5c0.9,0,1.8,0.2,1.5,0.7l-7,8.9c-0.4,0.3-0.9,0.4-1.4,0.4h-2
		c-0.2,0-0.5,0.1-0.5,0.4c0,0.3,0.2,0.5,0.5,0.5h1.6c0.5,0,0.5,0.2,0.4,0.5l-6.6,8.4c-0.5,0.3-1.1,0.4-1.7,0.4h-5.9
		c-0.2,0-0.4,0.2-0.4,0.5c0,0.2,0.1,0.3,0.3,0.4c0,0,0.1,0,0.1,0h5c0.9,0,1.4,0.1,1,0.7l-9.5,11.8c-1.7,2.3-10.3,3.4-12.1,3.4
		l32.1-59.9c0.5-1,1.6-1.7,2.7-1.7h6.8c3.2,0,3.2-2.2,0.4-2.2H61.4c-2.8,0-3,2.2,0.4,2.2h6.3c1.8,0,2.3,1,1.8,2l-0.9,1.6
		c-0.2,0.5-0.7,0.7-2.5,0.7H55.4c-0.2,0-0.4,0.2-0.4,0.5c0,0.2,0.1,0.3,0.3,0.4c0,0,0.1,0,0.1,0h11.2c0.6,0,1.5,0.2,1,1.4l-1.6,2.8
		c-0.2,0.5-1,0.6-1.7,0.6h-5.2c-0.2,0-0.4,0.2-0.4,0.5c0,0.2,0.1,0.5,0.4,0.5h5c0.7,0,0.9,0.5,0.4,1.1l-3.6,6.6
		c-0.4,0.6-0.9,0.7-2.1,0.7h-2c-0.2,0-0.5,0.1-0.5,0.4c0,0.3,0.2,0.5,0.5,0.5h2c0.7,0,1,0.4,0.6,1.1l-3,5.5
		c-0.5,0.7-1.1,1.1-3.1,1.1H42.2c-0.2,0-0.3,0.1-0.4,0.3c0,0,0,0.1,0,0.1c0,0.2,0.1,0.5,0.4,0.5h11.2c1.2,0,1.7,0.6,1.2,1.5
		l-5.8,10.8c-0.4,0.5-1.2,0.6-2.8,0.6H34.8c-0.2,0-0.5,0.1-0.5,0.4c0,0.3,0.2,0.5,0.5,0.5h11.1c1.4,0,2.2,0,1.8,0.7l-3.3,6.3
		c-0.6,1-2.3,1-3.1,1h-3.6c-0.2,0-0.3,0.1-0.4,0.3c0,0,0,0.1,0,0.1c0,0.2,0.1,0.5,0.4,0.5h3.6c1.2,0,1.8,0.2,1.6,0.9l-4.4,8.4
		c-0.5,0.7-2.2,0.7-3.6,0.7H17.7c-0.3,0-0.5,0.2-0.5,0.5c0,0.2,0.2,0.4,0.5,0.4H35c1.2,0,2.6,0.2,2.1,1.1l-2.8,5.3
		c-0.2,0.5-1.2,0.5-2.7,0.5h-3.4c-0.3,0-0.5,0.2-0.5,0.5c0,0.2,0.2,0.4,0.5,0.4h3.4c0.9,0,2,0.1,1.6,0.9l-1.8,3.3
		c-0.4,1-1.4,1.6-2.5,1.6h-8.7c-3.2,0-3.1,2.2-0.2,2.2h50.9c1.5,0,1.6-0.2,2.2-1.4l7.6-13.2h38.6
		C121.9,173.2,121.3,171.1,119.6,171.1z"/>
	<path class="st2" d="M218.3,146.9c-1.4,1.2-3.6,2.5-4.1,2.1c-1.1-0.9-2.2-1.7-3.4-2.3l8.4-15.3c0.4-0.5,1-0.8,1.6-0.7
		c3.3,0,4.3,3.4,2.8,7.9C222.5,141.6,220.7,144.9,218.3,146.9z M285.5,160.5c-0.2-1-0.6-0.4-1.2,0.9c-0.2,0.5-0.9,0.5-1.6,0.5h-2
		c-0.2,0-0.4,0.2-0.5,0.4c0,0.2,0.2,0.5,0.4,0.5c0,0,0.1,0,0.1,0h2c0.7,0,0.7,0.5,0.4,1.2c-1.2,2.7-2.8,5.2-4.8,7.5
		c-0.4,0.4-1,0.6-1.6,0.6l-2.1,0.1c-0.2,0-0.5,0.1-0.5,0.4c0,0.3,0.2,0.5,0.5,0.5h2c1.1,0,0,0.6-0.1,0.9c-2.5,3.4-5.4,6.4-8.6,9
		c-0.9,0.2-1.9,0.2-2.8,0.1h-2.1c-0.2,0-0.4,0.2-0.4,0.5c0,0.2,0.1,0.3,0.3,0.4c0,0,0.1,0,0.1,0l2.1,0.1c1.5,0,0.4,0.9,0.1,1
		c-5.5,4.7-13.9,6.2-17.6,5.7c-12.3-1.5-14.9-10.8-15.7-14.6c-0.4-1.1-0.7-2.2-1-3.3c-0.4-2,5.2-2.5,6.6-1.5
		c2.3,1.6,7.8,3.2,12.1,3.2c3.9,0,11.9-2.8,14.3-9.6c2.5-7-3.6-14.6-6.3-17.3c-3.3-3.3-6.5-8.7-5.2-12.7c1-3,2.7-4.3,6.3-4.3
		c4.8,0,8.1,3,8.1,7.3c0,0.4-0.1,0.9-0.5,0.9h-1.6c-0.3,0-0.5,0.2-0.5,0.5c0,0.2,0.2,0.4,0.5,0.4h1.5c0.3,0,0.6,0.2,0.7,0.6
		c0,0.1,0,0.2,0,0.3c-0.2,1.5-0.4,2.5-0.7,3.9c-0.1,0.9,1.1,1.4,1.5,0.7l7.4-13.2c0.6-1-0.6-1.2-1.5-1c-2.1,0.7-5.3,1.2-6.5,0.4
		c-2.6-2.1-5.8-3.2-9.1-3.2c-6.5,0-11.2,1.6-14.1,7c-0.2,0.4-0.9,0.4-1.4,0.4h-1.4c-0.2,0-0.4,0.2-0.4,0.5s0.1,0.5,0.4,0.5l1.1-0.1
		c0.5,0,0.7,0.2,0.5,0.7c-0.1,0.5-0.4,1-0.5,1.5c-0.7,2.9-0.5,5.9,0.6,8.6c0.1,0.1-0.1,0.2-0.6,0.2h-2c-0.3,0-0.5,0.2-0.5,0.5
		c0,0.2,0.2,0.4,0.5,0.4h2c1,0,1.1,0.1,1.5,0.6c1.1,1.5,2.2,2.6,3.4,4.3c0.5,0.5-1.4,0.6-2.3,0.6h-7.9c-0.3,0-0.5,0.2-0.5,0.5
		c0,0.3,0.2,0.5,0.5,0.5c0,0,0,0,0,0h8c1.4,0,3.6-0.1,3.8,0.2c2,2.2,4.3,5.7,4.7,8.6c0.1,0.9-0.2,1.2-1.2,1.2h-1.1
		c-0.2,0-0.3,0.1-0.4,0.3c0,0,0,0.1,0,0.1c0,0.2,0.1,0.5,0.4,0.5h1c0.9,0,1.2,0.1,1.1,0.7c-1.1,3.3-2.6,5.8-9,5.7
		c-6.8,0-8.1-6.5-6.2-13.4c0.4-1.4,0-2-0.6-0.9l-4.7,7.4c-0.3,0.3-0.8,0.5-1.2,0.5h-0.6c-0.3,0-0.5,0.2-0.5,0.5
		c0,0.3,0.2,0.5,0.5,0.5c0,0,0,0,0,0c0.5,0,0.7,0.2,0.5,0.6l-1.7,2.6c-2.6-6.1-6-11.9-10-17.2v-0.1c6.3-0.4,15.4-6.2,16.9-11.3
		c2.6-9.1-6.2-12.4-11-12.4h-20.9c-2.8,0-3,2.2-0.4,2.2c1.5,0,2.7,1.2,2.1,2.5l-4.7,8.4c-0.4,0.7-1.7,0.7-3.7,0.7h-2
		c-0.2,0-0.5,0.1-0.5,0.4c0,0.3,0.2,0.5,0.5,0.5h2c1.4,0,2.8,0,2.3,1l-5.5,10c-0.2,0.5-1,0.5-2.8,0.5h-2c-0.3,0-0.5,0.2-0.5,0.5
		c0,0.2,0.2,0.4,0.5,0.4h2c1.5,0,2,0.2,1.6,1l-7.4,13.3c-0.9,1-1.8,1.1-3.7,1.1c-2.7,0-2.6,2.1,0.1,2.1h18c2.8,0,2.1-2.1,0.5-2.1
		c-1,0-2-1.8-1.4-2.8l9.1-17.5h1c4.1,0,5,6.8,5.8,14c0.1,0.5-0.9,0.6-3,0.6h-5c-0.2,0-0.5,0.1-0.5,0.4c0,0.3,0.2,0.5,0.5,0.5h5
		c1.4,0,3.2,0,3.2,0.5c0.2,2.9,0.6,5.7,1.2,8.5c0.2,0.9-1.2,0.7-2.7,0.7h-6.5c-0.3,0-0.5,0.2-0.5,0.5c0,0.2,0.2,0.4,0.5,0.4h6.5
		c2,0,3.1,0,3.2,0.5c2.7,10.2,14.8,18.3,26.3,17.8c10.1-0.4,18.5-5.8,22.8-9.4c5.8-4.6,14.3-14.3,17.7-21.3
		C284.7,163.3,285.7,161.6,285.5,160.5z"/>
	<path class="st2" d="M117.1,115.4c-1.6,1.9-4,2.9-6.4,2.7H110l4.4-8.7c0.2-0.5,0.7-0.7,1.2-0.7c0.6,0,0.5-1.1-0.2-1.1h-6.9
		c-0.6,0-0.9,1.1-0.2,1.1c0.6,0,0.6,0.6,0.4,1.2l-3.9,7.8c-0.3,0.3-0.8,0.6-1.2,0.6c-0.6,0.2-1,1.2-0.2,1.2h11.1
		c0.9,0,1.1-0.2,1.2-0.6l2.3-3.4C118.1,115,117.5,114.9,117.1,115.4z"/>
	<path class="st2" d="M150.6,107.7c-0.4,0.3-1,0.3-1.5,0c-1-0.8-2.3-1.2-3.6-1.2c-2.6,0-4.4,0.5-5.7,3c-0.9,2.1,0.1,3.9,2.3,4.9
		c1.1,0.5,2.3,1.1,1.8,2.3c-0.4,0.9-1.4,1-2.3,1c-1.2-0.1-3.1-1-3.3-2.7c-0.1-0.6-0.7-0.5-1-0.1l-1.6,3.1c-0.2,0.5,0.4,0.9,0.7,0.6
		c0.6-0.6,1.5-0.7,2.2-0.4c1.2,0.8,2.6,1.3,4.1,1.5c2.3,0.2,4.6-0.9,5.8-3c1.4-2.1,0.5-4.2-1.8-5.3c-1.4-0.6-2.5-1.7-1.8-2.8
		c0.4-0.7,1.5-0.6,2.1-0.5c1.2,0.2,2.2,1,2.6,2.1c0.1,0.3,0.3,0.4,0.6,0.3c0.1,0,0.2-0.1,0.3-0.2l0.7-2
		C151.5,108,150.9,107.6,150.6,107.7z"/>
	<path class="st2" d="M227.8,110.9l1-1.8c0.5-0.7-0.2-1.6-1.4-1.6h-13c-0.9,0-0.6,1-0.2,1c0.9,0,1.1,1,0.6,1.8l-3.9,7.1
		c-0.6,0.7-1,1-1.7,1c-0.7,0-1,1,0,1h13.2c0.5,0,0.7-0.1,0.9-0.5l1.8-2.3c0.5-0.5-0.5-0.5-0.7-0.2c-1.8,1.6-4.1,2.4-6.5,2.2h-1.5
		l1.7-4.1h0.4c1.2,0,2.6,0,2.8,0.9c0.2,0.3,0.6,0.3,0.9,0.1c0,0,0.1-0.1,0.1-0.1l1.5-3.1c0.2-0.5-0.4-0.5-0.6-0.2
		c-0.6,1.1-3.3,0.9-3.9,0.9h-0.4l2.2-4.4h2.5c1.5,0,2.8,0.9,3.3,2.3C226.8,111.1,227.6,111.3,227.8,110.9z"/>
	<path class="st2" d="M163.7,113.1l4.3-3.4v3.4H163.7z M194.5,107.5H190c-1,0-0.7,1-0.2,1c0.8,0,1.5,0.7,1.4,1.5
		c0,0.3-0.1,0.5-0.2,0.7l-1.8,3.4l-4.2-6.2c-0.4-0.4-1-0.6-1.6-0.6h-4.6c-0.9,0-0.7,1-0.2,1c0.9,0,0.6,0.7,0.4,1.2l-3.6,7
		c-0.2,0.4-0.7,0.6-1.1,0.4c-0.2-0.1-0.4-0.3-0.4-0.5l-2.8-9.1c-0.1-0.4-1.7-0.4-2.2,0l-7,5.8h-3.6c-0.7,0-1.1,0.4-1.1,0.7
		c0,0.4,0.4,0.7,1.1,0.7h1.8l-1.8,1.6c-1.1,0.7-2.2,1.8-2.8,1.8h-0.5c-0.7,0-1.1,0.1-1.1,0.6c0,0.6,0.4,0.7,1,0.7h5.7
		c1.1,0,0.9-1.4,0.4-1.4c-0.6,0-1.1-0.5-1.1-1c0-0.3,0.1-0.6,0.3-0.8l1.7-1.6h3.4c2,0,3.4,2.3,2.2,3.1l-1,0.5
		c-0.4,0.2-0.6,1.2,0,1.2h11.1c0.9,0,0.7-1.1,0.4-1.1c-1.2,0-0.6-1.6-0.4-2l2.8-5.5l4.1,7.9c0.4,0.5,0.6,0.7,1,0.7h1.6
		c0.4,0,0.8-0.2,0.9-0.6l4.7-8.5c0.7-1.5,1.4-1.8,2.3-1.8C195.3,108.5,195.5,107.5,194.5,107.5z"/>
	<path class="st2" d="M130.1,114.4c-1.2,2.5-3.3,3.9-4.6,3.3c-1.4-0.6-1.5-3.2-0.1-5.7c1.2-2.5,3.2-3.9,4.6-3.3
		C131.3,109.5,131.3,111.9,130.1,114.4z M129,106.9c-3.8,0-7.9,2-8.6,6c-0.7,3.2,1.3,6.4,4.5,7.1c0.5,0.1,1,0.2,1.5,0.1
		c4.2,0,8-2.7,8.7-6.6S133,106.9,129,106.9z"/>
	<path class="st2" d="M207.7,112.9h-4.9c-1,0-0.7,1-0.4,1c0.4,0,0.8,0.3,0.9,0.7c0,0.1,0,0.1,0,0.2c0,2-0.9,2.7-2.7,2.7
		s-2.6-2.2-1.2-5c1-2.2,3.2-3.6,5.5-3.6c1.6,0,3,0.4,3.1,1.8c0.1,0.4,0.6,0.4,0.9,0l1.1-2.1c0.1-0.2,0-0.5-0.4-0.5
		c-0.4-0.1-1,0.4-1.5,0c-1.4-0.9-3.1-1.4-4.8-1.5c-3.7-0.2-7.2,1.7-9,5c-2.3,3.9,1,8.1,4.1,8.1c1.7,0,3.8-1.2,4.9-1.7l1.2,0.9
		c0.3,0.3,0.6,0.5,1,0.5h0.5c0.5,0,0.6-0.6,0.7-1l2-4.7C208.9,113.3,208.8,112.9,207.7,112.9z"/>
	<path class="st2" d="M276.2,107.7c-0.4,0.3-1,0.3-1.5,0c-1-0.8-2.3-1.2-3.6-1.2c-2.6,0-4.4,0.5-5.7,3c-0.9,2.1,0.1,3.9,2.5,4.9
		c1,0.5,2.2,1.1,1.7,2.3c-0.4,0.9-1.4,1-2.3,1c-1.2-0.1-3.1-1-3.3-2.7c-0.1-0.6-0.7-0.5-1-0.1l-1.6,3.1c-0.2,0.5,0.4,0.9,0.7,0.6
		c0.6-0.6,1.5-0.7,2.2-0.4c1.2,0.8,2.6,1.3,4.1,1.5c2.6,0,4.4-0.7,5.8-3c1.4-2.1,0.6-4.2-1.8-5.3c-1.4-0.6-2.3-1.7-1.8-2.8
		c0.4-0.7,1.5-0.6,2.1-0.5c1.2,0.2,2.2,1,2.6,2.1c0.1,0.3,0.3,0.4,0.6,0.3c0.1,0,0.2-0.1,0.3-0.2l0.7-2
		C277.1,108,276.5,107.6,276.2,107.7z"/>
	<path class="st2" d="M241.5,115.4c-1.7,2.1-3.9,2.7-6.5,2.7h-0.6l4.4-8.7c0.2-0.5,0.7-0.8,1.2-0.7c0.5,0,0.5-1.1-0.2-1.1h-7
		c-0.6,0-0.7,1.1-0.2,1.1c0.6,0,0.7,0.6,0.5,1.2l-4.1,7.8c-0.3,0.3-0.7,0.6-1.1,0.6c-0.6,0.2-1,1.2-0.4,1.2h11.1
		c0.9,0,1.1-0.2,1.4-0.6l2.2-3.4C242.5,115,241.8,114.9,241.5,115.4z"/>
	<path class="st2" d="M258.3,108.5c1.5,0.1,2.8,1,3.3,2.3c0.1,0.2,0.9,0.5,1.1,0.1l1-1.8c0.4-0.7-0.2-1.6-1.4-1.6h-13
		c-1,0-0.6,1-0.2,1c0.9,0,1.1,1,0.5,1.8l-3.8,7.1c-0.4,0.6-1.1,1-1.8,1c-0.6,0-0.9,1,0,1H257c0.6,0,0.9-0.1,1-0.5l1.8-2.3
		c0.4-0.5-0.5-0.5-0.9-0.2c-1.7,1.6-4,2.4-6.4,2.2H251l1.8-4.1h0.4c1.1,0,2.5,0,2.8,0.9c0.2,0.2,0.5,0.3,0.7,0.1
		c0.1,0,0.1-0.1,0.1-0.1l1.6-3.1c0.2-0.5-0.5-0.5-0.6-0.2c-0.6,1.1-3.3,0.9-4.1,0.9h-0.4l2.3-4.4L258.3,108.5z"/>
	<path d="M157.9,77.5c-6.2-0.4-11.2-0.6-15.5-0.1c1.2-3,3.2-5.6,5.8-7.5c4,0.2,7.9,0.7,11.8,1.5c11,2.1,27.9,8.9,35.3,18.6
		C185.4,83.4,169.3,78.3,157.9,77.5z M139.5,77.7c-4.3,0.5-8.6,1.3-12.8,2.3c-0.6-1.6-2.2-6.5-2.8-8.1c6.8-1.9,13.8-2.6,20.8-2.1
		C143,71.2,140.2,76.2,139.5,77.7z M108.7,86.8c-0.7-1.2-4.3-4.6-6.3-5.2c4.6-3.4,15-8.2,19.1-9.1c0.6,1.2,2.5,6.2,3.1,8.1
		C121,81.4,111.6,84.9,108.7,86.8z M207.1,98c-1-1.2-2.3-3.7-12.2-12.3c-14.6-12.7-34-18.5-52-18.5c-13.3,0-25,3-38,10.1
		c-16.5,9.1-23.3,19.6-25,21.7c-1.2,1.6-1.4,2.5-0.6,3c0.6,0.4,1.7-0.9,2.7-2.2c4.9-6.5,11.4-12.9,18.2-16.7c2.1,0.4,5,3.3,6.2,4.8
		c-4.9,3.1-9.7,6.4-14.3,10c-2.3,1.8-3.1,2.8-2.5,3.6c0.5,0.6,2.3-0.5,3.8-1.7c4.5-3.6,9.2-6.8,14.1-9.7c2.7,3.1,1.8,8.7,0.9,9.8
		c-0.5,0.7-0.5,1.4,0,1.7c0.6,0.4,1.1-0.5,1.8-1.6c1.8-2.6,1.1-8.7-0.4-11c4.7-3,11.3-4.9,15.4-5.8c0.4,0.6,5.3,15,6.3,17.6
		c0.5,1.5,1,3.2,2.1,2.8c0.6-0.1,0.2-1.7-0.4-3.3c-0.7-2-4.4-14-5.7-17.6c1.4-0.7,9.5-2.3,11.6-2.3c-1,5.3,2.7,7.5,6.9,10.2
		c2.2,1.5,16.5,9.6,19.4,11.4c1.7,1.1,3.1,1.7,3.4,1.2c0.4-0.5-0.7-1.7-2.3-2.6c-1.2-0.7-14.5-8.5-20.1-11.9c-3.9-2.6-6-5.2-5.2-8.7
		c1.4-0.4,5.3-0.4,9.5-0.4c28.3,0.2,50.9,16.4,53.4,19.1c1.4,1.2,3.1,2.3,3.8,1.8C208.4,100.1,207.7,98.6,207.1,98L207.1,98z"/>
	<path d="M213.2,194.6c1.1-1.8,1.8-3,1-3.4c-0.7-0.5-1.6,1.4-2.6,3.1c-3.3,5.7-6.9,10.5-15,17.8c-6.8,6.1-14.6,10.9-23,14.1
		c-3.1-8.6-14.8-45.3-15.1-46.4c-0.4-1.6-0.9-2-1.4-1.8c-0.6,0.2-0.2,1.1,0.1,2.5c0.2,1.4,14.1,44.9,14.6,46.4
		c-2.7,1.4-14,4.6-21.8,4.8c-7,0.2-15.3,0-19.4-1c-4.8-3.9-15.9-19.6-20.1-27.8c-4.9-9.8-8.2-18.8-9.1-22.6c-0.4-1.8-0.9-3.2-1.8-3
		c-1,0.1-0.4,1.6,0.2,3.6c2.3,7.7,5.3,15.2,9,22.4c5.5,10.7,15.3,23.4,18.1,26.8c-10.9-2.4-21.1-7-30-13.7
		c-8.9-6.6-16.5-15-20.3-21.2c-0.6-1.1-1.4-2.6-2.3-2c-0.5,0.4,0.1,1.5,0.7,2.7c5.5,10,19.1,24.1,36.5,31.9c20.2,9,42.2,8.5,62,0.9
		C190.8,222,205.9,208.3,213.2,194.6z"/>
</g>
</svg>
