<?xml version="1.0" encoding="utf-8"?>
<!-- Generator: Adobe Illustrator 23.0.6, SVG Export Plug-In . SVG Version: 6.00 Build 0)  -->
<svg version="1.1"
	 id="Layer_1" xmlns:cc="http://creativecommons.org/ns#" xmlns:dc="http://purl.org/dc/elements/1.1/" xmlns:rdf="http://www.w3.org/1999/02/22-rdf-syntax-ns#"
	 xmlns="http://www.w3.org/2000/svg" xmlns:xlink="http://www.w3.org/1999/xlink" x="0px" y="0px" viewBox="0 0 300 300"
	 style="enable-background:new 0 0 300 300;" xml:space="preserve">
<style type="text/css">
	.st0{fill:#FFFFFF;}
	.st1{fill:#061922;}
	.st2{fill:#C8102E;}
	.st3{fill:#1D428A;}
</style>
<g>
	<path class="st0" d="M1,150C1,67.7,67.7,1,150,1s149,66.7,149,149s-66.7,149-149,149l0,0C67.7,299,1,232.3,1,150C1,150,1,150,1,150
		"/>
	<path class="st1" d="M150,1C67.7,1,1,67.7,1,150s66.7,149,149,149s149-66.7,149-149c0,0,0,0,0,0C298.9,67.7,232.3,1.1,150,1
		 M257.7,67.3c17,21.9,26.7,48.5,28,76.2h-56.2C230.9,115.8,240.8,89.2,257.7,67.3 M42.4,67.3c17,21.9,26.7,48.5,28,76.2H14.3
		C15.6,115.8,25.4,89.2,42.4,67.3 M42.4,232.7c-17-21.9-26.7-48.5-28-76.2h56.2C69.2,184.2,59.3,210.8,42.4,232.7 M156.5,285.7
		v-38.9h-13.1v38.9C108.2,284.2,75,268.8,51,243c19.9-24.6,31.3-54.9,32.6-86.4v-13.1C82.3,111.9,70.9,81.6,51,57
		c24-25.8,57.2-41.2,92.5-42.8v38.6h13.1V14.3C191.8,15.8,225,31.2,249,57c-19.9,24.6-31.3,54.9-32.6,86.4v13.1
		c1.3,31.6,12.7,61.9,32.6,86.4C225,268.8,191.8,284.2,156.5,285.7 M257.7,232.7c-17-21.9-26.8-48.5-28-76.2h56.2
		C284.6,184.2,274.7,210.8,257.7,232.7"/>
	<polygon class="st2" points="116.9,87.6 116.9,211.9 183.2,211.9 183.2,194.8 134.6,194.8 134.6,87.6 	"/>
	<path class="st3" d="M205.9,129.2V78c0-7.7-3-10.7-10.7-10.7h-90.4c-7.6,0-10.6,3.2-10.6,10.7v144c0,7.7,3,10.7,10.6,10.7h90.4
		c7.6,0,10.7-3.2,10.7-10.7v-51.3h-18v46.3h-75.8V82.9h75.8v46.3L205.9,129.2L205.9,129.2z"/>
	<path class="st2" d="M183.2,189.9V87.6h-43.1l-0.5,102.4h17.3l0.3-31.9h8.7l-0.2,31.9H183.2z M165.9,141.1h-8.7v-36.4h8.7V141.1z"
		/>
</g>
</svg>
