<?xml version="1.0" encoding="utf-8"?>
<!-- Generator: Adobe Illustrator 23.0.6, SVG Export Plug-In . SVG Version: 6.00 Build 0)  -->
<svg version="1.1"
	 id="Layer_1" xmlns:cc="http://creativecommons.org/ns#" xmlns:dc="http://purl.org/dc/elements/1.1/" xmlns:rdf="http://www.w3.org/1999/02/22-rdf-syntax-ns#"
	 xmlns="http://www.w3.org/2000/svg" xmlns:xlink="http://www.w3.org/1999/xlink" x="0px" y="0px" viewBox="0 0 300 300"
	 style="enable-background:new 0 0 300 300;" xml:space="preserve">
<style type="text/css">
	.st0{fill:#707271;}
	.st1{fill:#12173F;}
	.st2{fill:#5D76A9;}
	.st3{fill:#FFBB22;}
</style>
<g>
	<path class="st0" d="M277.1,74.1c3.4-6.2,5.2-13.1,5.3-20.2c-0.3-14.6-7.8-28.2-20-36.2c-16.3-11-40.6-12.6-57.9,8.1
		c-18.4-2.4-37.1,0-54.4,6.8c-17.3-6.8-36-9.2-54.4-6.8C78.4,5.2,54,6.7,37.7,17.7c-12.2,8-19.7,21.6-20,36.2
		c0.1,7.1,1.9,14,5.3,20.2C10,92.9,1,115.3,1,137.9c0,27.3,11.7,41.5,16.1,47.5l3.5-3.5c12.4,31.5,33.5,48.5,59.1,63.9
		c0,0,0.5-3.1,1.1-5.9c27.5,23.8,40.6,18,69.3,50.3c28.5-32.2,42-26.7,69.3-50.3c0.5,2.8,1.1,5.9,1.1,5.9
		c11.4-6.9,43.5-24.1,59.1-63.9l3.5,3.5c2.7-3.7,16.1-18.6,16.1-47.5C299.1,115.3,290.1,93,277.1,74.1"/>
	<path class="st1" d="M269.2,74.5c26.2-40.3-33.3-82.2-62.1-41.7c-19.3-3.2-39.1-0.7-57,7c-17.9-7.7-37.7-10.2-57-7
		C64.2-7.7,4.7,34.2,30.9,74.5C1.1,115.6,4,156.1,17.9,175.2l5.7-5.7c0,0,8.1,39.6,51.2,65.6l1.5-8.5c26.5,28.3,50.7,27.7,73.6,53.6
		c22.9-25.8,47.1-25.2,73.6-53.6l1.5,8.5c43.1-26,51.2-65.6,51.2-65.6l5.7,5.7C296.2,156,299.1,115.7,269.2,74.5"/>
	<path class="st2" d="M150.3,225.2c0,0-20.7,0.3-23.8,2.2c0,0-3.6,6.1,23.8,6.1c26-0.1,22.1-4.8,22.3-5.6
		C165.4,226,157.9,225.1,150.3,225.2"/>
	<path class="st2" d="M132.4,201.2c0,0,3.2-9.4,6.7-6.4c4.8,4.1,11,12.5,11,13.3v11.1l-7.5,0.4c-6.2,0.8-12.3,2-18.3,3.4
		c-19.2-47.6-8.5-83.7-3.4-96.6c-19,4.1-22.1-18.8-22.1-18.8c2.9-0.1,5.7,0.6,8.2,2c5.6,2.9,10.9,6.3,15.9,10.3l0,0
		c1.4,1.1,2.7,2.2,3.9,3.2c13,10.9,23.5,8.7,23.5,8.7v46.6C150.1,178.6,112.2,175.6,132.4,201.2"/>
	<path class="st2" d="M167.9,201.2c24.1-24.4-15.2-23-17.7-22.6C154.2,178.8,184.7,179,167.9,201.2"/>
	<path class="st2" d="M183.9,127.3c21.7,58.3-5.8,95.9-6,96.1c17-44.7,6.1-81.8-1.3-95.6c-2.8,0.2-5.6,0.3-8.4,0.1
		c3.3-2.1,6.5-4.4,9.5-6.9c0.3-0.3,0.5-0.5,0.9-0.8c4.8-4.4,10.2-7.9,16.2-10.4l0,0c2.7-1,5.4-1.7,8.3-2.1
		C203,107.8,200.9,127,183.9,127.3"/>
	<path class="st2" d="M218.2,51.8c0,0,8.8-22.1,35.9-16.8c0,0-24.9-16.4-42.2,13.2c0,0-24.8-11.6-61.8,4.4c0,0-34.8-12.2-61.2-5.3
		c0,0-15.4-26.8-37.1-15.7S41.3,68,45.1,74.7c0,0-36,36.7-22.5,82l7.3-9c0,0,10.4,49.4,37,64.9l1.6-12.1c0,0,27.9,33.6,60.6,47.8
		c3.1,1.5,20.5,10.1,21,14.3v-23.5c0,0-22.7,1.9-28.7-8.6c-4.1-7.1-30.2-53.7-17.3-102.5c0,0-12.6-1.9-14.9-23.1
		c-6.6-2.9-13.8-4.1-21-3.6c0,0,20.8-6.5,40.3,1c19.5,7.5,24.8,26.8,38,18.3l3.6-54.2l4,54.2c13.2,8.5,18.4-10.7,38-18.3
		c19.5-7.5,40.4-1,40.4-1c-6.6-4.2-14-7.1-21.7-8.5c-11.2-2.2-27.6,4.9-27.6,4.9s2.3-15.3,9.8-23.6
		C199.2,67.1,213.7,65.5,218.2,51.8z M49.8,70.4C49,63,58.3,55.8,58.3,55.8c-3.8-4-10.6-0.5-10.6-0.5c6.1-11.9,19.7-6.1,19.7-6.1
		c-5.2-6.3-16.1-5.9-16.1-5.9c13.5-13.5,29.9,7.1,29.9,7.1C66.8,53.6,49.8,70.4,49.8,70.4z"/>
	<path class="st3" d="M122.7,120.1c-2.1-0.7-5.5,1.5-7.5,5.2c-6.5-1.9-8.7-8.9-8.4-15.5l0,0C112.5,112.7,117.8,116.2,122.7,120.1"/>
	<path class="st3" d="M186.3,125.4c-2-4-5.7-6.1-7.8-5.1c4.8-4.4,10.2-7.9,16.2-10.4l0,0C195,116.5,192.7,123.5,186.3,125.4"/>
</g>
</svg>
