<?xml version="1.0" encoding="utf-8"?>
<!-- Generator: Adobe Illustrator 23.0.6, SVG Export Plug-In . SVG Version: 6.00 Build 0)  -->
<svg version="1.1"
	 id="Layer_1" xmlns:cc="http://creativecommons.org/ns#" xmlns:dc="http://purl.org/dc/elements/1.1/" xmlns:rdf="http://www.w3.org/1999/02/22-rdf-syntax-ns#"
	 xmlns="http://www.w3.org/2000/svg" xmlns:xlink="http://www.w3.org/1999/xlink" x="0px" y="0px" viewBox="0 0 300 300"
	 style="enable-background:new 0 0 300 300;" xml:space="preserve">
<style type="text/css">
	.st0{fill:#98002E;}
	.st1{fill:#F9A01B;}
	.st2{fill:none;stroke:#F9A01B;stroke-width:0.1748;}
	.st3{fill:#FFFFFF;}
</style>
<g>
	<path d="M38.1,115.1c0.9-10,36.5-23.1,94.5-25.2c-7.3,5.4-12.1,13.5-13.5,22.5l-0.5,4.2c-0.3,2.7-0.9,5.4-1.7,8
		c-2.3,5.8-8.6,10.7-15.2,14.2c-23.2-2.8-42.8-7.9-54.2-14C41.3,121.8,37.8,118.1,38.1,115.1z M260.1,112.2c2.3,2.4,2.1,4,2.1,4.5
		c-0.2,2.8-3.7,6.3-9.6,9.3c-12.4,6.5-33.7,11.4-58.9,14c1.2-0.7,2.4-1.4,3.7-1.9l0.3-0.2c7.3-3,15.6-6.3,15.9-18.4
		c0.2-1.9,0.2-7.7,1.2-9.8c1.4-2.8,4.9-6.8,7.9-8l-5.1-0.9h-0.7c1.5-1.1,2.8-2.6,3.7-4.4C241.2,100.8,255,106.6,260.1,112.2
		L260.1,112.2z M285.2,97.1c-10.7-12.1-34.8-21.7-65.5-27.4c0-3.5,2.3-5.1,6.1-7.9c2.3-1.6,4.4-3.2,6.5-5.1
		c10-9.6-1.7-23.9-2.1-24.6l-6.5-7.9l1.6,10.1c1,6.8-1.4,9.3-9.1,14.5c-0.9,0.7-1.7,1.4-2.4,2.1c0.6-5.4,0.2-10.8-1-16.1
		c-1.4-6.3-4.5-8.9-4.5-8.9l-0.9,9.3c0,0.2-0.7,7.3-10.3,16.1c0.8-0.9,1.6-1.9,2.3-3c4.7-7,3.3-14.7,1.7-23.8l-0.3-1.9
		c-1.6-9.3,0.9-15.2,2.4-16.3c1.6-1.9,4.7-5.1,4.7-5.1s-1.6-0.7-6.3-0.2c-5.9,0.9-16.1,4.5-15.9,12.8c0.3,3.4,1.2,6.8,2.4,10
		c1,3.3,2.1,6.5,1,7.9c-0.7,1.2-2.8,2.3-6.3,3c-14.3,2.6-25.2,9.1-30.6,18.5c-1.9,3.1-3.2,6.6-3.8,10.1
		c-35.1,0.2-68.5,4.5-94.2,12.4C25.2,84.7,9.3,97,8.1,111.1c-0.7,7.5,2.8,18.2,21.3,28.5h-0.2l5.2,2.6l2.8,1.2
		c9.6,4.2,19.6,7.5,29.9,9.8c-3.9,2.2-7.6,4.9-11,7.9C23,188.4,18.2,237.5,45.5,270.6s76.4,37.9,109.5,10.6
		c13.7-11.3,23.1-26.9,26.7-44.3c6.3-18.7,5.6-38.8,5.2-46.5c-0.7-17.3,7.9-26.9,13.3-31.1c24.5-3.1,46.3-8.6,62.4-15.7l2.6-1.2
		l5.6-2.6l-0.2-0.2c13.1-7.3,20.4-15.7,21.1-24.8C292.6,108.5,290.3,102.6,285.2,97.1L285.2,97.1z"/>
	<path class="st0" d="M30.8,226.6c2.4,12.4,9.4,23.4,19.6,30.8c3.5,2.5,7.3,4.5,11.4,5.9c-2.4-4.2-5.4-8.6-8.4-12.9
		c-5.6-8.2-11.4-16.8-15-25.9c-3.7-9.2-4.8-19.4-3.1-29.2c-3,8.3-4.6,17-4.5,25.9C30.6,223.1,30.8,224.9,30.8,226.6z"/>
	<path class="st0" d="M43.4,222.6c3.5,8.6,9.1,16.8,14.5,24.6c4.1,5.9,7.9,12,11.4,18.4c3.5,0.7,7,1.2,10.5,1.6
		c-3.9-5.7-7.2-11.9-9.6-18.4c-10.8-26.9-9.4-60.1,4-79.3c6.7-9.4,15.6-17.1,25.9-22.4c9.1-4.9,14.9-6.5,20.8-10
		c6.3-3.7,9.6-10,5.4-24.1c-1-3.2-1.3-6.6-1-10c-1.7,3-2.7,6.4-3.1,9.8c-0.5,4.4-1.4,8.7-2.6,12.9c-5.6,14.7-32.7,22.7-36.2,23.9
		c-9.2,2.7-17.8,7.3-25.2,13.5C41.3,178,35.5,201.7,43.4,222.6z"/>
	<path class="st0" d="M156.6,90c0.2,0.9,0.3,1.7,0.5,2.6c0.7,5.2-0.9,9.4-7,10.3c-6.5,1-8.7-4.5-9.3-9.1c0-1.7,0.2-3,0.2-3.8h-3.1
		c-2.7,1.6-5.3,3.5-7.5,5.8c-1.2,2.8-2.8,6.6-0.3,15.6c4.2,15.9,2.3,25.5-10.3,30.9c-16.3,7-26.7,11.2-40.5,28.7
		c-6.6,8.2-10.3,22.2-10.8,36c-0.4,13.6,2,27.2,7,39.8c2.9,7.3,6.7,14.3,11.4,20.6c4.4-0.2,8.8-0.8,13.1-1.7
		c-4.9-5.7-7.8-12.8-8.2-20.3c-1.6-25.9,12.2-36.7,33.6-53.7l9.6-8c38.1-32.3,26.9-65.2,31.1-93.3C162.8,90,159.7,89.9,156.6,90z"/>
	<path class="st0" d="M171.8,90.5c-1.1,5.8-1.8,11.6-2.1,17.5c-1.6,24.5-0.7,52.3-31.8,79.7l-9.3,7.5
		c-20.8,16.6-32.7,27.1-31.8,49.6c0.2,7.2,3.3,14.1,8.6,19c6-1.8,11.7-4.2,17.1-7.2c26.9-15.4,43.9-38.3,50.3-67.6
		c4-18.5,4-33.6,3.8-45.8c0-6.1,0.9-18,0.9-18c0.9-7.5,1.9-18.4,10.8-32.2c0.3-0.5,0.5-0.9,0.9-1.4
		C183.9,91.2,177.9,90.9,171.8,90.5z"/>
	<path class="st0" d="M180.9,169.1c-0.9,4.5-1,9.4-1.6,14.3c-0.3,1.7-0.7,3.7-0.9,5.4c0,0.5-0.2,1.1-0.3,1.6
		c-6.6,30.9-24.3,54.9-52.8,71c-4.7,2.7-9.6,5-14.7,6.8c8.4,5.4,18,7.2,24.6,6.1c25.5-3.7,37.9-20.3,43.9-38.1
		c6.1-18.2,5.4-37.6,5.1-45.6c-0.9-26.9,19.7-36.9,19.7-36.9C188.1,152.9,182.7,159.9,180.9,169.1z"/>
	<path class="st0" d="M164,268.2c-7.6,6.2-16.8,10.2-26.6,11.4c-11.5,1.6-23.2-1.6-32.3-8.9c-0.3-0.2-0.3-0.3-0.7-0.5
		c-4.4,1.2-8.8,2-13.3,2.4c10.1,11,23.8,17.3,41.8,18.4h0.2c12.3-4.7,23.1-12.6,31.3-22.9C164.1,268.1,164.1,268.2,164,268.2z"/>
	<path class="st0" d="M69.2,286.8c0-5.8-1.4-11.6-4-16.8c-6.4-1.8-12.5-4.5-18.2-8c-3.3-2.3-6.2-5-8.9-8
		C44.8,267.8,55.7,279.3,69.2,286.8z"/>
	<path class="st0" d="M121.1,294.5c-9.5-1.9-18.5-5.8-26.4-11.5c-3.9-3-7.5-6.4-10.7-10.1c-4.1,0-8.2-0.4-12.2-1.2
		c2.4,5.7,3.3,11.9,2.6,18c9.8,4.5,20.4,6.7,31.1,6.6c5.2,0,10.4-0.5,15.6-1.6C121.3,294.5,121.1,294.5,121.1,294.5z"/>
	<path class="st0" d="M208.4,110.2c-1.7,5.8-7.5,5.1-9.3,1.9c-2.6-4.9-1.6-8.7,1.2-11.4c2.6-2.6,7.2-4,11.5-6.1h0.2
		c-5.1-0.9-10.5-1.6-16.1-2.3c-0.2,0.2-0.2,0.2-0.3,0.2c-0.4,0.6-0.9,1.2-1.4,1.7c-6.5,9.3-10.3,20.2-11.2,31.5l-0.2,2.4
		c-0.6,5-0.7,10.1-0.5,15.2v2.4c-0.2,2.1-0.2,4.2-0.2,6.1l0,0c0.2-0.9,0.2-1,0.2-0.7c2.4-8.2,7.2-13.1,13.8-15.9
		c7.3-2.8,14.3-5.4,14.7-15.9c0.2-4.4,0.5-8.7,1.4-10.8c1-2.3,2.8-4.2,5.1-5.2C213.8,103.3,209.9,104.7,208.4,110.2z"/>
	<path class="st1" d="M216.9,69c0.5-7,7.2-8.2,13.6-14.2c8.2-7.9-2.6-20.8-2.6-20.8c1.4,8.7-2.6,12.1-10,17.3c-2.4,1.5-4,4-4.4,6.8
		c-0.1,3.5-0.4,6.9-1,10.3C214,68.6,215.5,68.7,216.9,69z"/>
	<path class="st2" d="M216.9,69c0.5-7,7.2-8.2,13.6-14.2c8.2-7.9-2.6-20.8-2.6-20.8c1.4,8.7-2.6,12.1-10,17.3c-2.4,1.5-4,4-4.4,6.8
		c-0.1,3.5-0.4,6.9-1,10.3C214,68.6,215.5,68.7,216.9,69z"/>
	<path class="st1" d="M194.4,56.9c-1.9,1.4-3.7,2.9-5.4,4.5c-1.2,1.2-2.4,2.3-3.5,3.5c7.2,0.5,14.2,1.4,21,2.3
		c4.2-7.9,6.3-16.6,3.7-31.8C210.1,35.4,209.6,45.8,194.4,56.9z"/>
	<path class="st2" d="M194.4,56.9c-1.9,1.4-3.7,2.9-5.4,4.5c-1.2,1.2-2.4,2.3-3.5,3.5c7.2,0.5,14.2,1.4,21,2.3
		c4.2-7.9,6.3-16.6,3.7-31.8C210.1,35.4,209.6,45.8,194.4,56.9z"/>
	<path class="st1" d="M154.2,63.4c8.2,0.2,16.3,0.3,24.3,1c0.2-0.3,0.4-0.6,0.7-0.9c5.2-5.6,13.5-10.5,17.8-16.8s2.6-14.2,0.9-23.6
		C195.1,7,202.1,4,202.1,4s-13.8,1.9-13.5,9.8c0.3,10.7,11.4,20.6-5.2,23.8c-18.2,3.3-29.5,13.1-32,26
		C152.3,63.4,153.2,63.4,154.2,63.4z"/>
	<path class="st2" d="M154.2,63.4c8.2,0.2,16.3,0.3,24.3,1c0.2-0.3,0.4-0.6,0.7-0.9c5.2-5.6,13.5-10.5,17.8-16.8s2.6-14.2,0.9-23.6
		C195.1,7,202.1,4,202.1,4s-13.8,1.9-13.5,9.8c0.3,10.7,11.4,20.6-5.2,23.8c-18.2,3.3-29.5,13.1-32,26
		C152.3,63.4,153.2,63.4,154.2,63.4z"/>
	<path class="st3" d="M154.2,67.6C78,66.9,14.5,86.5,12.4,111.5c-0.9,10,8,19.2,23.9,26.9c11.8,5.4,24.2,9.3,36.9,11.9
		c3-1.2,5.8-2.3,9.1-3.3c4.2-1.2,8.3-2.8,12.2-4.5c-21.3-3-38.4-7.9-49.1-13.6c-7.9-4.2-12.1-8.9-11.5-14
		C35.3,98,88.6,85.1,152.8,85.6c64.3,0.7,115.2,14.9,113.6,31.5c-0.3,4.7-4.7,8.9-11.9,12.8c-13.5,7.2-37.1,12.4-65.9,15
		c-1,1.4-1.9,3-2.6,4.5c13.1-4.9,28.3,2.4,28.3,2.4c0.6,0.2,1.2,0.5,1.7,0.9c19-3.5,35.5-8.4,47.7-14.2
		c14.5-6.8,23.4-15.4,24.1-24.3C290,89.3,230.2,68.5,154.2,67.6z"/>
</g>
</svg>
