<?xml version="1.0" encoding="utf-8"?>
<!-- Generator: Adobe Illustrator 23.0.6, SVG Export Plug-In . SVG Version: 6.00 Build 0)  -->
<svg version="1.1"
	 id="Layer_1" xmlns:cc="http://creativecommons.org/ns#" xmlns:dc="http://purl.org/dc/elements/1.1/" xmlns:rdf="http://www.w3.org/1999/02/22-rdf-syntax-ns#"
	 xmlns="http://www.w3.org/2000/svg" xmlns:xlink="http://www.w3.org/1999/xlink" x="0px" y="0px" viewBox="0 0 300 300"
	 style="enable-background:new 0 0 300 300;" xml:space="preserve">
<style type="text/css">
	.st0{fill:#EEE1C6;}
	.st1{fill:#00471B;}
	.st2{fill:#FFFFFF;}
</style>
<g transform="translate(1.9713 2.6858)">
	<path class="st0" d="M148.2,296.3C81.9,296.3,28,242.4,28,176.1c0-32.4,12.8-62.8,36-85.7c0.2-0.2,0.4-0.3,0.6-0.5
		c-8-12-12.5-26.1-9.1-43.2C61.7,15.3,87.1,5.8,88.2,5.4c0.4-0.2,0.8-0.2,1.2-0.2c1.3,0,2.6,0.7,3.3,2c0.4,0.7,0.5,1.6,0.3,2.5
		c8.3-7,16.2-10.1,19.5-11.1c0.4-0.1,0.7-0.2,1.2-0.2c1.4,0,2.8,0.8,3.4,2.1c0.7,1.7,0.2,3.7-1.5,4.7C108,9.7,101.4,16,96.5,23.1
		c6-1.4,10-1.6,11.4-1.6h0.7c1.8,0.1,3.3,1.6,3.5,3.4c0.2,1.8-1,3.5-2.8,4c-0.1,0-10.1,2.6-21,10.4c-2.1,6.3-3.1,12.9-3.1,19.6
		c0,12.7,4,25.8,11.1,35.8c1.6,2.3,3.2,4.4,4.9,6.2c-0.7-13.1,3.2-33.4,26.8-42.8c0.4-0.2,0.9-0.2,1.4-0.2c1.4,0,2.6,0.7,3.3,2.1
		c0.9,1.7,0.2,3.8-1.4,4.9l-0.2,0.1c-3.5,2.3-6.6,5.3-8.9,8.7c2.5-0.7,4.6-1,6-1.2h0.2h0.4c1.6,0,3,1,3.5,2.5
		c0.6,1.6-0.1,3.5-1.5,4.4l-0.2,0.2c-7.5,4.4-11.7,9.4-12.5,15c-0.8,6.1,2.6,11.9,4.9,15.2c6.3-7.3,10.4-19.8,11.5-24.5
		c0.4-1.6,1.9-2.8,3.6-2.8h0.4c1.9,0.2,3.3,1.8,3.3,3.6c0.1,15.4-4,26-8.2,32.7c6.3,3.1,12.5,3.4,13.9,3.4h0.4h0.2h0.2
		c1.3,0,7.5-0.2,13.9-3.4c-4.2-6.8-8.3-17.3-8.2-32.7c0-1.9,1.4-3.5,3.3-3.6h0.4c1.6,0,3.2,1.2,3.6,2.8c1.2,4.7,5.3,17.2,11.5,24.5
		c2.5-3.3,5.8-9.1,4.9-15.2c-0.7-5.6-4.9-10.7-12.5-15c-0.1,0-0.2-0.2-0.2-0.2c-1.5-0.9-2.1-2.8-1.6-4.4c0.5-1.5,1.9-2.5,3.5-2.5
		h0.4h0.2c1.5,0.2,3.5,0.4,6,1.2c-2.3-3.5-5.4-6.4-8.9-8.7l-0.2-0.1c-1.6-1-2.2-3.1-1.4-4.9c0.7-1.3,2-2.1,3.3-2.1
		c0.5,0,0.9,0.1,1.4,0.2c23.5,9.4,27.4,29.7,26.8,42.8c1.7-1.8,3.3-3.9,4.9-6.2c7.1-10.1,11.1-23.1,11.1-35.8
		c0-6.7-1.1-13.3-3.1-19.6c-11-7.9-20.9-10.4-21-10.4c-1.8-0.4-3-2.1-2.8-4c0.2-1.8,1.6-3.3,3.5-3.4h0.7c1.4,0,5.4,0.2,11.4,1.6
		c-5-7.2-11.6-13.4-19.1-17.9c-1.6-1-2.2-3-1.5-4.7c0.6-1.3,2-2.1,3.4-2.1c0.4,0,0.7,0.1,1.2,0.2c3.3,1.1,11.2,4.1,19.5,11.1
		c-0.2-0.8-0.1-1.6,0.4-2.5c0.7-1.2,1.9-2,3.3-2c0.4,0,0.8,0.1,1.2,0.2c1.1,0.4,26.5,9.9,32.7,41.3c3.4,17.1-1.1,31.2-9.1,43.2
		c0.2,0.2,0.4,0.3,0.6,0.5c23.2,22.8,36,53.3,36,85.7C268.4,242.4,214.5,296.3,148.2,296.3L148.2,296.3z"/>
	<path class="st1" d="M113.7,2.1c-8.3,2.6-25.2,11.3-35.1,32.7c-4,2.7-7.3,6.2-11,10.7C71.3,28.1,80.5,15.6,89.4,9
		c0,0-24.4,8.8-30.3,38.5c-6.9,34.5,20.7,56.2,43,74.7l-17-6.9c-1.2-0.5-2,0.7-1.7,2l0.5,4.2c0.2,2.3,2,14,8.4,17.6
		c1.3,0.7,3.7,1.7,10.8,2.1l12.8,0.8l-2.1,7.2l12.5,20l-6.4-6.8l-13.1,46.6l36,29.6l-11.2-50.9l16.7,20.4l16.6-20.4l-11.2,50.9
		l36-29.6l-13.1-46.6l-6.4,6.8l12.5-20l-2.1-7.2l12.8-0.8c7-0.5,9.4-1.4,10.8-2.1c6.4-3.5,8.2-15.3,8.4-17.6l0.5-4.2
		c0.2-1.3-0.6-2.5-1.7-2l-17,6.9c22.3-18.6,50-40.2,43-74.7C231.2,17.9,206.8,9,206.8,9c9,6.6,18.1,19,21.9,36.4
		c-3.6-4.5-7-8-11-10.7c-10-21.4-26.8-30-35.1-32.7c10.8,6.5,19.8,16.2,25.2,27.3c-12.5-4.5-20-4-20-4s11.1,2.7,23.3,11.7
		c2.4,6.9,3.7,14.3,3.7,21.9c0,13.4-4.4,27.3-11.9,37.9c-4.2,5.9-8.3,10.1-13.4,13.9c1.6-4.2,8.1-36.8-22.8-49.1l0.2,0.2
		c7.3,4.7,12.7,12,14.8,20.7c-5.6-5.4-11.5-5.9-14.7-6.3c0.1,0,0.1,0.1,0.2,0.1c28.6,16.5,5.9,38.8,5.9,38.8
		c-9-7.6-14.3-24.5-15.4-29.1c-0.1,17.9,5.9,28.6,9.9,33.8c-9.2,6.3-19.5,5.9-19.5,5.9s-10.3,0.4-19.5-5.9c4-5.2,10-15.9,9.9-33.8
		c-1.2,4.6-6.4,21.5-15.4,29.1c0,0-22.8-22.3,5.9-38.8c0.1,0,0.1-0.1,0.2-0.1c-3.1,0.4-9.1,1-14.7,6.3c2.2-8.7,7.6-16,14.8-20.7
		l0.2-0.2c-30.8,12.4-24.4,44.9-22.8,49.1c-5-3.8-9.2-7.9-13.4-13.9C85.9,86.4,81.5,72.5,81.5,59c0-7.7,1.3-15.1,3.7-21.9
		c12.1-9,23.3-11.7,23.3-11.7s-7.5-0.4-20,4C94,18.3,103,8.6,113.7,2.1L113.7,2.1z M66.5,93.1c-21.4,21.2-34.8,50.5-34.8,83
		c0,64.2,52.3,116.5,116.5,116.5c64.2,0,116.5-52.3,116.5-116.5c0-32.5-13.3-61.8-34.8-83l-2.6,3.1c20.6,20.4,33.3,48.6,33.3,79.9
		c0,62.1-50.4,112.5-112.5,112.5c-62.1,0-112.5-50.4-112.5-112.5c0-31.3,12.8-59.5,33.3-79.9L66.5,93.1L66.5,93.1z M72.1,99
		c-19.9,19.7-32.2,47-32.2,77.1c0,59.7,48.6,108.3,108.3,108.3c59.7,0,108.3-48.6,108.3-108.3c0-30.1-12.3-57.3-32.2-76.9l-2.8,3
		c18.9,18.9,30.8,45.2,30.8,74c0,6.7-0.7,13.2-1.8,19.5l-32.2-8.9c-5.1,34.5-34.8,61-70.7,61c-35.7,0-65.4-26.3-70.6-60.6l-31.4,8.5
		c-1.2-6.3-1.8-12.8-1.8-19.5c0-28.7,12.1-55.4,31-74.3L72.1,99L72.1,99z"/>
	<path class="st0" d="M74.8,46.5c-1.1,1.2-2.1,2.3-3.1,3.5c-9.6,12.5,4.5,34.7,4.5,34.7S70.9,60.7,74.8,46.5L74.8,46.5z M221.5,46.5
		c4,14.2-1.3,38.3-1.3,38.3s14.1-22.3,4.5-34.7C223.6,48.8,222.6,47.5,221.5,46.5L221.5,46.5z"/>
	<path class="st2" d="M89.4,121.3c0,0,1.2,10.5,5.6,12.9c3,1.6,10.1,1.5,16.5,2C104.5,133.5,94.2,126,89.4,121.3L89.4,121.3z
		 M207,121.3c-4.9,4.7-15.1,12.1-22.1,14.8c6.3-0.5,13.5-0.3,16.5-2C205.7,131.8,207,121.3,207,121.3L207,121.3z M169.1,137.1
		c-0.2,0-0.3,0-0.5,0.1c-3.5,1.6-6.8,3.1-8.7,4c-0.7,0.3-0.9,1.3-0.3,1.8c1.7,1.7,4.9,3.4,8.8,0.4c2.1-1.6,2.1-3.9,1.8-5.4
		C170.1,137.5,169.6,137.1,169.1,137.1L169.1,137.1z M127.3,137.1c-0.5,0-1,0.4-1.1,0.9c-0.2,1.5-0.2,3.8,1.8,5.4
		c3.8,3,7.1,1.3,8.8-0.4c0.5-0.6,0.3-1.5-0.4-1.8c-1.8-0.8-5.3-2.4-8.7-4C127.7,137.2,127.5,137.1,127.3,137.1L127.3,137.1z
		 M144.3,145.2l-3.4,11c0,0-1.2,4.4-5.9,7.4l-2.1,9.1l5,6.8h5.4l-4.9-7.3l0.8-4.5c2.2,2.4,5.4,4,9,4c3.5,0,6.8-1.5,9-4l0.8,4.5
		l-4.9,7.3h5.4l5-6.8l-2.1-9.1c-4.8-3.1-5.9-7.4-5.9-7.4l-3.4-11l-3.9,1.9L144.3,145.2L144.3,145.2z M140.9,183.8l3.5,4.7h7.6
		l3.5-4.7H140.9L140.9,183.8z M223.7,193.4l-2.9,9.5l-0.8,2.6l10.8,3.2l2.7,0.8l2.6-8.4l6.7,2l-1.4,4.7l-2.9-0.9l-1.2,3.7l4,1.2
		l2.7,0.8l3.6-12.2l-2.7-0.6l-9-2.7l-2.7-0.8l-2.6,8.4L225,203l1.4-4.7l2.9,0.8l1.2-3.7l-4-1.2L223.7,193.4L223.7,193.4z M72.7,194
		l-23.9,8.2l1.2,3.7l15.1-5.2l-5.4,4.5l6.9,0.2l-15,5.2l1.2,3.7l23.9-8.2l-1.3-3.7l-6.9-0.2l5.4-4.5L72.7,194L72.7,194z M218.8,207
		l-2,3.6l4.6,6.3l-6.2-3.3l-1.8,3.5l22.3,11.9l1.8-3.5l-9.7-5.2l11.7,1.5l1.9-3.6l-16.1-2.1L218.8,207L218.8,207z M78.4,209.4
		L56,221.1l1.8,3.5l22.4-11.7C80.2,212.9,78.4,209.4,78.4,209.4z M82,216.3l-20.5,14.8l7.1,9.9l3.3-2.4l-4.8-6.8l17.2-12.3L82,216.3
		L82,216.3z M212.2,219.3l-7.9,9.9l2.2,1.8l17.4,13.9l1.7-2.1l6.2-7.8l-2.2-1.7l-3.7-3.1l-2.4,3.1l2.9,2.3l-3.1,3.9L210,228.8
		l3.1-3.9l2.8,2.2l2.4-3.1l-3.8-3L212.2,219.3L212.2,219.3z M88.7,225.6l-16.2,19.5l2.6,2.6l6.9-4.8l-4.7,7l2.6,2.6l19.3-16.4
		l-2.4-2.6l-8.2,6.7l5.9-9l-0.9-0.9l-8.9,5.9l6.5-8.2L88.7,225.6L88.7,225.6z M202.1,231.5l-3.1,2.5l13.8,16.1l-3.8,3.1L195.4,237
		l-3,2.6l16.1,19.4l2.2-1.9l5.5-4.6l2.1-1.7L202.1,231.5L202.1,231.5z M101.3,237.7L101.3,237.7L87.7,259L91,261l5.9-9.3l4.1,2.6
		l-5.9,9.3l3.3,2.1l11.5-17.9l1.3-2.1l0.7-1.2l0.1-0.1L101.3,237.7L101.3,237.7z M187.4,242.7l-8.7,4.7l12,22.1l8.7-4.7l1.1-3.7
		l-3.7-6.8l-2.2-1l0.4-2.5l-3.9-7.1L187.4,242.7L187.4,242.7z M102.3,243.2l4.1,2.6l-3.3,5.2l-4.1-2.6L102.3,243.2z M113.9,245.8
		l-9.2,23.4l2.7,1.1l6.8,2.6l2.6,1l9.1-23.5l-3.7-1.4l-7.6,19.7l-4.6-1.7l7.6-19.7L113.9,245.8L113.9,245.8z M188.4,246.8l2.9,5.4
		l-4.4,2.3l-2.9-5.4L188.4,246.8z M169.2,250.7l-12,2.3l4.9,24.7l12-2.3l-0.7-4l-8.2,1.6l-1.4-6.9l8.1-1.6l-0.7-3.9l-8.1,1.6
		l-1.2-5.9l8.1-1.6L169.2,250.7L169.2,250.7z M128.7,251l-4.4,24.9l3.9,0.7l1.9-10.9l2.2,11.5l4,0.7l-3-15.9l6.5-9.1l-4-0.7
		l-4.5,6.3l1.2-6.9L128.7,251L128.7,251z M154.5,253.3l-12.1,0.2l0.4,25.1l12.1-0.2l-0.1-4l-8.2,0.2l-0.1-7.1l8.2-0.2l-0.1-4
		l-8.2,0.2l-0.1-6.1l8.2-0.2L154.5,253.3L154.5,253.3z M193,255.7l3.4,6.2l-4.4,2.3l-3.4-6.2L193,255.7z"/>
</g>
</svg>
