<?xml version="1.0" encoding="utf-8"?>
<!-- Generator: Adobe Illustrator 23.0.6, SVG Export Plug-In . SVG Version: 6.00 Build 0)  -->
<svg version="1.1"
	 id="Layer_1" xmlns:cc="http://creativecommons.org/ns#" xmlns:dc="http://purl.org/dc/elements/1.1/" xmlns:rdf="http://www.w3.org/1999/02/22-rdf-syntax-ns#"
	 xmlns="http://www.w3.org/2000/svg" xmlns:xlink="http://www.w3.org/1999/xlink" x="0px" y="0px" viewBox="0 0 300 300"
	 style="enable-background:new 0 0 300 300;" xml:space="preserve">
<style type="text/css">
	.st0{fill:#9EA2A2;}
	.st1{fill:#0C2340;}
	.st2{fill:#236192;}
	.st3{fill:#78BE20;}
	.st4{fill:#FFFFFF;}
</style>
<ellipse class="st0" cx="150" cy="150" rx="149" ry="149"/>
<ellipse class="st1" cx="150.8" cy="149.8" rx="143.7" ry="143.7"/>
<path class="st2" d="M151.1,54.8c-7.3,0-14.5,0.8-21.5,2.3c-0.6,2.1-1.5,6.1-0.1,9.8c0.9,2.2,2.6,4,5,5.4c6.6-2.7,13.7-5.4,20.6-7.7
	c8.7-3.2,16.4-4.9,22.5-5.9c-0.2,0-0.3-0.1-0.5-0.1c-4.3-1.2-8.6-2.2-12.9-2.8C159.9,55.1,155.5,54.8,151.1,54.8L151.1,54.8z
	 M123,58.8C109.4,63,96.8,70.1,86.3,79.7c0.5,0,1,0,1.5,0c9-0.5,21.9-0.2,29.2,0.1c3.1-1.4,6.9-3,11-4.8c-1.8-1.7-3.2-3.7-4.1-6
	C122.5,65.4,122.5,61.8,123,58.8L123,58.8z M190.7,63.6l0,0.1c-0.3,0-20.3-0.5-45.1,11.5c-0.4,0.3-0.9,0.5-1.3,0.8
	c7.8,2.3,14.2,2.7,18.8,3.1c1.1,0.1,2,0.1,2.9,0.2l0.7,0.1c3,0.3,7.2,0.7,12.1,1.6c3.7-4.5,8.1-7.3,11.1-7.9
	c3.5,1.3,5.3,3.4,6.6,6.3c4.9,2,8.1,5.6,10.3,9.9c11.3,4.9,22.6,12.2,31.2,22.9C228.9,91.3,212.4,73.7,190.7,63.6L190.7,63.6z
	 M139.1,80.8c-2,2.3-3.7,4.7-5,6.7c2.6,2.7,7.5,7.8,9.9,10.6c4.2,2.5,8.4,5.3,12.6,8.2c6.7-7.5,12.6-13.6,18.4-19.7
	c-2.8-0.4-5.8-0.7-8.8-1l-0.8-0.1c-0.8-0.1-1.7-0.1-2.7-0.2C157.5,84.9,149.1,84.2,139.1,80.8L139.1,80.8z M86.1,85.8
	c-2.4,0-4.5,0.1-6.1,0.2c-7.9,8.7-14.3,19-18.6,30.5c9.7-10,24.2-20.7,40.4-17.6c1.3-2.3,2.6-4.5,3.8-6.6c-5.1-3.3-8.2-5.7-16.9-6.5
	C87.8,85.8,86.9,85.8,86.1,85.8L86.1,85.8z M209.3,96.8c2.9,12.9-0.4,27.6-0.4,27.6s7,4.1,8.7,11.8c0,0,0.9,0.4,1.7,1.5
	c2,2.4,4.5,8,0.4,18.9c0,0-2.4-5.1-7.5,0.4c-0.4,0.6-0.9,1.2-1.3,1.8c9.6,13.3,17,27.1,20.7,40.7c4.3-7,7.8-14.7,10.2-23
	c3.4-11.5,4.4-23.2,3.5-34.5C243,130.8,235,110,209.3,96.8L209.3,96.8z M120.9,99c-2.6,1.2-5.5,2.7-8.2,4.3
	c7.8,5.1,13.5,13.7,17.9,23.8c6.2-2.1,10.4-2.2,10.4-2.2c4.1-5.3,8-9.9,11.5-14.1c-4.1-2.9-8.3-5.6-12.5-8.1
	C135.5,101.1,124.6,99.6,120.9,99L120.9,99z M95.3,104.5c-17,0.6-31.9,18.3-38,26.5c-4.2,20.6-1.4,41.2,6.9,59.2
	c4.5-4.2,8.8-8.6,12.9-12.9c-0.3-13.7,1.5-26.8,5.5-39.4c3.4-10.5,7.9-19.5,12.7-26.9c0.7-1.4,1.9-3.7,3.4-6.3
	C97.5,104.5,96.4,104.4,95.3,104.5L95.3,104.5z M106.9,107c-1.5,1.1-2.8,2.1-3.9,3.2c-11.1,15.6-19,36-19.7,60.3
	c11.8-13,21.6-25.1,28.2-31.5c4.6-4.4,9.3-7.5,13.5-9.5C120.6,119.3,114.8,111,106.9,107L106.9,107z M207.4,164.6
	c-6.2,10.1-9.3,19.6-9.6,36.2c-0.2,9.1,4.3,16.1,7.6,27c8.3-5.8,15.6-13,21.8-21.3C224.5,192.9,217.3,178.5,207.4,164.6L207.4,164.6
	z"/>
<path class="st3" d="M189.6,77.3c-1.8-0.1-4.2,1.6-7.1,6.8c6.2-6.6,11.6-2.3,11.6-2.3C193.5,80.2,192,77.3,189.6,77.3z M132,78.6
	l-13.2,6.6c0,0-9.5-0.8-14.4-0.9c4.5,2.9,8.5,6.3,8.5,6.3l-5.8,9.7l12.5-6.8c0,0,7.9,1.3,15,2.8c-4.1-4.7-9.1-8.1-9.1-8.1L132,78.6
	L132,78.6z M137.3,135.6c-7.2,3.6-18,14.4-18,14.4c5.2-3.6,16.1-5.2,16.1-5.2C135.5,140.4,137.3,135.6,137.3,135.6L137.3,135.6z"/>
<path class="st0" d="M150.4,42.7c-53.3,0-98.9,39.8-106.2,92.6c-3,21.9,0.7,43.8,10.5,63.1c1.2-1,2.5-2.1,3.7-3.1
	c-9-18.2-12.4-38.7-9.6-59.3c7-50.5,50.6-88.6,101.5-88.6c4.7,0,9.4,0.3,14.1,1c27.1,3.7,51.2,17.8,67.7,39.7
	c16.6,21.9,23.6,48.8,19.9,75.9c-4.1,29.9-21.1,55.5-44.9,71.3c0.3,1.6,0.6,3.3,0.8,5c25.7-16.5,44.2-43.7,48.7-75.7
	c3.9-28.3-3.5-56.5-20.8-79.4c-17.3-22.9-42.5-37.6-70.8-41.5C160.3,43,155.3,42.7,150.4,42.7L150.4,42.7z M197.3,87.2
	c0.2,0.7,0,3-0.2,4.9c0,0,0,0,0,0c-4.3,0.8-13.8-0.3-16.8-1.9c-11.6,12.5-24.3,29.9-33.9,45.8c-4.1,8.4-8.2,18.3-9.2,26.4
	c0,0-1.3-3.6-1.6-8.5c-5.3,2-23.3,10.9-27.1,38c0,0,11.4-11.8,24.1-16.4c0,0-8,20.9,7.3,58.1c0,0,6.2-22.8,19.1-28.5
	c7.8,38.9,30.8,39.5,37.5,65.9c0,0,7-13.7-1.4-37c0,0,2.9,0.8,5.4,3.7c0,0-0.4-6.8-6.8-21.5c-4.1-7.9-5.5-18.5-5.5-18.5
	c-3.7,3.4-4.7,14.8-4.7,14.8c-11.4-30.9,20.9-61.5,26.8-66c2.9-2.2,4.7-2.2,5.7-1.7c1.1-2.3,1-3.8-0.3-4.7c0,0-0.6-0.4-0.7-0.4
	c-3.4-1.8-9.6,3.5-13.6,5.7c-4,2.2-9.9,6.9-12.7,0.4c-2.9-6.5,3.7-16.6,6-23c5-14.1,5.2-22.4,4.1-26.9c4.6,5.2,6.1,15.3,6.1,15.3
	S206.5,92.1,197.3,87.2L197.3,87.2z M96.8,194.8c0,0-21.6,15.8-43.6,17.1c0,0,21.8,5.1,31,1.4c-0.9-0.6-1.9-1.4-2.9-2.7
	c0,0,8.9-5.7,15.4-15.6C96.7,194.9,96.8,194.9,96.8,194.8L96.8,194.8z"/>
<path class="st4" d="M161.8,16.1l-0.5,4l5,0.7l-1.9,14.1l4.1,0.5l1.9-14.1l5,0.7l0.5-4L161.8,16.1L161.8,16.1z M126.9,17.7l-0.6,0.1
	l-5.1,19.5l4.4-0.8l2.5-9.6l5.6,8.2l4.5-0.8L126.9,17.7L126.9,17.7z M187.5,21l-5.2,17.5l3.9,1.2l5.2-17.5L187.5,21L187.5,21z
	 M108.5,21.9l-13.2,5.3l1.5,3.7l4.7-1.9l5.3,13.2l3.8-1.5l-5.3-13.2l4.7-1.9L108.5,21.9L108.5,21.9z M205.2,26.9l-8.5,16.3l3.6,1.9
	l3.9-7.5l1.9,7l0.5,0.2l6.8-2.5l-3.9,7.5l3.6,1.9l8.5-16.3l-0.6-0.3l-12,4.4l-3.2-12.3l0-0.1L205.2,26.9L205.2,26.9z M82.7,35.3
	c-5.2,0-9.4,4.2-9.4,9.4s4.2,9.4,9.4,9.4c5.2,0,9.4-4.2,9.4-9.4S87.9,35.3,82.7,35.3z M82.7,39.6c2.8,0,5.1,2.3,5.1,5.1
	c0,2.8-2.3,5.1-5.1,5.1s-5.1-2.3-5.1-5.1C77.6,41.9,79.9,39.6,82.7,39.6z M233.7,44.5l-2.7,3.1l-1.8,2.1l-0.1,0.2l-2.5,2.9l-2.2,2.5
	l-2.7,3.1l3.1,2.7l2.7,2.3c1.2,1,2.5,1.6,4,1.6c1.7,0.1,3.3-0.7,4.4-1.9c1-1.1,1.4-2.5,1.3-4c1-0.3,2-0.9,2.7-1.7
	c1.1-1.3,1.6-2.9,1.3-4.6c-0.2-1.3-1-2.5-2.2-3.5l-2.3-2L233.7,44.5L233.7,44.5z M234.1,50.2l2.3,2c1,0.8,1.1,1.6,0.4,2.4
	c-0.8,0.9-1.8,0.4-2.5-0.2l-2.1-1.9L234.1,50.2L234.1,50.2z M60.9,52.4l-0.4,0c-2,0.1-4,1.1-5.7,3c-1.1,1.2-1.8,2.6-1.9,4
	c-0.2,1.6,0.4,3.1,1.7,4.3c2,1.8,4.3,1.9,7.1,0.4l2-1.1c1-0.6,1.7-0.8,2.2-0.3c0.7,0.6,0.5,1.4-0.5,2.5c0,0,0,0,0,0
	c-1.3,1.4-2.7,1.5-3.7,1.4l-0.3,0L61,71.2l0.4,0c1.5,0.1,4.5-0.2,7.3-3.3c0,0,0.1-0.1,0.1-0.1c1.4-1.6,2.2-3.2,2.3-4.7
	c0.1-1.6-0.6-3-1.9-4.3c-2-1.9-4.2-1.9-7.4-0.1l-2.2,1.2c-0.8,0.5-1.3,0.5-1.7,0.1c-0.5-0.5-0.4-1.2,0.3-2c0,0,0,0,0,0
	c0.8-0.9,1.7-1.3,2.7-1.4l0.4,0L60.9,52.4L60.9,52.4z M229.6,55.4l2.5,2.2c1,0.9,1.3,2,0.6,2.7c-0.7,0.7-1.7,0.7-2.6-0.1l-2.7-2.3
	L229.6,55.4L229.6,55.4z M253.3,63.4L239,74.7l7.7,9.7l3.2-2.5l-5.1-6.5l2.4-1.9l4.4,5.6l3.2-2.5l-4.4-5.6l2.4-1.9l5.1,6.5l3.2-2.5
	L253.3,63.4L253.3,63.4z M42.6,69.5l-6.9,10.3l15.2,10.1l6.9-10.3l-3.4-2.3l-4.6,6.9l-2.5-1.7l4-5.9l-3.4-2.3l-4,5.9l-2.5-1.7
	l4.6-6.9L42.6,69.5L42.6,69.5z M268.3,85L251.9,93l1.8,3.7l7.6-3.7l-5.2,8.6l2.2,4.4c0,0,3.7-6.3,4-6.7c1.6,1.7,4.1,1.9,6.4,0.8
	c3.4-1.7,4.5-5.1,2.6-8.9L268.3,85L268.3,85z M266.5,90.4l1.2,2.3c0.8,1.7,0.4,2.8-1,3.6c-1.5,0.7-2.7,0.4-3.5-1.3l-1.2-2.3
	L266.5,90.4L266.5,90.4z M28.5,93l-1.6,3.8l8.8,3.6l-12.8,5.9l-0.2,0.6l17,7l1.5-3.8l-8.8-3.6l12.9-5.9l0.2-0.6L28.5,93L28.5,93z
	 M278.5,107.3l-16.3,10.8l0.2,0.6l11,2.5l-8.6,7.2l0.2,0.6l19.4,2.2l-1-4.2l-9.4-1.1l7.7-6.5l-0.1-0.6l-9.8-2.3l7.8-5.2L278.5,107.3
	L278.5,107.3z M18.6,122.1l-0.6,4.1l9.4,1.5l-11.1,8.7l-0.1,0.7l18.2,2.8l0.6-4l-9.4-1.5l11.2-8.7l0.1-0.7L18.6,122.1L18.6,122.1z
	 M209.6,130.6c0.9,1.4,0.9,3.3,0.8,4.5c1.2-0.3,2.1-0.3,2.8-0.3c-0.2-0.6-0.6-1.4-1.2-2.2C211,131.5,209.6,130.6,209.6,130.6
	L209.6,130.6z M200.1,132.4c1,3,0.8,6,0.5,7.6c1.4-1,2.7-1.8,3.8-2.4c-0.2-0.5-0.5-1.2-1-2.1C202.5,133.9,200.1,132.4,200.1,132.4
	L200.1,132.4z M275.9,141.3c-5.2,0-9.4,4.2-9.4,9.4c0,5.2,4.2,9.4,9.4,9.4c5.2,0,9.4-4.2,9.4-9.4
	C285.3,145.5,281.1,141.3,275.9,141.3z M275.9,145.6c2.8,0,5.1,2.3,5.1,5.1c0,2.8-2.3,5.1-5.1,5.1c-2.8,0-5.1-2.3-5.1-5.1
	C270.8,147.9,273.1,145.6,275.9,145.6z M34.1,150.9l-18.2,0.4l0.1,4.1l18.2-0.4L34.1,150.9L34.1,150.9z M34.9,166l-18,3.8l0.1,0.6
	l11,6.5l-7.4,10.3l-0.1,0.1l0.1,0.6l18-3.8l-0.8-4l-8.3,1.8l4.2-5.9l-0.1-0.5l-6.2-3.7l8.3-1.8L34.9,166L34.9,166z M265.5,169.6
	l-2.8,11.8l4,0.9l1.8-7.8l13.7,3.2l0.9-4L265.5,169.6L265.5,169.6z M278.7,192.4l-20.2,0.9l-0.2,0.6l14,14.6l1.7-4.2l-6.8-7.2
	l9.9-0.5L278.7,192.4L278.7,192.4z M251.6,207.8l-6.6,10.5l3.4,2.2l4.4-7l2.6,1.6l-3.8,6l3.4,2.2l3.8-6l2.5,1.6l-4.4,7l3.4,2.2
	l6.6-10.5L251.6,207.8L251.6,207.8z M242.4,227.2c-0.3,0-3.2,0-5.2,1c-1,0.5-2,1.2-2.7,1.9c-1,1-1.6,2.1-1.9,3.3
	c-0.5,2,0.1,4.1,1.5,5.5c1.4,1.3,3.4,1.7,5.3,1.1c0.6-0.2,1.4-0.6,2.2-1c1-0.5,2.5-1.3,3.2-1.3c1.7-0.1,1.6,2.3-0.5,3.4
	c-0.8,0.4-2.2,0.8-2.9,0.9l0.5,4.1c0.3,0,2.8-0.4,4.5-1.5c3-1.9,3.6-4.2,3.7-5.5c0.1-1.2-0.4-2.9-1.7-4.2c-1.1-1-2.5-1.5-4.1-1.4
	c-1.4,0.1-3.1,1-4.6,1.7c-0.7,0.3-1.3,0.6-1.7,0.8c-0.5,0.1-0.8,0.1-1.1-0.2c-0.3-0.3-0.5-0.8-0.4-1.4c0.3-1,1.2-1.9,2.5-2.5
	c0.9-0.4,2.6-0.6,3.4-0.6L242.4,227.2L242.4,227.2z"/>
</svg>
