<?xml version="1.0" encoding="utf-8"?>
<!-- Generator: Adobe Illustrator 23.0.6, SVG Export Plug-In . SVG Version: 6.00 Build 0)  -->
<svg version="1.1"
	 id="Layer_1" xmlns:cc="http://creativecommons.org/ns#" xmlns:dc="http://purl.org/dc/elements/1.1/" xmlns:rdf="http://www.w3.org/1999/02/22-rdf-syntax-ns#"
	 xmlns="http://www.w3.org/2000/svg" xmlns:xlink="http://www.w3.org/1999/xlink" x="0px" y="0px" viewBox="0 0 300 300"
	 style="enable-background:new 0 0 300 300;" xml:space="preserve">
<style type="text/css">
	.st0{fill:none;}
	.st1{fill:#B4975A;}
	.st2{fill:#002B5C;}
	.st3{fill:#FFFFFF;}
	.st4{fill:#E31837;}
</style>
<g>
	<path class="st0" d="M123.6,71.5c-6.6-3-14.3-2-19.9,2.6c6.5-1,13.5-1.7,20.5-2.3C124,71.6,123.7,71.6,123.6,71.5z"/>
	<path class="st0" d="M176.6,71.5c-0.3,0.1-0.4,0.1-0.6,0.3c7,0.4,13.8,1.3,20.5,2.3C190.9,69.4,183.1,68.4,176.6,71.5z"/>
	<path class="st1" d="M176.6,71.5c6.6-3.1,14.3-2.1,19.9,2.6c-6.7-1-13.5-1.9-20.5-2.3C176.1,71.6,176.3,71.6,176.6,71.5z
		 M123.6,71.5c0.1,0.1,0.4,0.1,0.6,0.3c-7,0.6-13.9,1.3-20.5,2.3C109.3,69.5,117,68.5,123.6,71.5z M77.6,223.6c2,0,2.5-0.6,5-1.1
		c-1.6,1.2-2,1.3-3.7,2.6c0-0.1,25.8,6.6,39.7,0.5c0.5-0.3,1-0.5,1.6-0.7c2.8,10,13.9,18.9,24.2,20.4c16.8,2.4,31.1-4.5,35.5-20.4
		c0.5,0.2-0.2-0.8,0.2-0.5c14.1,6.1,41.1-0.6,41.1-0.5c-1.7-1.3-2.1-1.4-3.9-2.6c5.9,0.8,7.4,0.3,11.3-0.3c9.8-1.4,14.6-6.2,16.4-8
		l-2.8-1.2c6.9-1,9.1-3.3,14.1-8.2l-1.6-0.9c11.2-2,17-11.3,17-11.3l-1.6-0.7c8.3-1.7,13.5-10.3,13.5-10.3l0.6-0.7
		c8.8-3.7,14.7-12.2,14.8-21.8v-10.7c0-2.6-0.5-5.2-1.5-7.7l1,0.3V123c-0.1-2.7-0.5-5.3-1.5-7.8c-0.9-2.6-2.2-5.1-3.9-7.3
		c-1.5-2-3.3-3.8-5.2-5.4c-1.7-1.4-3.6-2.6-5.7-3.5c-1.3-0.9-3.9-2.2-10.9-4.8c-5.8-2.3-15.4-5.9-27.6-9.6
		c-13.7-4-27.6-7.3-41.6-9.7c-0.1-0.1-10.9-13.6-27-6.7c-0.6,0.3-1.2,0.6-1.7,0.9c-2.6,1.6-5.7,2-8.6,1c-2.5-0.6-5.5-2.2-4.2-7.5
		c0.4-1.5,1.4-2.8,2.8-3.6c1-0.6,2.1-0.7,3.2-0.4c2.2,0.6,3.2,1.9,2.8,3.6c-0.1,0.7-0.5,1.3-1.2,1.6c-0.7,0.3-1.6,0.1-2.2-0.4
		c-0.8-0.5-1.9-0.3-2.5,0.4c-0.5,0.8-0.3,1.8,0.4,2.3c1.6,1.3,3.7,1.6,5.5,0.9c1.7-0.9,2.9-2.4,3.3-4.2c0.1-1.3,0.4-5.8-5.2-7.4
		c-2-0.7-4.2-0.4-5.9,0.7c-2.2,1.3-3.8,3.4-4.4,5.8V62c-0.5-0.7-1.1-1.4-1.7-2l-5.7-5.7l-5.5,5.7c-0.6,0.6-1.2,1.3-1.7,2v-0.1
		c-0.7-2.4-2.2-4.5-4.4-5.8c-1.8-1.2-4-1.4-5.9-0.7c-5.8,1.6-5.4,6.1-5.2,7.4c0.4,1.9,1.6,3.4,3.3,4.2c1.8,0.7,3.9,0.4,5.4-0.9
		c0.8-0.5,1.1-1.5,0.6-2.3c0,0,0,0,0,0c-0.6-0.8-1.7-1-2.5-0.4c-0.6,0.5-1.4,0.7-2.2,0.4c-0.7-0.3-1.1-0.9-1.3-1.6
		c-0.3-1.7,0.6-2.9,2.8-3.6c1.1-0.3,2.3-0.1,3.3,0.4c1.3,0.8,2.3,2.1,2.8,3.6c1.3,5.4-1.9,7-4.2,7.5c-4.2,1.2-6.2,0.1-8.7-1
		c-0.5-0.3-1-0.6-1.6-0.9c-16.1-6.8-26.8,6.5-27,6.7l-0.1,0.1c-13.5,2.3-26.9,5.4-40,9.3c-13.1,3.8-25.9,8.5-38.3,14.1l-2.3,1v0.3
		c-0.9,0.3-1.9,0.6-2.9,1c-3.6,1.6-7.1,3.3-10.6,5.1L1,107.1v9.3c-0.1,1.9,0.4,3.8,1.3,5.5c0.2,0.3,0.4,0.5,0.6,0.9V133
		c-1.1,2-1.7,4.3-1.7,6.7c-0.1,2.1,0.5,4.1,1.7,5.8v21.2l0.3,0.6c2.5,6.1,7.4,10.8,13.5,13.1l-0.3,0.1c0,0,5.4,8.6,13.5,10.3
		l-1.6,0.7c4,5.8,10.2,9.9,17.1,11.3l-1.7,0.9c5.1,4.9,7.8,6.1,14.2,8.2l-5.1,2.9C54.4,217.7,75.6,223.6,77.6,223.6z"/>
	<g>
		<path class="st2" d="M239.9,212.8l-5-2.6c6.2-0.3,12.2-2.8,16.8-7c0,0-2-1-5.2-2.6c13.9,0.3,20.3-8.6,20.3-8.7
			c-2.2-1.2-4.4-2.2-6.5-3.2c13.2,1.3,18.7-7.7,18.7-7.8c-1.9-1-3.6-1.9-5.5-2.8c3.9,0.2,7.7-0.7,11-2.6c7-3.9,10.9-11.2,10.9-17.6
			v-10.7c0-7-5.5-14.9-5.5-14.9l4.9,2V123c0-2.2-0.4-4.4-1.2-6.5c-0.8-2.2-1.9-4.3-3.3-6.2c-1.4-1.7-3-3.3-4.6-4.8
			c-1.6-1.2-3.4-2.3-5.2-3c-1-0.7-3.5-2-10.3-4.6c-5.8-2.3-15.2-5.8-27.4-9.4c-19.9-5.9-49.8-12.9-81.1-13.5
			c-0.7-2.2-2.6-3.7-4.8-4.2c-0.3-3-1.7-5.9-3.9-8l-2.9-2.9l-2.9,2.9c-2.1,2.2-3.4,5-3.8,8c-2.3,0.4-4.2,2-4.9,4.2
			c-30.6,0.6-60.1,7.4-79.6,13.2c-12.9,3.8-25.5,8.4-37.9,13.8v2.3c-0.2-0.1-0.3-0.2-0.4-0.3c-0.6-0.2-1.2-0.3-1.9-0.3
			c-0.9,0-1.9,0.2-2.8,0.6c-3.5,1.6-7,3.3-10.4,5.1l-0.6,0.3v7c0,1.3,0.3,2.5,0.9,3.6c0.3,0.5,0.6,0.9,1,1.3v12.5
			c-1.1,1.7-1.7,3.7-1.7,5.8c-0.1,1.6,0.5,3.2,1.7,4.4v21.9c2.5,5.8,7.6,10.1,13.8,11.6c0.3,0,0.5,0,0.7,0.1h0.1
			c1.8,0.4,3.6,0.5,5.4,0.4c-1.9,0.9-3.6,1.7-5.5,2.8c0,0.1,5.5,9.1,18.7,7.8c-2.2,1-4.4,2-6.5,3.2c0,0.1,6.2,9,20.2,8.7
			c-3.2,1.6-5.1,2.6-5.1,2.6c4.6,4.2,10.6,6.7,16.8,7l-4.9,3.5l14.8,5.4c5.6,1.8,10.1-0.7,15.9-1.4c-1.6,1.2-3.2,2.5-4.9,3.8
			c0-0.1,19.7,5.4,33.7-0.7c0.5-0.3,1-0.5,1.6-0.7h57.3c0.5,0.2,1,0.4,1.5,0.7c14.1,6.1,33.8,0.6,33.8,0.7c-1.7-1.3-3.3-2.6-5.1-3.8
			c5.9,0.8,16.4,0.8,21,0C234.5,216.9,238.3,214.7,239.9,212.8z"/>
	</g>
	<path class="st3" d="M141.9,83.3c-1.5-0.7-2.7-2-3.3-3.5c-49.5,1.2-98.9,19-98.8,19.7c-1.8,0.5-3.1,2.1-3.3,3.9v1.7
		c33.7-13.2,69.3-20.3,105.5-21.2V83.3z"/>
	<path class="st3" d="M263.5,100.8c0.1-0.7-51.8-19.7-101.8-20.9c-0.7,1.5-1.9,2.7-3.3,3.5v0.7c37.2,1.1,73.9,8.7,108.5,22.3v-1.7
		C266.5,102.9,265.2,101.3,263.5,100.8z"/>
	<path class="st4" d="M155.5,74.5c-3.2-0.4-3.8,4.1-3.9,5.7h-1c0.1-4.4,2.2-6.1,2.2-9s-2.8-5.7-2.8-5.7s-2.6,2.8-2.6,5.7s2,4.6,2,9
		h-1c0-1.6-0.6-6.1-3.8-5.7c-3.5,0.3-3,5.2,0,5.5c0,0-0.6-2.2,1.2-2.2c1.2,0,1.6,1.6,1.6,2.3h-1.5v1.7h3.3c-0.2,0.9-0.8,1.6-1.6,2
		c0.3,0.5,0.8,0.9,1.5,1c0,0.8,0.3,1.5,0.9,2c0.5-0.5,0.8-1.3,0.9-2c0.6-0.1,1.2-0.5,1.6-1c-0.8-0.4-1.4-1.1-1.6-2h3.3v-1.7h-1.5
		c0-0.7,0.3-2.3,1.6-2.3c1.7,0,1.2,2.2,1.2,2.2C158.6,79.7,159,74.8,155.5,74.5z"/>
	<path class="st3" d="M133.8,124.4c0,0.7-0.1,1.4-0.4,2c-0.3,0.5-0.7,0.9-1.2,1.3c-0.4,0.3-0.9,0.6-1.5,0.7c-0.5,0.3-1,0.4-1.6,0.4
		c-0.6,0-1.2,0-1.7-0.1c-0.5-0.1-1-0.3-1.5-0.6c-0.5-0.3-0.9-0.8-1.2-1.3c-0.3-0.6-0.5-1.2-0.4-1.9V98.1c0-0.7,0.1-1.3,0.4-1.9
		c0.3-0.5,0.7-1,1.2-1.5c0.5-0.3,0.9-0.6,1.5-0.9c0.6-0.2,1.2-0.3,1.7-0.3c0.5,0,1.1,0,1.6,0.1c0.5,0.1,1,0.3,1.5,0.6
		c0.5,0.3,0.9,0.8,1.2,1.3c0.3,0.6,0.5,1.2,0.4,1.9V124.4z M139.7,107.9V97.1c0-1.4-0.3-2.7-0.9-3.9c-0.5-1.1-1.3-2-2.3-2.6
		c-0.9-0.8-2.1-1.3-3.3-1.5c-1.3-0.3-2.7-0.4-4.1-0.3c-1.4,0-2.9,0.2-4.2,0.7c-1.2,0.4-2.3,1.1-3.3,1.9c-1,0.8-1.8,1.9-2.3,3
		c-0.6,1.2-0.9,2.6-0.9,3.9v10.7c-1.1,0.3-1.9,1.3-1.9,2.5c0,1.1,0.8,2,1.9,2.2v11.9c0,1.4,0.3,2.7,0.9,3.9c0.6,1,1.4,1.9,2.3,2.6
		c1,0.6,2.2,1.1,3.3,1.3c1.4,0.3,2.8,0.3,4.2,0.1c1.4,0,2.8-0.3,4.1-0.7c1.2-0.4,2.3-1,3.3-1.7c1-0.8,1.8-1.8,2.3-2.9
		c0.6-1.2,0.9-2.6,0.9-3.9v-12c1.2-0.2,2-1.1,2-2.3C141.8,108.9,140.9,107.9,139.7,107.9z"/>
	<path class="st3" d="M26.1,136.7c0,0,0,0.1-0.1,0v-0.1c-0.3-0.4-7.3-23.9-7.7-25c-0.3-1-0.6-1.6-0.6-1.7c-0.1-0.3-0.2-0.5-0.4-0.7
		c-0.3,0-0.7,0-1,0.1c-2.2,1-4.2,2-6.4,3v2c0,0.5,0.1,1,0.3,1.5c0.3,0.3,0.4,0.6,0.7,0.6c0.3,0.2,0.7,0.3,1,0.3v17.8
		c-1.1,0.7-1.8,1.8-1.9,3c-0.1,0.8,0.5,1.5,1.2,1.5c0.2,0,0.4,0,0.6-0.1v25.2c1.6-0.9,3.2-1.6,4.8-2.5v-31.5c0-0.2,0-0.3,0.1-0.4
		c0,0.1,0,0.1,0.1,0.1c0.1,0.6,0.3,1.2,0.6,1.7c0.3,1,7.3,23.9,7.3,24.2c0.1,0.5,0.3,0.9,0.6,1.3c0.3,0.4,0.6,0.4,1,0.3
		c1.2-0.6,2.3-1,3.3-1.5c0.5-0.1,0.8-0.4,1-0.9c0.2-0.3,0.4-0.7,0.4-1.2v-23.8c0.9-0.6,1.5-1.6,1.6-2.8c0.1-0.8-0.5-1.5-1.3-1.6
		c-0.1,0-0.2,0-0.3,0v-17.6c0-0.3,0-0.5,0.1-0.7c0.1-0.3,0.3-0.4,0.4-0.7c0.4-0.4,0.6-0.8,0.9-1.3c0.3-0.6,0.4-1.2,0.4-1.9v-1.6
		c-2.3,0.9-4.6,1.9-7,2.9L26.1,136.7z"/>
	<path class="st3" d="M260,137c0,0.1,0,0.1-0.1,0.1c0-0.1-0.1-0.2-0.1-0.3l-0.9-3.5c-0.4-1.6-1-3.6-1.6-5.8
		c-0.6-2.3-1.3-4.6-1.9-7.1c-0.7-2.5-1.3-4.6-1.9-6.7c-0.6-2.2-1.2-3.8-1.5-5.2c-0.4-1.5-0.6-2.2-0.6-2.2c-0.1-0.4-0.3-0.8-0.6-1.2
		c-0.1-0.3-0.6-0.4-1-0.6c-2.2-0.7-4.4-1.5-6.5-2.2v2c-0.1,0.5,0,1.1,0.3,1.6c0.2,0.4,0.4,0.9,0.6,1.3c0.3,0.3,0.7,0.6,1,0.9v13.9
		c-0.9-0.1-1.7,0.5-1.9,1.4c0,0.1,0,0.2,0,0.4c0.1,1.2,0.8,2.2,1.9,2.8v20.5c1.7,0.6,3.5,1,5.2,1.6v-28.3c0,0.1,0,0.1,0.1,0.3
		c0.2,0.7,0.3,1.4,0.6,2c0.3,1.5,0.9,3,1.5,5.1c0.6,2,1.2,4.4,1.9,6.7c0.6,2.5,1.3,4.6,1.9,6.8c0.6,2,1,3.9,1.5,5.4
		c0.2,0.9,0.5,1.8,0.9,2.6c0.1,0.7,0.3,1.3,0.6,1.9c0.2,0.5,0.5,0.8,1,1c1.2,0.4,2.2,0.9,3.3,1.3c0.4,0.1,0.9,0.1,1-0.1
		c0.3-0.2,0.4-0.5,0.4-0.9v-18.9c0.8,0,1.6-0.6,1.6-1.4c0-0.1,0-0.1,0-0.2c-0.1-1.1-0.7-2.2-1.6-2.9v-13.5c0-0.4,0-0.6,0.1-0.7
		c0.1-0.1,0.3-0.2,0.4-0.3c0.8-0.4,1.3-1.3,1.3-2.2v-1.6c-2.3-1-4.6-1.9-7-2.6V137z"/>
	<path class="st3" d="M289.1,141.5c-0.7-1.6-1.6-3.1-2.6-4.5c-0.9-1.3-1.9-2.5-2.9-3.6c0.1-0.1,0.1-0.3,0.1-0.6
		c-0.1-1.4-0.9-2.7-2.2-3.3c-0.5-0.1-1-0.1-1.5,0c-0.1-0.3-0.3-0.5-0.6-0.7c-1-1.2-1.9-2.2-2.6-3.2c-0.6-0.8-1-1.8-1-2.8v-9.3
		c0-0.4,0.1-0.7,0.3-1c0.3-0.3,0.7-0.3,1-0.4h1.3c0.4,0.1,0.9,0.3,1.3,0.4c0.5,0.2,0.9,0.4,1.3,0.7c0.4,0.3,0.9,0.7,1.3,1
		c0.4,0.4,0.7,0.8,1,1.3c0.2,0.4,0.3,1,0.3,1.5v2.2c0.1,1,0.4,2,1,2.8c0.5,0.9,1.4,1.7,2.3,2.2c0.9,0.3,1.8,0.7,2.6,1.2v-4.4
		c0-1.4-0.3-2.9-0.7-4.2c-0.6-1.4-1.3-2.6-2.2-3.8c-0.9-1.2-1.9-2.2-3-3.2c-1.2-0.9-2.4-1.6-3.8-2.2c-1.2-0.7-2.5-1.1-3.9-1.3
		c-1-0.1-2.1,0-3,0.3c-0.9,0.4-1.6,1-2,1.9c-0.5,1.2-0.8,2.5-0.7,3.8v7.7c0,1.6,0.3,3.2,1,4.6c0.7,1.4,1.6,2.8,2.6,4.1
		c1,1.3,2.1,2.6,3.3,3.8c0,0.3-0.1,0.6-0.1,0.9c0.1,1.4,0.9,2.7,2.2,3.3c0.6,0.3,1.3,0.3,1.7-0.1c0.9,1.1,1.7,2.3,2.5,3.5
		c0.6,1.2,1,2.5,1,3.8v11c0,0.6-0.1,1-0.4,1.2c-0.3,0.3-0.7,0.5-1.2,0.6c-0.5,0.1-1,0.2-1.5,0.1c-0.4-0.1-1-0.3-1.5-0.4
		c-0.6-0.3-1.1-0.6-1.6-1c-0.5-0.3-1-0.7-1.5-1.2c-0.4-0.5-0.7-1-1-1.6c-0.3-0.4-0.4-0.9-0.4-1.5v-2.6c0-0.8-0.3-1.6-0.7-2.3
		c-0.6-0.8-1.4-1.4-2.3-1.7c-1-0.4-1.9-0.7-2.8-1.2v4.5c0,1.4,0.3,2.9,0.9,4.2c0.5,1.3,1.2,2.6,2.2,3.6c0.9,1.2,2,2.2,3.2,3
		c1.3,0.9,2.7,1.6,4.1,2.3c1.2,0.6,2.6,1,3.9,1.2c1,0.3,2.1,0.3,3.2,0c1-0.3,1.8-0.9,2.3-1.7c0.5-1.1,0.8-2.3,0.7-3.5v-10.6
		C290.1,144.6,289.8,143,289.1,141.5z"/>
	<path class="st3" d="M90.8,116.1c-0.3,2-0.6,4.1-0.7,6.1c-0.3,2-0.6,3.8-0.7,5.4c-0.1,1.6-0.3,2.9-0.4,3.8c-0.1,0.5-0.2,1-0.3,1.5
		c-0.4-2.8-0.9-5.2-1.3-7.4c-0.3-2.2-0.7-4.6-1.2-7.4c-0.4-2.6-1-5.4-1.5-8c-0.4-2.6-0.9-5.1-1.3-7.3c-0.4-2.2-0.9-4.1-1.2-5.4
		c0-0.3-0.4-0.6-1-0.7c-0.7-0.1-1.4-0.1-2,0c-0.6,0.2-1.3,0.4-1.9,0.7c-0.5,0.3-1,0.8-1.2,1.5c-0.4,1.9-0.8,3.8-1,5.7
		c-0.4,2.5-0.9,5.1-1.5,7.8c-0.4,2.9-0.9,5.8-1.3,8.7c-0.4,2.9-0.9,5.7-1.3,8c-0.3,2.5-0.7,5.1-1.2,8.1c-0.1,0-0.1-0.4-0.3-1.3
		c-0.1-0.9-0.3-2.2-0.4-3.6c-0.3-1.5-0.4-3.2-0.7-5.1c-0.1-1.9-0.4-3.8-0.7-5.8c-0.4-4.6-2.5-21.3-2.5-21.3
		c-2.3,0.7-4.8,1.5-7.1,2.2v1.7c0,0.5,0.1,1,0.4,1.5c0.2,0.3,0.5,0.6,0.9,0.7c0.1,0.1,0.4,0.1,0.6,0.3c0.1,0.3,0.1,0.4,0.3,0.7
		c0.6,4.8,1,9.1,1.6,13.1c-0.9,0.6-1.4,1.6-1.5,2.6c-0.1,0.9,0.6,1.7,1.5,1.8c0.1,0,0.2,0,0.4,0c0,0.1,0.1,0.1,0.1,0.1c0,0,0,0,0,0
		c0.1,2.3,0.4,4.5,0.7,6.5c0.3,2.2,0.4,4.1,0.7,5.8c0.1,1.6,0.4,3,0.6,4.1c0,0.6,0.1,1.2,0.1,1.7c0,0.3,0.2,0.6,0.4,0.7
		c0.1,0.3,0.4,0.3,0.9,0.3c2.2-0.6,4.4-1.3,6.7-1.7c0.4-0.1,0.8-0.4,1-0.7c0.2-0.4,0.4-0.8,0.6-1.2c1.7-10,3.3-19.9,5.1-29.9
		c1.6,9.1,3.2,18.4,4.9,27.6c0.2,0.4,0.4,0.7,0.6,1c0.3,0.1,0.7,0.2,1,0.1c2.3-0.4,4.5-0.9,6.7-1.3c0.4-0.1,0.7-0.3,1-0.6
		c0.1-0.3,0.2-0.7,0.3-1c0-0.1,0.1-0.7,0.3-1.9c0.1-1,0.3-2.5,0.6-4.4c0.1-1.7,0.4-3.8,0.6-5.9c0.3-2.3,0.6-4.6,0.9-7v-0.3
		c1.2-0.3,2-1.4,2-2.6c0-0.9-0.6-1.6-1.5-1.7c0.4-4.4,1-8.8,1.6-13.9c0-0.3,0.1-0.6,0.3-0.9c0.1-0.1,0.4-0.3,0.6-0.6
		c0.4-0.3,0.7-0.6,0.9-1c0.3-0.5,0.4-1.1,0.4-1.7v-1.7c-2.5,0.3-4.8,0.7-7.3,1.2C93.3,93.6,91.2,111.2,90.8,116.1z"/>
	<path class="st3" d="M232,126.9c-0.2,0.1-0.4,0.1-0.6,0l-5.7-1.3c-0.1-0.1-0.4-0.3-0.6-0.4c-0.1-0.2-0.2-0.5-0.1-0.7
		c0-0.3,0.1-0.7,0.1-1c0.2-0.8,0.3-1.5,0.4-2.3c0.1-0.9,0.3-1.9,0.4-3.2c0.3-1.2,0.4-2.3,0.7-3.6c0.6-3.2,1.2-6.5,1.7-9.7h0.1
		c0.6,3.6,1.2,7.1,1.7,10.7c0.3,1.3,0.5,2.6,0.6,3.9c0.3,1.3,0.4,2.5,0.6,3.5c0.1,1,0.3,1.9,0.4,2.5c0.1,0.3,0.1,0.7,0.1,1
		C232.2,126.4,232.1,126.7,232,126.9z M237.9,122.2c-0.1-1.2-0.8-2.2-1.9-2.8c-0.3-1.6-0.6-3.2-0.9-4.8c-0.4-2.3-0.7-4.2-1-6.1
		c-0.3-1.7-0.6-3.2-0.7-4.4c-0.1-1.2-0.3-1.7-0.3-2c-0.1-0.7-0.4-1.4-0.9-2c-0.6-0.7-1.3-1.2-2.2-1.5c-2.8-0.6-5.4-1.3-8-1.9v1.3
		c0,1.7,0.4,2.9,1.5,3.5c0.3,0.1,0.3,0.3,0.3,0.6v0.9c-0.1,0.5-0.2,1-0.3,1.5c-0.1,0.9-0.4,2-0.7,3.5c-0.3,1.5-0.6,3-1,4.9
		c-0.1,0.9-0.3,1.9-0.4,2.8c-1-0.3-2,0.3-2.2,1.2c-0.1,0.2-0.1,0.3-0.1,0.5c0,1,0.6,2,1.5,2.5c-1.2,5.8-3.8,19.7-3.8,19.7
		c1.9,0.3,3.8,0.7,5.5,1.2c0,0,1.7-9.4,1.7-9.7c0.1-0.7,0.4-1,1-0.9c2.3,0.6,4.5,1.2,6.8,1.7l0.9,0.4c0.3,0.3,0.4,0.7,0.4,1.2
		c0,0.1,1.3,10.4,1.3,10.4c2,0.6,3.9,1.2,5.9,1.7c0,0-2.5-14.5-3.6-21.8C237.5,123.7,238,123,237.9,122.2L237.9,122.2z"/>
	<path class="st3" d="M159.3,103.2c0.1,1.1-0.2,2.3-0.9,3.2c-0.6,0.9-1.7,1.3-2.8,1.2h-3.8c-0.1,0-0.4-0.1-0.6-0.1
		c-0.1-0.1-0.1-0.3-0.1-0.6V94.4c-0.1-0.4,0.2-0.8,0.7-0.9c0.1,0,0.1,0,0.2,0h3.6c1.1,0,2.1,0.5,2.8,1.3c0.6,1,0.9,2.2,0.9,3.3
		V103.2z M166.1,128.5c-0.2-0.1-0.4-0.3-0.6-0.4c-0.1,0-0.1-0.3-0.1-0.7v-10c0-1.4-0.3-2.8-0.7-4.1c-0.4-1.1-1.1-2-2-2.8
		c-0.4-0.4-0.4-0.9-0.1-1.2c0.9-0.6,1.6-1.5,2-2.5c0.6-1.1,0.9-2.3,0.9-3.5v-4.6c0-1.3-0.2-2.6-0.6-3.9c-0.4-1.2-1-2.2-1.7-3.2
		c-0.8-0.9-1.9-1.7-3-2.2c-1.4-0.5-2.9-0.8-4.4-0.9c-4.2,0-8.3,0-12.5,0.1v1.6c0,0.7,0.1,1.3,0.4,1.9c0.3,0.4,0.6,0.8,1,1
		c0.1,0,0.3,0.1,0.4,0.3c0.1,0.2,0.1,0.5,0.1,0.7v13.5c-1.1,0.2-1.9,1.2-1.9,2.3c0,1.1,0.8,2,1.9,2.2v20.3h5.9v-19.3
		c0-0.6,0.3-0.9,0.7-0.9h3.8c1.1,0,2.1,0.5,2.8,1.3c0.6,0.9,0.9,2.1,0.9,3.2v12.9c0,0.8,0.3,1.6,0.9,2.2c0.7,0.5,1.5,0.8,2.3,0.9
		c1.6,0,3.3,0.1,4.9,0.1v-2.2c0.1-0.6-0.1-1.1-0.4-1.6C166.7,128.9,166.4,128.7,166.1,128.5z"/>
	<path class="st3" d="M185,117.2c-0.7,0.3-1.1,1-1,1.7c0,0.3,0.1,10.2,0,10.3c-0.1,0.3-0.4,0.3-0.7,0.3c-1.7-0.1-3.5-0.3-5.2-0.4
		c-0.3,0-0.4-0.1-0.6-0.4c-0.1-0.3-0.2-0.6-0.1-0.9c-0.1-10.7-0.1-21.5-0.1-32.4c0-0.3,0.1-0.6,0.1-0.9c0.1-0.1,0.3-0.3,0.4-0.3
		c0.4-0.3,0.8-0.6,1-1c0.3-0.5,0.5-1,0.4-1.6v-1.7c-3.3-0.3-6.7-0.6-10-0.7v1.7c0,0.6,0.1,1.2,0.4,1.7c0.3,0.4,0.6,0.7,1,1l0.4,0.4
		c0.1,0.1,0.1,0.4,0.1,0.9v13.3c-1.1,0.2-1.9,1.1-1.9,2.2c0,1.1,0.8,2.1,1.9,2.5v20.3c5.4,0.3,10.7,0.9,16,1.5
		c0.4,0,0.9,0.1,1.2,0.1c0.4,0.1,0.7,0,1-0.3c0.3-0.3,0.4-0.6,0.4-1v-16.1c-0.9-0.1-1.6-0.3-2.5-0.4C186.5,117,185.7,117,185,117.2z
		"/>
	<path class="st3" d="M54,103.5h-0.4c-6.1,2-12.2,4.2-18.3,6.5v1.7c0,0.6,0.1,1.2,0.3,1.7c0.3,0.2,0.5,0.4,0.9,0.6
		c0.2,0,0.4,0.1,0.6,0.3c0.1,0,0.1,0.3,0.1,0.7v13.2c-1,0.7-1.7,1.8-1.7,3c-0.1,0.8,0.5,1.5,1.4,1.6c0.1,0,0.2,0,0.4,0v20.3
		c0.6-0.1,1-0.4,1.6-0.6c2.6-1,5.2-1.9,7.8-2.9c1.2-0.3,2.3-0.7,3.3-1c0.9-0.3,1.7-0.6,2.6-0.9c0.3-0.1,0.7-0.3,1-0.4h0.1
		c0.1,0,0.3-0.1,0.4-0.1c0.1-0.1,0.4-0.3,0.6-0.6c0.3-0.3,0.4-0.7,0.4-1.2v-12.5c-0.9,0.3-1.7,0.6-2.5,0.9c-0.9,0.2-1.6,0.6-2.3,1.2
		c-0.6,0.5-0.9,1.3-0.9,2c0,0.1,0.1,6.4,0,6.7c-0.1,0.3-0.4,0.4-0.7,0.4c-0.7,0.3-1.5,0.6-2.2,0.9c-1,0.3-2,0.7-3,1
		c-0.4,0.1-0.7,0-0.7-0.6v-13.6c0-0.6,0.3-1,0.9-1.2c2.3-0.9,4.6-1.6,7-2.5c0.5,0,0.9-0.5,0.9-1V124c0-0.2-0.1-0.4-0.3-0.6h-0.6
		c-2.3,0.7-4.6,1.6-7,2.3c-0.6,0.3-0.9,0.1-0.9-0.4v-12.3c0.1-0.3,0.2-0.5,0.3-0.7c0.1-0.1,0.4-0.3,0.6-0.4c1.9-0.6,3.6-1.3,5.5-1.9
		c0.1,0,0.1,0,0.3,0.1c0.1,0.1,0,6.4,0,6.7c0,0.9,0.3,1.3,0.9,1.5c0.8,0,1.6-0.2,2.3-0.4c0.8-0.2,1.7-0.4,2.5-0.7v-12.6
		c0-0.3-0.2-0.6-0.4-0.7C54.5,103.5,54.2,103.5,54,103.5z"/>
	<path class="st3" d="M211.7,94.7c-0.1,0-0.1-0.1-0.3-0.1h-0.1c-6.2-1.2-12.6-2.3-19-3.2v1.7c0,0.7,0.1,1.3,0.4,1.9
		c0.1,0.5,0.4,0.8,0.9,1l0.6,0.6c0.2,0.3,0.3,0.6,0.3,0.9v13.3c-1.1,0-2,0.8-2,1.9c0,0,0,0.1,0,0.1c0.1,1.2,0.9,2.2,2,2.5v20.3
		c0.4,0.1,1,0.1,1.5,0.3c2.8,0.4,5.5,0.9,8.3,1.3c1.2,0.1,2.3,0.4,3.5,0.6c0.9,0.1,1.8,0.3,2.6,0.6c0.3,0,0.7,0.1,1,0.1h0.6
		c0.2,0,0.4,0,0.6-0.1c0.3-0.3,0.4-0.6,0.4-1v-12.5c-0.9-0.1-1.7-0.3-2.5-0.4c-0.8-0.1-1.6-0.1-2.3,0c-0.7,0.1-1,0.6-1,1.6
		c0,0.1,0.1,6.4,0,6.5c-0.1,0.3-0.4,0.3-0.7,0.3c-0.7-0.1-1.5-0.3-2.2-0.4c-1.1-0.1-2.1-0.3-3.2-0.6c-0.4,0-0.7-0.3-0.7-0.9v-13.6
		c0-0.6,0.3-0.9,0.9-0.7c2.5,0.4,4.8,0.7,7.3,1.3c0.6,0,0.9-0.1,0.9-0.7v-3.3c0-0.3-0.1-0.5-0.3-0.7c-0.3-0.1-0.4-0.3-0.7-0.3
		c-2.3-0.4-4.6-0.9-7.1-1.3c-0.4,0.1-0.8-0.2-0.9-0.7c0-0.1,0-0.1,0-0.2V98.3c0-0.2,0.1-0.4,0.3-0.6c0.1-0.1,0.3-0.1,0.6-0.1
		c1.9,0.3,3.8,0.6,5.7,1c0.1,0,0.1,0.1,0.3,0.1c0.1,0.3,0,6.5,0,6.7c-0.1,0.8,0.3,1.6,1,2c0.8,0.3,1.5,0.6,2.3,0.9
		c0.7,0.1,1.6,0.3,2.5,0.4V96.1c0-0.4-0.2-0.7-0.4-1C212.2,94.9,211.9,94.8,211.7,94.7z"/>
	<path class="st3" d="M139.3,192.4c0,0-33.8-11.3-19.2-47.2c0,0-35.7,1.5-84.4,21.2c0,0-3.5,1.3-5.5,2c-3.1,1.4-6.8,1.4-9.9-0.1
		c0,0,44.8-23.4,102.1-28.9c7.7-0.6,8.6,0.4,6.7,3.3C127.4,145.2,106.9,171.3,139.3,192.4z"/>
	<path class="st1" d="M109.2,155.5c-28.9,3.8-57.2,13.8-57.2,13.8c4.8,8.6,17.8,4.9,17.8,4.9c24.5-7,35.4-9.3,38.9-10
		C108.7,161.2,108.8,158.3,109.2,155.5z"/>
	<path class="st1" d="M109.5,169.5c-15.5,3-30.7,7.2-45.6,12.6c0,0,6.5,7.4,19.3,3.8c10.6-3,24.4-7.4,28.6-8.7
		C110.7,174.8,110,172.2,109.5,169.5z"/>
	<path class="st1" d="M113.9,181.1c-4.4,1.5-26.1,8.6-35.3,12c0,0,5.2,7.1,20.5,1.2c10.6-4.2,16.5-6.7,19-7.8
		C116.5,184.8,115.1,183,113.9,181.1z"/>
	<path class="st1" d="M121.6,189.7c-3.9,1.6-18,7.8-26.3,11.8c0,0,10.3,5.1,23.4-2.9l8-5.4C124.9,192.1,123.2,191,121.6,189.7z"/>
	<path class="st1" d="M130.6,195.2c-2.6,1.6-13.3,8.4-18.6,12.3c0,0,9,3.6,18.1-4.9c2.9-2.8,4.5-4.4,5.4-5.4
		C133.8,196.7,132.2,196,130.6,195.2z"/>
	<path class="st3" d="M160.9,192.4c0,0,33.8-11.3,19.2-47.2c0,0,35.5,1.5,84.4,21.2c0,0,3.5,1.3,5.5,2c3.1,1.4,6.7,1.4,9.7-0.1
		c0,0-44.7-23.4-102.1-28.9c-7.5-0.6-8.6,0.4-6.5,3.3C172.6,145.2,193.2,171.3,160.9,192.4z"/>
	<path class="st1" d="M190.9,155.5c28.9,3.8,57.2,13.8,57.2,13.8c-4.9,8.6-17.8,4.9-17.8,4.9c-24.5-7-35.5-9.3-39-10
		C191.3,161.3,191.2,158.3,190.9,155.5z"/>
	<path class="st1" d="M190.6,169.5c15.5,3,30.7,7.3,45.6,12.6c0,0-6.5,7.4-19.3,3.8c-10.7-3-24.5-7.4-28.6-8.7
		C189.4,174.8,190.2,172.2,190.6,169.5z"/>
	<path class="st1" d="M186.1,181.1c4.4,1.5,26.3,8.6,35.4,12c0,0-5.2,7.1-20.5,1.2c-10.7-4.2-16.5-6.7-19.2-7.8
		C183.6,184.9,185,183.1,186.1,181.1z"/>
	<path class="st1" d="M178.6,189.7c3.8,1.6,18,7.8,26.1,11.8c0,0-10.3,5.1-23.2-2.9l-8-5.4C175.3,192.1,177,191,178.6,189.7z"/>
	<path class="st1" d="M169.6,195.2c2.5,1.6,13.2,8.4,18.4,12.3c0,0-8.8,3.6-18-4.9c-2.9-2.8-4.5-4.4-5.4-5.4
		C166.1,196.7,167.8,196.1,169.6,195.2z"/>
	<path class="st3" d="M177.7,212c0,15.3-12.3,27.7-27.6,27.7c-15.3,0-27.7-12.3-27.7-27.6c0-15.3,12.3-27.7,27.6-27.7l0,0
		c15.2-0.1,27.6,12.2,27.7,27.5C177.7,212,177.7,212,177.7,212z"/>
	<path class="st1" d="M171.9,217.7c0,12.1-9.8,21.9-21.9,21.9c-12.1,0-21.9-9.8-21.9-21.9s9.8-21.9,21.9-21.9
		c12-0.1,21.8,9.6,21.9,21.7C171.9,217.5,171.9,217.6,171.9,217.7z"/>
	<path class="st2" d="M164.7,232.9c-1.5-1-2.6-2.6-3-4.4v-0.4c5.6-2.4,10.3-6.4,13.5-11.6C173.9,223.2,170.2,229.1,164.7,232.9z
		 M125,216.5c3.1,5.2,7.9,9.3,13.5,11.6v0.4c-0.4,1.8-1.5,3.3-3,4.4C130,229,126.2,223.2,125,216.5z M130.9,195.3
		c-1.2,6.2,1.5,12.2,3.9,17.6c1.7,3.6,3,7.3,3.8,11.2c-6.8-3.3-11.7-9.5-13.5-16.8C125.9,202.8,127.9,198.7,130.9,195.3z
		 M157.8,225.5c-1.9,0.6-3.9,1-5.9,1.2v-40c3.9,0.3,7.8,1.5,11.2,3.5c5.1,7.4,2.3,13.9-1,21.3C160,216,158,220.6,157.8,225.5z
		 M151.9,230.3c2.1-0.1,4.1-0.4,6.1-1c0.4,2.2,1.6,4.2,3.3,5.7c-3,1.3-6.2,2.2-9.4,2.5L151.9,230.3z M142.2,229.3c2,0.6,4,0.9,6.1,1
		v7.1c-3.3-0.3-6.4-1.1-9.4-2.5C140.5,233.5,141.7,231.5,142.2,229.3L142.2,229.3z M136.9,190.1c3.5-2,7.3-3.2,11.3-3.5v40
		c-2-0.2-4-0.6-5.9-1.2c-0.1-4.9-2.2-9.6-4.2-14.1C134.8,204.1,131.9,197.5,136.9,190.1L136.9,190.1z M175.1,207.2
		c-1.9,7.2-6.8,13.3-13.5,16.7c0.8-3.8,2.1-7.5,3.8-11c2.5-5.4,5.1-11.3,3.9-17.6C172.2,198.7,174.2,202.8,175.1,207.2z M150,182.3
		c-16.4,0.1-29.7,13.5-29.6,29.9c0.1,16.4,13.5,29.7,29.9,29.6c16.4-0.1,29.6-13.4,29.6-29.7C179.9,195.6,166.5,182.3,150,182.3
		C150,182.3,150,182.3,150,182.3z"/>
	<path class="st2" d="M158.9,143.6c0,0-0.1,1-0.7,1c-2-0.7-4-1.6-5.9-2.6c-0.7-0.4-1.4-0.8-2-1.3c0,0-1.6,0.9-2.3,1.3
		c-1.9,1-3.8,1.9-5.8,2.6c-0.6,0-0.9-1-0.9-1s-9.3,5.7-9.3,21.3c0,11.8,6.1,17,6.1,17l0.7,3.3h22.8l0.7-3.3c0,0,6.1-5.2,6.1-17
		C168.3,149.2,158.9,143.6,158.9,143.6z"/>
	<path class="st3" d="M163.3,161c0-4.1-1.4-8.1-4.1-11.2c0,0-0.1,1.5-2.3-0.1c-4.1-2.9-9.6-2.9-13.8,0c-2.2,1.6-2.3,0.1-2.3,0.1
		c-2.7,3.1-4.1,7.1-4.1,11.2c0,4.1,0.9,5.9,1.3,6.5c2,5.1,6.5,8.7,11.9,8.7c5.4-0.1,10.1-3.5,11.9-8.6
		C162,167.5,163.3,165.6,163.3,161z"/>
	<path class="st2" d="M155.1,171.8L155.1,171.8c-0.8-1.4-0.5-3.2,0.7-4.2c0,0,4.9,1,5.1-5.5c0-0.7,0.2-1.4,0.6-2
		c0,0-1.3-1.2-4.1,0.9c-2.6,2-4.2,8-5.7,6.5c-1.5-1.3-0.9-9-1.7-9.3c-0.7,0.3-0.1,8-1.6,9.3c-1.6,1.5-3-4.5-5.8-6.5
		s-3.9-0.9-3.9-0.9c0.3,0.6,0.5,1.3,0.6,2c0,6.5,4.9,5.5,4.9,5.5c1.3,1,1.6,2.8,0.9,4.2l0,0c-5.8-6.2-9.3-5.4-7.5,1.6
		c1.6,7,8,36.7,9,43.7c-0.1,6.1-0.9,8.4-1.2,8.8l-0.6,1.3l0.7,1.3c0.9,1.3,1.6,2.7,2.2,4.2l2.3,6.1l2.5-6.1c0.6-1.5,1.3-2.9,2.2-4.2
		l0.7-1.3l-0.7-1.3c-0.1-0.4-0.9-2.6-1-8.6c0.9-6.2,7.4-36.9,9-44C164.4,166.5,160.9,165.6,155.1,171.8z"/>
	<path class="st4" d="M146.1,202.9c-2.2-11-3.8-19.3-5.1-25.2c-1-4.5,1.7-2.6,3.2,0.1L146.1,202.9z"/>
	<path class="st4" d="M154.1,202.9c2-11,3.8-19.3,5.1-25.2c1-4.5-1.7-2.6-3.2,0.1L154.1,202.9z"/>
	<path class="st4" d="M142.7,165.5c-0.4-0.2-0.6-0.6-0.6-1c0.1-0.1,0.1-0.3,0.3-0.4c-0.3-0.3-0.6-0.6-1-0.9c0,0-0.6,3.2,2.2,2.9
		c0-0.3-0.1-0.5-0.3-0.7C143.2,165.5,143,165.5,142.7,165.5z"/>
	<path class="st4" d="M158.6,163.1c-0.3,0.3-0.7,0.6-0.9,0.9c0,0.1,0.1,0.3,0.1,0.4c0.2,0.4,0,0.8-0.4,1c0,0,0,0-0.1,0
		c-0.3,0-0.4,0-0.6-0.1c-0.2,0.2-0.3,0.5-0.4,0.7C159.3,166.3,158.6,163.1,158.6,163.1z"/>
	<path class="st4" d="M151.5,207c0.9-17.1,2.2-29.2,2.2-30.6c0-0.7-0.1-1.4-0.3-2l-1,3.2l-0.3-5.7c-0.6-0.8-1.2-1.5-2-2
		c-0.7,0.6-1.4,1.3-2,2l-0.3,5.7l-1-3.2c-0.2,0.7-0.3,1.3-0.3,2c0,1.5,1.5,13.5,2.3,30.6s-1.2,20.3-1.2,20.3
		c0.9,1.6,1.8,3.2,2.5,4.9c0.8-1.7,1.6-3.3,2.6-4.9C152.6,227.3,150.4,224.1,151.5,207z"/>
</g>
</svg>
