<?xml version="1.0" encoding="utf-8"?>
<!-- Generator: Adobe Illustrator 23.0.6, SVG Export Plug-In . SVG Version: 6.00 Build 0)  -->
<svg version="1.1" id="Layer_1" xmlns="http://www.w3.org/2000/svg" xmlns:xlink="http://www.w3.org/1999/xlink" x="0px" y="0px"
	 viewBox="0 0 300 300" style="enable-background:new 0 0 300 300;" xml:space="preserve">
<style type="text/css">
	.st0{fill:#FFFFFF;}
	.st1{fill:#006BB6;}
	.st2{fill:#BEC0C2;}
	.st3{fill:#F58426;}
</style>
<g transform="matrix(1.25 0 0 -1.25 -125.48 427.68)">
	<g transform="matrix(2.2671 0 0 2.2671 -252.3 -328.71)">
		<path class="st0" d="M208.3,200.4l-7,9.1c-8.9,2.9-15,10.9-15.6,20.3l-4.8,4.7c-4.1-1.8-7.7-3.6-7.7-3.6l-13,13l5.5,12l-9.8,12.7
			h15.5l3,6.6l7.7,3.1l0.9,2.3l6.2-2.9l1.5,5.2l1,0.3c4.9,1.6,10.6,2.5,16.4,2.6c0.2,0,2,0,2.1,0c0.2,0,1.1,0,1.1,0
			c4.9-0.2,9.6-1.1,13.8-2.4l1-0.3l1.4-4.9l2.2,1.7l12.6-4.5l3-6.6h15.6l-9.9-12.7l5.4-11.8l-13.2-13.6c0,0-4.8,3-8.1,4.3l-4-4.6
			c-0.5-9.5-6.9-17.9-16.1-20.7L208.3,200.4L208.3,200.4z"/>
		<path class="st1" d="M208.2,283.6l0-4.3l0.8-0.8l0.3,0l0-1.9l1.3,0l0,1.9l0.2,0l0.7,0.7l-0.2,4.3c-0.4,0-1.2,0.1-1.2,0.1l0-3.8
			l-0.8,0l0,3.9C209.4,283.6,208.6,283.6,208.2,283.6L208.2,283.6z M205.9,283.5c-0.4,0-0.7,0-1.2-0.1l-0.4-5.4l-0.8-0.1l0.5,5.4
			l-1.2-0.1l-0.7-5.4l-0.9-0.1l0.6,5.4l-1.2-0.2l-0.9-6.1l0.7-0.7l1.6,0.1l0.7,0.6l0.5-0.5l1.4,0.1l0.8,0.8L205.9,283.5L205.9,283.5
			z M213,283.4c-0.2-0.3-0.5-0.5-0.7-0.7c0.1-1.8,0.2-3.6,0.3-5.4l0.8-0.8l2.1-0.1l0.7,1c-0.2,1.6-0.5,3.3-0.6,5.1l-0.8,0.8
			L213,283.4L213,283.4z M216.5,283l0.9-6.9l1.4-0.2l-0.3,2l0.8-0.1l0.4-2.1l1.4-0.2l-0.4,2.5l-0.5,0.6l0.3,0.4l-0.5,2.5l-0.9,1
			L216.5,283L216.5,283z M199.8,282.9l-2.8-0.6c-0.3-1.6-1.4-6.7-1.4-6.7c1,0.2,2,0.3,3.1,0.4c0.1,0.4,0.2,1.4,0.2,1.4l-1.5-0.2
			l0.3,1.4l1.4,0.2c0.1,0.5,0.1,0.7,0.2,1.3c-0.6-0.1-0.9-0.1-1.5-0.2l0.3,1.5l1.4,0.3L199.8,282.9L199.8,282.9z M221,282.1
			c0,0,0.9-4.5,1.4-6.8l1.5-0.3l-0.5,2.1l0.9-0.2l0.6-2.1l1.4-0.3l-0.9,3l-0.6,0.6l0.3,0.5l-0.7,2.5c-0.7,0.2-1.3,0.4-1.3,0.4
			l0.6-2.6l-0.2-0.3l-0.5,0.1c0,0-0.5,2.1-0.8,3.1C221.8,282,221,282.1,221,282.1L221,282.1z M213.5,282.1l0.7-0.1l0.4-4.2l-0.7,0.1
			L213.5,282.1L213.5,282.1z M196,282.1c-0.5-0.1-1.4-0.4-1.4-0.4l-0.4-1.4c0,0-0.4,0.7-0.6,1.1c-0.4-0.1-0.8-0.2-1.3-0.4
			c-0.6-2.2-1.2-4.4-1.8-6.6l1.5,0.3l1.2,4l0.5-1l-0.7-2.8l1.5,0.3L196,282.1L196,282.1z M218,281.4l0.7-0.1l0.3-1.7l-0.8,0.1
			L218,281.4L218,281.4z M160,266.4l48.3-62.7l48.6,62.7L160,266.4L160,266.4z"/>
		<path class="st2" d="M253.3,264.6l-44.9-57.9l-44.6,57.9L253.3,264.6L253.3,264.6z"/>
		<path class="st1" d="M246.8,260.5L246.8,260.5L246.8,260.5l-2.9,2l1.1,2l0,0.1l0,0.1l-4,8.7l0,0.1l-0.1,0l-10.7,3.8l-0.1,0l-0.1,0
			l-2.8-2.2l0,0l0,0l-0.5-1.2c0,0-4.4,1.1-10.9,1.8c-0.7,0.1-2.4,0.2-5.2,0.4l-0.3,0l-0.3,0l-0.1,0l0,0l-2.1-2.1l0,2.2
			c0,0-6-0.3-9.9-0.9c-3.9-0.5-7.8-1.5-7.8-1.5l-0.7,1.5l0,0l0,0l-5,2.3l-0.1,0.1l-0.1-0.1l-0.6-1.6l-0.1,0.3l-0.1,0.1l-0.1-0.1
			l-7.2-2.9l-0.1,0l0-0.1l-13.3-29.2l10.9-10.9l0.5,0.3c0.3,0.2,0.8,0.5,1.3,0.8c1.3,0.8,3.1,1.8,4,2.3l0.2,0.1
			c1.1,0.5,1.7,0.8,7,3.1l0.4,0.2c0,0,0.6,0.2,1.7,0.6c2.9,1,10.5,3.2,17.8,3.2h0.1c0.3,0,0.6,0,0.9,0c5-0.1,10.8-1.2,14.8-2.1
			c3.9-0.8,6.8-1.6,7.6-1.9l0.6-0.2c3.6-1.4,8.1-3.7,12.2-6.4l0.5-0.3l11,11.4L246.8,260.5L246.8,260.5z"/>
		<path class="st2" d="M208.1,255.4l0-4.3l1.8-0.1l0,2.4L208.1,255.4L208.1,255.4z M210.7,253.2c0-0.7,0-1.7-0.1-2.3
			c1.2-0.1,2.6-0.6,3.7-0.9c1.1-0.3,2.2-0.7,3.1-1.1l0.5,3.7C215.5,252.9,213.2,253.1,210.7,253.2L210.7,253.2z M205.4,253.2
			c-1.7-0.1-3.3-0.2-5-0.3c0.1-0.9,0.4-2.3,0.5-3.3c0,0,1.5,0.9,4.6,1.2L205.4,253.2L205.4,253.2z M197.4,252.5
			c-1.6-0.2-3.2-0.5-4.8-0.8c0.6-2,1.4-4.7,2-6.7c1.4,1.1,2.3,2.1,3.8,3.1C198,249.4,197.7,251.2,197.4,252.5L197.4,252.5z
			 M219.5,252.4l-0.9-4.2c1.4-0.8,2.5-1.7,3.7-2.9l0.2-0.2l2,6.5C222.9,251.9,221.3,252.2,219.5,252.4L219.5,252.4z M188.9,250.9
			c-1.8-0.4-3.4-0.9-5.2-1.5c1.1-2.7,2.4-5.4,3.7-8c1.2,0.4,2.9,1.1,4.5,1.5L188.9,250.9L188.9,250.9z M228,250.7l-3.2-8.2l4.6-1.1
			l3.9,7.7C231.6,249.8,229.8,250.3,228,250.7L228,250.7z M180.7,248.5c-2-0.7-3.8-1.4-5.7-2.3l5.3-7.6c0.3,0.2,2.9,1.4,4.7,2.1
			C183.8,243.2,182.1,245.9,180.7,248.5L180.7,248.5z M236.2,248.2l-4.3-7.7c3.7-1.4,8.9-4.3,10.9-5.7c0.9,0.9,6.1,6.3,6.8,7.1
			C245.4,244.4,240.9,246.5,236.2,248.2L236.2,248.2z M170.4,244c-1.2-0.6-2.3-1.2-3.5-1.9l6.9-7c0.8,0.5,1.7,1,2.7,1.6L170.4,244
			L170.4,244z"/>
		<path class="st1" d="M208.5,251.9c-11.5,0-20.8-9.3-20.8-20.8c0-11.5,9.3-20.8,20.8-20.8c11.5,0,20.8,9.3,20.8,20.8
			C229.3,242.6,220,251.9,208.5,251.9"/>
		<path class="st3" d="M185,275.6l-2.9-8.3l-4.7-4l4.3,10.8l-4.6-1.8l-12.6-27.7l2-2c1.2,0.7,2.4,1.3,3.6,2l4,10.2l3.5,3.2l0.8-1
			l-3.5-10c1.9,0.8,3.9,1.6,5.8,2.3l2.5,8.3l-2.2,3.6l4.5,4.3l2.6,8.8L185,275.6L185,275.6z M230.4,275.5l-1.7-1.3l3.1-10.2
			l10.1-7.1l2.6-6.4l-4.2,1.9l-1.4,4l-5.1,1.5l2.8-9.1c0.8-0.3,1.7-0.6,2.5-1c2.3-0.9,4.5-2,6.7-3.1c1.5-0.8,3-1.6,4.5-2.5l2.2,2.2
			l-6.8,15l-10.6,7.1l-1.8,5.2l3.3-1.2l1.3-3.2l5-1.6l-2.9,6.4L230.4,275.5L230.4,275.5z M210.5,274.5l-2.3-2.3l0-15.9l2.4-2.5
			c2.5-0.1,4.9-0.3,7.4-0.6l-0.5,4.5l-4.5,0.3l-0.7,12.7l3.8-0.2l-0.4,3.5L210.5,274.5L210.5,274.5z M206,274.5l-3.9-0.2l-1.8-20.8
			c1.6,0.2,3.3,0.3,5,0.3L206,274.5L206,274.5z M199.9,274l-3.6-0.5l-1.2-6.8l-1.3,6.4l-4.2-1.1l-5.9-21.9c1.7,0.5,3.4,1,5.1,1.4
			l3.2,14.7l1.6-7.9l-1-6c1.6,0.3,3.2,0.6,4.8,0.8l0,0L199.9,274L199.9,274z M216.9,274c0,0,1.8-14,2.7-20.9
			c1.7-0.2,3.3-0.5,4.9-0.9l-1.3,6.8l1.3,1.7l1.8-1.5l1.7-7.8c1.8-0.4,3.5-1,5.3-1.5l-3.2,11.4l-3.3,2.7l1.9,2.5l-1.5,5.8l-3.9,0.9
			l1.6-5.8l-2.5-3.3l-1.8,9.6L216.9,274L216.9,274z M208,250.3c-1.8,0-3.5-0.3-5.2-0.9c0.7-0.5,1.3-0.6,2.3-1.2
			c1.5,0.7,3.1,1.5,4.7,2.1C209.2,250.3,208.6,250.3,208,250.3L208,250.3z M211.8,250c-1.9-0.5-5.6-2.2-5.6-2.2
			c6.2-1.7,13.6-1.4,18.5-6.3C221.8,246.1,216.9,249.2,211.8,250L211.8,250z M201.6,249.1c-1.8-0.7-3.8-1.7-5.1-2.9
			c2.1-0.2,3-0.4,4.6-0.8c1,0.9,2,1.7,3.2,2.4L201.6,249.1L201.6,249.1z M205.2,247.4c-1.2-0.7-2.3-1.6-3.3-2.4
			c10.7-3.3,20.3-13.8,22.6-24.5c1.7,2.4,2.7,5.2,3.1,8.2c0.3,4.6,0.2,8.7-4.1,12.7C218.4,245.9,211.2,245.3,205.2,247.4
			L205.2,247.4z M195.4,245.3c-1.9-1.7-3.7-4.2-4.5-6.4c1.8,1.8,4,3.3,6.8,2.6l0,0c0.8,1.1,1.6,2.1,2.6,3.1
			C198.5,245.2,197.2,245.2,195.4,245.3L195.4,245.3z M201.2,244.3c-1-0.9-1.8-2-2.6-3l0,0c3.6-1.6,4.5-5.4,5.9-10.4
			c1.8-6.6,3.4-13.3,8.4-18.5c2.8,0.7,5.7,1.9,8.4,4.3c0.8,0.8,2,2,2.5,2.8C222.1,230.3,211.9,241.3,201.2,244.3L201.2,244.3z
			 M196.6,240.8c-2.8,0.1-4.9-2-6.6-4.4c-2.2-7.7,0.7-15.5,5.6-19.6c-3.7,7.8-3.1,16.7,1.6,23.9
			C196.9,240.8,196.8,240.8,196.6,240.8L196.6,240.8z M198.1,240.5c-5-7.1-5.5-18-0.5-25.3c4-2.6,9.1-4.1,14.2-3.1
			c-6.6,7.6-7.1,16-9.7,23.5C201.8,236.6,200.5,239.8,198.1,240.5L198.1,240.5z"/>
	</g>
</g>
</svg>
