<?xml version="1.0" encoding="utf-8"?>
<!-- Generator: Adobe Illustrator 23.0.6, SVG Export Plug-In . SVG Version: 6.00 Build 0)  -->
<svg version="1.1"
	 id="Layer_1" xmlns:cc="http://creativecommons.org/ns#" xmlns:dc="http://purl.org/dc/elements/1.1/" xmlns:rdf="http://www.w3.org/1999/02/22-rdf-syntax-ns#"
	 xmlns="http://www.w3.org/2000/svg" xmlns:xlink="http://www.w3.org/1999/xlink" x="0px" y="0px" viewBox="0 0 300 300"
	 style="enable-background:new 0 0 300 300;" xml:space="preserve">
<style type="text/css">
	.st0{fill:#007AC1;}
	.st1{fill:#F05133;}
	.st2{fill:#FFFFFF;}
	.st3{fill:#FDBB30;}
	.st4{fill:#002D62;}
</style>
<g>
	<path class="st0" d="M16.3,235.8c18.4-16.2,38.1-30.9,58.9-43.9c4.1-2,8.2-4.1,12.2-6.1c1.6-0.7,5-2.3,9-4.4
		c2.9,3.2,5.7,6.3,8.7,9.2C74.2,205.1,44.4,220.2,16.3,235.8z M237.7,125.2c20.2-4.5,40.7-7.6,61.3-9.3c-22,6.7-44.4,14.1-67,22.4
		C234,134.1,235.8,129.7,237.7,125.2z"/>
	<path class="st1" d="M1,174.5c21.4-13.4,43.9-25.1,67.2-34.8c0.7,1.6,1.6,3.2,2.5,4.8c-1.3,2.6-2.6,5.4-3.9,8
		C44.1,159.5,22.1,166.8,1,174.5z M246.2,99.4c17.5-0.7,35.1-0.5,52.6,0.7c-18.2,2.6-36.7,5.5-55.5,9
		C244.4,106,245.4,102.8,246.2,99.4z"/>
	<path class="st2" d="M149.9,70.4c34.2,0,61.1,8,91.5,23.2c-14.9,55.8-42.1,93.6-91.5,124c-18.5-11.5-34.4-24.3-47.5-38.9
		c5.8-2.8,12.4-6,18.2-8.6c2.5,0.1,4.7,0.3,6.8,0.3c0,2.7-1,5.3-2.9,7.3c1,1.2,1.9,2.2,2.9,3.2c2.6-2.3,4.2-5.7,4.4-10.5
		c5.8,0,11.5-0.6,17.2-1.9c-0.1,8.9-1.5,15.3-3.9,17.9c-0.1,0-0.1,0.1-0.1,0.1c0,0,0,0,0,0c-0.5,0.6-1.1,1.1-1.7,1.6
		c2.5-0.4,5-1,7.1-1.6c3.1-6.3,3.1-17.2,3.1-19.1c5.7-1.5,10.6-2.9,15.2-4.4c0.1,5.1,2.3,9.9,6.3,11.8c1.7-1.3,3.4-2.6,5.1-3.9
		c-1,0.1-7.1,0.6-7-9.3c13.1-5.1,21.7-10.9,29.3-20c2-4.5,3.6-9.3,4.7-14.1c-9,14.3-17.2,22.6-33.5,29.1c0.6-3.5,1.5-7,2.6-10.3
		c4.8-2,9.8-4.4,12.7-5.7l7.1-7.4c1.9-6.8,3.5-13.7,5.2-20.7l-5.5,1.7l6.6-6.8c1.5-5.4,2.8-10.8,4.1-16.2c-3.2,0.4-6.6,1-9.8,1.5
		c0.6-2.8,0.9-5.4,1.2-8c-1.6-0.3-3.2-0.9-4.8-1c-0.4,3.3-0.9,6.6-1.7,9.9l-0.4,0.1c-3.2,0.5-6.3,1.8-8.9,3.8l0.9-2.6
		c-5.2,0.9-10.5,1.9-15.7,2.9l-5.2,5.5l0.1-0.6l1.7-4.4c-5.1,1.2-10.3,2.2-15.6,3.4c-1-7-2.2-13.3-3.1-18.4l-4.4,0.4
		c0.9,5.2,2,11.7,3.2,18.8l-3.6,0.9l-4.7,5c-3.2-3.5-9.9-1.3-14.1-0.3c-4.5,1.2-9,2.5-13.6,3.6c-1.3,0.3-2.7,0.7-3.9,1.2
		c-3.5-4.9-6.6-10-9.3-15.3l-0.4-1c-1.3,0.6-2.6,1-4.1,1.7l0.6,1.2c2.6,5.3,5.6,10.3,8.9,15.2c-5,2.2-9.6,5.4-13.3,9.5
		c0,0-6.4,6.6-7.1,7.4c-1.6,1.9-3,3.9-4.2,6c-6.9-14.1-12.3-28.8-16-44C88.9,78.5,115.7,70.4,149.9,70.4z M153.3,155.1
		c3.2-1.3,6.3-2.8,9.5-4.1l1.5-1.6c0.7,0.1,1.5,0.2,2.2,0.1c1.5-0.2,3-0.6,4.4-1.2c-0.9,3.3-1.6,6.7-2,10.1
		c-4.4,1.6-9.5,3.2-15.2,4.7C153.4,160.3,153.4,157.9,153.3,155.1L153.3,155.1z M131.4,165l3.1-1.5l7.6-6.1l1.7-4.5
		c1,2.2,1.6,3.1,2.8,5.2l2.5-1.2v7c-5.7,1.4-11.6,2.1-17.5,2L131.4,165z"/>
	<path class="st1" d="M168.4,81.9c7.2-0.1,14.3,0.3,21.4,1.2c5.4,1.1,10.7,2.4,15.9,4.1c2.1,7.2,3.1,14.7,3.1,22.1
		c0,6.2-0.7,12.3-2,18.4c-9,14.3-17.3,22.4-33.5,29c0.6-3.5,1.5-7,2.6-10.3c4.8-2,9.6-4.4,12.7-5.5l7.1-7.4c1.7-7,3.5-13.8,5.2-20.7
		l-5.5,1.7l6.6-6.8c1.3-5.4,2.8-10.8,4.1-16.2c-3.2,0.4-6.6,1-9.8,1.5c0.4-2.8,0.9-5.4,1.2-8c-1.6-0.4-3.2-0.9-4.8-1.2
		c-0.4,3.4-0.9,6.7-1.7,10.1l-0.4,0.1c-3.3,0.4-6.5,1.7-9,3.8l1-2.6c-5.4,0.9-10.5,1.9-15.9,2.9l-5.1,5.4l0.1-0.4l1.7-4.4
		c-5.2,1.2-10.3,2.2-15.6,3.4c-1-7.1-2.2-13.4-3.1-18.5C152.6,82.4,160.5,81.9,168.4,81.9z M202.1,141.8
		c-5.1,11.3-12.6,21.3-22.1,29.3c-1,0.1-7.3,0.6-7.1-9.3C185.9,156.7,194.5,150.7,202.1,141.8L202.1,141.8z M174.7,175.1
		c-7.4,5.3-15.6,9.2-24.3,11.7c2.9-6.3,3.1-17.2,3.1-19.1c5.5-1.5,10.5-2.9,15.2-4.4C168.7,168.4,170.8,173.3,174.7,175.1
		L174.7,175.1z M143.2,188.3c-2.5,0.4-5.1,0.7-7.6,1c-2.8-2.8-5.5-5.7-8.2-8.5c2.6-2.3,4.2-5.7,4.4-10.5c5.8,0,11.5-0.6,17.2-1.9
		c-0.1,8.9-1.5,15.3-3.9,17.9c-0.1,0-0.1,0.1-0.1,0.1c0,0,0,0,0,0C144.2,187.3,143.7,187.9,143.2,188.3L143.2,188.3z M124.6,177.7
		c-1.9-2.2-3.8-4.5-5.5-6.8l1.6-0.7c2.5,0.1,4.7,0.3,6.8,0.3C127.4,173.1,126.4,175.7,124.6,177.7L124.6,177.7z M89.9,120.3
		c-2.5-6.2-4.7-12.6-6.6-19.1c2-1,4.1-1.9,6.3-2.8l0.4,1.2c2.6,5.3,5.7,10.3,9,15.2C95.8,116.1,92.7,118,89.9,120.3z M93.5,96.7
		c14.9-6.2,30.6-10.5,46.6-12.8c0.9,5.2,2,11.7,3.1,18.8l-3.6,0.9l-4.5,5c-3.4-3.5-10.1-1.3-14.1-0.3c-4.5,1.2-9,2.5-13.6,3.6
		c-1.3,0.3-2.7,0.7-3.9,1.2c-3.5-4.9-6.5-10-9.2-15.3L93.5,96.7z M153.3,155.1c3.2-1.3,6.3-2.8,9.5-4.1l1.5-1.6
		c0.7,0.1,1.5,0.2,2.2,0.1c1.5-0.3,3-0.6,4.4-1.2c-1,3.3-1.7,6.6-2,10.1c-4.5,1.6-9.5,3.2-15.3,4.7
		C153.4,160.3,153.4,157.9,153.3,155.1z M131.4,165l3.1-1.5l7.6-6.1l1.7-4.5c1,2.2,1.6,3.1,2.8,5.2l2.5-1v7c-5.7,1.3-11.6,2-17.5,2
		L131.4,165z"/>
	<path class="st3" d="M151.5,208.3c-14.4-9.7-27.5-21.3-38.8-34.5l6.3-2.9c1.9,2.3,3.8,4.7,5.7,6.8c0.9,1.1,1.9,2.2,2.9,3.2
		c8.3,9.2,17.6,17.5,27.5,24.9C154,206.7,152.8,207.5,151.5,208.3z M82.7,127.1c-4.3-9.4-7.8-19.1-10.6-29
		c24.9-11.9,52-18.4,79.6-19.2c12.8,0.1,25.6,1.5,38.2,4.1c-7.1-0.8-14.3-1.1-21.4-1.2c-8,0-16,0.5-23.9,1.5
		c-1.5,0.1-2.9,0.4-4.4,0.6c-16,2.3-31.7,6.5-46.6,12.7c-1.3,0.6-2.8,1.2-4.1,1.7c-2,0.9-4.1,1.9-6.1,2.9c1.8,6.5,3.9,12.9,6.4,19.1
		c-1.3,1.2-2.8,2.5-4.1,3.8L82.7,127.1z"/>
	<path class="st4" d="M51.3,90.3c32.8-16.8,61.5-26.1,98.8-26.1c37.2,0,66,9.3,98.8,26.1c-15.3,61.3-44.4,102.2-98.9,134.8
		c-20.5-12.4-38.5-26.8-53.3-43.6c-4.1,2-7.4,3.6-9.2,4.5c-5.1,2.6-10.2,5.1-15.3,7.7c-5.8,2.9-12.2,7.4-18.9,5.7
		c-7.3-3.2-2.5-12.1-0.3-17c5.7-12.7,11.7-25.4,17.8-37.9c-7.6-14.3-13.4-29.5-17.2-45.3L51.3,90.3z M149.9,70.4
		c-34.2,0-61.1,8-91.5,23.2c3.7,15.2,9,29.9,15.9,43.9c1.3-2.1,2.7-4.1,4.4-6c0.7-0.7,7-7.4,7-7.4c3.8-4,8.3-7.3,13.4-9.5
		c-3.4-4.8-6.4-9.9-9-15.2l-0.4-1.2c1.3-0.6,2.6-1.2,4.1-1.7l0.4,1c2.7,5.4,5.7,10.5,9.2,15.4c1.3-0.4,2.6-0.9,4.1-1.3
		c4.5-1.2,8.9-2.3,13.6-3.5c4.1-1.2,10.8-3.4,14,0.1l4.7-5l3.6-0.7c-1.2-7.3-2.2-13.7-3.2-18.8c1.5-0.1,2.9-0.4,4.4-0.6
		c0.9,5.1,2,11.5,3.1,18.4c5.2-1,10.3-2.2,15.6-3.2l-1.7,4.4l-0.1,0.4l5.2-5.5c5.2-0.9,10.3-1.9,15.7-2.9l-0.9,2.8
		c2.6-2.1,5.6-3.4,8.9-3.9h0.4c0.8-3.3,1.5-6.7,1.9-10.1c1.6,0.3,3.2,0.7,4.7,1c-0.2,2.7-0.6,5.4-1.2,8c3.4-0.4,6.6-0.9,9.9-1.5
		c-1.5,5.4-2.8,10.9-4.1,16.3l-6.6,6.8l5.5-1.7c-1.9,6.8-3.6,13.7-5.2,20.7l-7.1,7.4c-3.1,1.3-8,3.6-12.7,5.5
		c-1.1,3.4-2,6.8-2.6,10.3c16.2-6.6,24.5-14.9,33.5-29c-1.2,4.8-2.8,9.6-4.8,14.1c-7.6,8.9-16,14.9-29.3,19.8
		c-0.1,10.1,6.3,9.6,7.1,9.3c-1.6,1.5-3.4,2.8-5.2,3.9c-3.9-1.7-6-6.7-6.1-11.8c-4.5,1.6-9.5,2.9-15.2,4.4
		c-0.1,1.9-0.1,12.8-3.1,19.1c-2.4,0.7-4.7,1.2-7.1,1.6c0.6-0.5,1.1-1,1.6-1.6l0.1-0.1c2.6-2.6,3.8-9,4.1-17.9
		c-5.7,1.2-11.4,1.9-17.2,2c-0.1,4.8-1.7,8.2-4.4,10.3c-1-1-1.9-2-2.9-3.1c1.8-2,2.7-4.6,2.8-7.3c-2-0.1-4.4-0.3-6.7-0.4
		c-5.8,2.8-12.5,6-18.4,8.6c13.9,15.2,30,28.3,47.7,38.9c49.4-30.5,76.5-68.1,91.4-124C211,78.5,184.2,70.4,149.9,70.4z
		 M153.3,155.1c0.1,2.8,0.1,5.2,0.1,7.9c5.8-1.5,10.8-2.9,15.3-4.5c0.4-3.5,1-6.9,2-10.2c-1.4,0.5-2.9,0.9-4.4,1.2
		c-0.7,0.1-1.5,0.1-2.2,0l-1.5,1.5C159.5,152.3,156.5,153.8,153.3,155.1L153.3,155.1z M131.4,165l0.1,1c5.9,0,11.8-0.7,17.5-2v-7
		l-2.5,1.2c-1.2-2.2-1.6-3.1-2.8-5.2l-1.7,4.5l-7.6,6.1L131.4,165z"/>
	<path class="st2" d="M107.8,114.3c-7.7,2.2-14.6,5.4-20.1,11.5c-3,3.7-5.6,7.7-7.6,11.9c-6.1,12.7-12.1,25.4-17.8,38
		c-1.5,3.4-6,11.4-1.2,13.6c5.4,1.3,12.1-3.2,16.8-5.5c5.1-2.6,10.3-5.2,15.4-7.7c8.7-4.4,16.6-9.6,22-18.1c2-3.7,3.7-7.5,5.2-11.4
		c3.4-8.3,6.7-16.5,10.2-24.6c1.3-3.2,3.6-7,2.9-10.3c-1.5-4.5-9.2-1.7-12.4-0.9C116.8,112,112.3,113.1,107.8,114.3z M98.1,161.4
		c-4.1,1.9-8,3.6-12.1,5.5c5.8-13.6,11.9-27.1,18.4-40.7c3.5-1,7.1-2.3,10.8-3.4C109.1,135.7,103.4,148.5,98.1,161.4z M167.9,100.2
		c-5.7,7.4-11.2,14.9-16.8,22.3c2.6-6.7,5.2-13.6,7.9-20.4c-5.8,1.2-11.8,2.5-17.5,3.8c-1.6,3.5-3.1,7-4.5,10.6
		c1.2-0.4,2.4-0.7,3.6-1c-4.5,11.1-9,22.1-13.4,33.4c-1.9,4.5-3.6,9.2-5.4,13.7c5.8-2.8,11.8-5.5,17.6-8.2c2.6-7.4,5.2-14.7,8-22.1
		c2.5,5.1,5,10.1,7.4,15c3.8-1.6,7.6-3.4,11.4-5c-2.3-5.2-4.7-10.5-7-15.7c4.2-6.4,8.5-12.8,12.7-19.1c1.2-0.3,2.5-0.4,3.6-0.7
		c1-2.8,1.9-5.5,2.8-8.3C174.8,99,171.3,99.6,167.9,100.2z M190.6,96.4c-3.2,0.4-6.1,1.8-8.5,3.9c-1.8,2.1-3.1,4.5-3.8,7.1
		c-2.5,7.9-5,15.7-7.6,23.6c-1,3.1-2.6,8.7,2.3,8.5c1.7-0.4,3.4-1,5-1.7c5.1-2.2,10.2-4.2,15.3-6.3c1.2-5,2.5-9.9,3.8-14.9
		c-2.6,0.7-5.2,1.6-8,2.5c-0.7,2.3-1.3,4.5-1.9,6.8c-1.9,0.6-3.8,1.3-5.5,1.9c2.3-8,4.5-15.9,7-23.9c1.6-0.4,3.2-0.7,4.8-1.2
		c-0.3,1.4-0.7,2.8-1.2,4.2c2.5-0.6,4.8-1.2,7.3-1.7c0.9-3.5,1.7-7.1,2.6-10.8C198.5,95.1,194.5,95.8,190.6,96.4z"/>
	<path class="st0" d="M211.9,88.9c2.3,0.9,4.7,1.6,7,2.5c5.5,2.2,10.5,4.2,14.7,6.3c-12.3,43-38.9,80.5-75.5,106.2l-2.9,2
		c-6-4.5-11.7-9.3-17.2-14.4l5.1-0.7c44.6-7.6,74.8-49.8,67.5-94.4c-0.1-0.6-0.3-1.2-0.4-1.7L210,94l-0.1-0.1l-0.6-2l-0.1-0.3
		l-0.1-0.6l-0.1-0.1v-0.3c-0.2-0.8-0.4-1.7-0.7-2.5C209.3,88.3,210.6,88.6,211.9,88.9z M212.3,89.5c2.2,0.7,4.5,1.6,6.7,2.3
		C216.8,91.1,214.5,90.3,212.3,89.5L212.3,89.5z"/>
</g>
</svg>
