<?xml version="1.0" encoding="utf-8"?>
<!-- Generator: Adobe Illustrator 23.0.6, SVG Export Plug-In . SVG Version: 6.00 Build 0)  -->
<svg version="1.1"
	 id="Layer_1" xmlns:cc="http://creativecommons.org/ns#" xmlns:dc="http://purl.org/dc/elements/1.1/" xmlns:rdf="http://www.w3.org/1999/02/22-rdf-syntax-ns#"
	 xmlns="http://www.w3.org/2000/svg" xmlns:xlink="http://www.w3.org/1999/xlink" x="0px" y="0px" viewBox="0 0 300 300"
	 style="enable-background:new 0 0 300 300;" xml:space="preserve">
<style type="text/css">
	.st0{fill:#C2CCD2;}
	.st1{fill:#FFFFFF;}
	.st2{fill:#0B77BD;}
	.st3{fill-rule:evenodd;clip-rule:evenodd;fill:#FFFFFF;}
</style>
<g>
	<path class="st0" d="M113.2,143.8c22-3.4,44.2-2.3,63.5,5.8l2.3-5.2c-31.2-9.9-70.7-9.6-99.7,6.5l8.3-19.3
		c-37,9.9-61.5,30.8-86.6,52.1c18.2-42.9,57.7-78.1,102.3-91.1l-2.2,7.2c39.1-12.8,82.1-15.3,116.7-9.6l-8.1-10.6l20,5.2l12.8-19.3
		l5,23.8l19.7,6.3c0,0-14.2,6-13.7,6.3c74.3,30.5,50.5,132.2-20,132.6c-35.7,0.4-63.5-31.9-62.2-65.6
		C152.8,156.9,134.8,151.2,113.2,143.8z"/>
	<polygon class="st1" points="106,127.7 110.1,125.7 113.7,128.8 113,124.3 117,122 112.5,121.1 111.4,116.5 109.2,120.7 
		104.7,120.2 107.9,123.6 	"/>
	<path d="M246.1,101.9c4.1-1.8,11.7-5,11.7-5l0.5-0.2l-0.5-0.2c0,0-12.3-4.1-14.8-4.9c-0.5-2.9-2.3-16.2-2.3-16.2l-0.2-0.5l-4.5,7.2
		c0,0-2.5,4.1-4,6.3c-2.9-0.9-15.5-4-15.5-4l-0.7-0.4l0.5,0.7c0,0,5,6.5,8.1,10.6c-14.5-3.1-29.3-4.5-44.2-4.3
		c-5.6,0-11.4,0.2-17.5,0.5c-22.9,1.3-45.6,5.9-67.3,13.5l2.5-7.6l-0.5,0.2c-33.9,10.6-71.1,42.6-87.5,73.9l0.4,0.2
		c23.1-21.6,54.6-39.1,82.8-45.4l-7.4,17.1l0.5-0.2c13-6.3,30.3-9,47.6-9c17.9,0,35.7,2.9,49.6,7.9l-5.2,11.5
		c-12.6-5.8-30.8-9.6-46.2-9.6c-2.7,0-5.2,0-7.8,0.2v0.5c18,5,36.4,10.8,51.2,22.5c-0.1,1.3-0.2,2.5-0.2,3.8c0,30.8,26.7,59,58.3,59
		h0.7c34.4-0.4,60.2-32.1,60.2-65.3C294.4,140.9,280.5,115.8,246.1,101.9z"/>
	<path class="st0" d="M227.2,158.7c-12.6,0-25.6-4.7-38.4-9.4c-3.3,7-5.1,14.6-5,22.4c-0.1,4.1,0.4,8.3,1.4,12.3h3.2
		c25.4-0.1,50.3-6.8,72.3-19.5c-2.6-4.5-5.5-8.8-8.7-13C244.6,156.3,236,158.8,227.2,158.7z"/>
	<path class="st0" d="M187.5,188.7h-0.9c7.8,20.2,25.6,33.4,47.3,33.7c7-17.1,14.6-35.7,32.3-44.5c-0.9-2.9-2-6-3.2-9
		C239.9,182,213.9,188.8,187.5,188.7z"/>
	<path class="st0" d="M241,125.9c-4.2-1.8-8.5-3.1-13-4c-2.2,0.4-5.2,0.5-7.6,0.9c13.2,5.2,22.9,11.5,32.5,22.5
		c5-3.8,9.2-8.5,12.4-13.9c-8.8-8.7-25.6-19.3-67.6-22.5c17.7,4.1,33.9,9.9,43.5,16.6L241,125.9z"/>
	<path class="st0" d="M123.6,120h8.3c29.8,0,75.6,3.4,93.4,24.5l-0.4,0.4c-6.1-3.2-18.4-9-26.1-9h-0.5c-2.7,2.9-5.1,6-7.2,9.4
		c11.9,4.5,24,8.8,35.9,8.8c7.9,0.1,15.6-2,22.4-6.1c-20.7-22.5-55.5-32.5-88.5-32.5C148.3,115.5,135.8,117.1,123.6,120z"/>
	<path class="st0" d="M264.3,162.2c5.7-3.7,10.9-8.2,15.3-13.3c-2.9-5.4-6.8-10.3-11.4-14.4c-3.2,5.6-7.5,10.6-12.6,14.6
		C259,153.1,261.9,157.5,264.3,162.2z"/>
	<path class="st0" d="M238.9,222.2c10.3-1,20.1-5.1,28.1-11.7c1.2-4.6,1.8-9.4,1.8-14.2c0-4.5-0.4-9.1-1.3-13.5
		C251.7,190.3,245.2,206.9,238.9,222.2z"/>
	<path class="st0" d="M273.3,199.3v4.7c5.9-7.6,9.8-16.6,11.2-26.1c-4.5,0.4-8.9,1.4-13.2,2.7C272.7,186.7,273.4,193,273.3,199.3z"
		/>
	<path class="st0" d="M266.6,166.5c1.3,3.1,2.5,6.3,3.8,9.6c4.8-1.4,9.7-2.3,14.6-2.7v-1.1c0.1-6.3-1-12.5-3.2-18.4
		C277.2,158.6,272.1,162.8,266.6,166.5z"/>
	<path class="st0" d="M285,173.4c-5,0.4-10,1.3-14.8,2.7c-1.1-3.3-2.3-6.4-3.8-9.6c5.5-3.7,10.7-7.9,15.3-12.6
		c2.1,5.9,3.1,12.1,3.2,18.4V173.4z"/>
	<path class="st0" d="M268.3,134.2c4.6,4.2,8.4,9.2,11.4,14.6c-4.5,5-9.7,9.5-15.3,13.2c-2.6-4.5-5.4-8.8-8.5-13
		C260.9,144.9,265.1,139.9,268.3,134.2z"/>
	<path class="st0" d="M197.9,108.8c41.8,3.2,58.6,14.1,67.6,22.5c-3.2,5.4-7.4,10.1-12.4,13.9c-8.8-10-20-17.7-32.5-22.4
		c2.4-0.5,4.9-0.9,7.4-1.1c4.5,1,8.9,2.4,13.2,4l0.2-0.4C231.8,118.7,215.6,112.9,197.9,108.8z"/>
	<path class="st0" d="M188.4,184h-3.2c-1-4.1-1.5-8.3-1.4-12.4c0-7.7,1.7-15.3,5-22.2c12.8,4.7,25.6,9.4,38.4,9.4
		c8.8,0,17.4-2.5,24.9-7.2c3.3,4,6.2,8.3,8.7,12.8C238.7,177.1,213.8,183.9,188.4,184z"/>
	<path class="st0" d="M233.8,222.4c-21.6-0.4-39.5-13.5-47.3-33.7h0.9c26.4,0.1,52.4-6.7,75.4-19.8c1.3,2.9,2.4,5.9,3.2,9
		C248.4,186.7,240.7,205.3,233.8,222.4z"/>
	<path class="st0" d="M273.3,204v-4.7c0.1-6.3-0.6-12.6-2-18.8c4.3-1.4,8.7-2.3,13.2-2.7C283.2,187.4,279.3,196.4,273.3,204z"/>
	<path class="st0" d="M249.3,147.9c-6.7,4.1-14.4,6.2-22.2,6.1c-12.1,0-24.2-4.3-35.9-8.8c2-3.3,4.4-6.5,7-9.4h0.7
		c7.6,0,20,5.6,26.1,9l0.4-0.4c-17.9-21.1-63.7-24.5-93.4-24.5h-8.5c12.2-2.9,24.8-4.4,37.3-4.3
		C193.8,115.6,228.8,125.4,249.3,147.9z"/>
	<path class="st0" d="M267,210.5c-8,6.6-17.8,10.7-28.1,11.7c6.3-15.3,12.8-31.9,28.5-39.5c0.9,4.5,1.4,9,1.4,13.5
		C268.8,201.1,268.2,205.9,267,210.5z"/>
	<polygon class="st0" points="225.5,106.4 234.7,103.4 241.6,111.1 240.9,100.9 249.7,97.1 240,93.8 238.5,83.7 233.5,92 
		223.7,89.5 230.2,97.8 	"/>
	<polygon class="st1" points="177.2,113.8 183.5,110.6 188.7,115.5 187.7,108.4 193.8,104.8 186.8,103.7 185.3,96.7 182.1,103 
		175,102.3 179.9,107.3 	"/>
	<polygon class="st1" points="106,127.7 110.1,125.7 113.5,128.8 113,124.3 117,122 112.3,121.1 111.4,116.5 109.2,120.7 
		104.7,120.2 107.8,123.6 	"/>
	<path class="st2" d="M263.4,190.7v-0.7l-5.8,9.7l1.6-8.7l-0.4-0.2c-8.7,10.5-11.9,17.9-14.6,27.1v0.5l0.4-0.2c6-2,11.7-5,16.8-8.8
		c1.4-3.1,2-9.4,2-17.1L263.4,190.7z"/>
	<path class="st2" d="M243.9,167.9c-10,1.9-20.2,3-30.5,3.1c-1.4,0-2.9,0-4.3-0.2l21.5-6.5V164c-14.2-0.7-25.2-0.9-39.1-7.4
		l-0.2-0.2l-0.2,0.2c-2.2,4.4-3.3,9.3-3.2,14.2c0,3,0.4,6,1.3,8.8h1.6c6.1,0,31.7-0.5,53.2-11.4L243.9,167.9z"/>
	<path class="st2" d="M248.6,185.4c-10.8,8.1-19.1,14.6-35,17.5c14.8-7.6,24.7-13,34.1-22.5l-0.4-0.4c-16.6,9.7-38.2,13.9-53.4,14.4
		h-0.5l0.4,0.4c12.4,19.8,28.3,21.6,33.5,21.6h1.8v-0.2c6.9-10.6,11.2-20.9,19.8-30.7L248.6,185.4z"/>
	<path class="st3" d="M237.4,119.2c-0.7-0.5-1.5-0.9-2.3-1.1c12.8,3.8,21.5,8.7,26.3,12.4c-0.7,1.1-1.6,2.1-2.5,3.1
		C252.8,127.5,245.5,122.6,237.4,119.2z M276.9,191.2v-0.9c0.8-3.4,1.2-6.8,1.3-10.3c0.9-0.4,1.9-0.6,2.9-0.5
		C280.1,183.5,278.7,187.4,276.9,191.2L276.9,191.2z M282.3,168.7c-1.6,0.1-3.1,0.4-4.7,0.7c-0.3-2.5-0.9-5-1.6-7.4
		c1.8-1.2,3.4-2.7,4.9-4.3C281.9,161.2,282.4,164.9,282.3,168.7L282.3,168.7z M276.7,147.6c-1.6,1.4-2.9,2.9-4.3,4.1
		c-1.4-3.4-3.3-6.6-5.4-9.6c1.1-1.4,2.2-2.7,3.1-4.1C272.7,140.9,274.9,144.1,276.7,147.6z"/>
</g>
</svg>
