<?xml version="1.0" encoding="utf-8"?>
<!-- Generator: Adobe Illustrator 23.0.6, SVG Export Plug-In . SVG Version: 6.00 Build 0)  -->
<svg version="1.1"
	 id="svg47582" xmlns:cc="http://creativecommons.org/ns#" xmlns:dc="http://purl.org/dc/elements/1.1/" xmlns:rdf="http://www.w3.org/1999/02/22-rdf-syntax-ns#" xmlns:svg="http://www.w3.org/2000/svg"
	 xmlns="http://www.w3.org/2000/svg" xmlns:xlink="http://www.w3.org/1999/xlink" x="0px" y="0px" viewBox="0 0 300 300"
	 style="enable-background:new 0 0 300 300;" xml:space="preserve">
<style type="text/css">
	.st0{fill:#0067B1;}
	.st1{fill:#FFFFFF;}
	.st2{fill:#ED174F;}
</style>
<g id="g47425" transform="matrix(20.524254,0,0,-20.524254,-9661.7066,6160.2969)">
	<g id="g14509" transform="translate(490.4181,287.8815)">
		<path id="path14511" class="st0" d="M-12.4,12.2c-4,0-7.3-3.2-7.3-7.3s3.3-7.3,7.3-7.3c4,0,7.3,3.3,7.3,7.3S-8.4,12.2-12.4,12.2"
			/>
	</g>
	<g id="g14513" transform="translate(495.7422,271.8822)">
		<path id="path14515" class="st1" d="M-14.2,17.7c0.4-0.6,0.7-1.2,1-1.7c-1.2-1.1-2.9-1.8-4.6-1.7c0,1.5,0.7,3,1.2,3.6
			c-0.1,0.1-0.1,0.1-0.2,0.2c-0.5-0.6-1.3-2.2-1.3-3.8c-2,0.1-3.8,1.1-4.9,2.6c0.6,0.2,1.2,0.4,1.8,0.7c-0.1,0.1-0.2,0.1-0.3,0.1
			c-0.5-0.2-1.1-0.4-1.6-0.6c-0.7,1-1.1,2.3-1.2,3.6c0.4-0.1,0.9-0.1,1.4-0.1l0,0.3c-0.5,0-1,0-1.4,0.1c0,2.1,1,3.9,2.5,5.1
			c0.9-0.6,2.4-1.9,3.7-3.4c-0.1-0.1-0.2-0.2-0.2-0.2l0.3-0.1c1.3,1.1,2.4,2.8,2.7,4.8c1.2-0.4,2.2-1.1,2.9-2.1
			c-1.1-1.6-2.7-3.3-4.5-4.7c0-0.1,0.1-0.2,0.1-0.2c1.8,1.4,3.4,3,4.6,4.7c0.8-1,1.2-2.2,1.3-3.6c-1.7-0.2-2.8-0.7-3.7-1.3
			c0-0.1,0.1-0.2,0.2-0.2c0.8,0.5,1.9,1,3.4,1.2c0-0.1,0-0.1,0-0.2c0-1.8-0.7-3.5-1.9-4.7c-0.3,0.5-0.6,1.1-1,1.7L-14.2,17.7"/>
	</g>
	<g id="g14517" transform="translate(489.9792,279.8365)">
		<path id="path14519" class="st1" d="M-12.2,15c-1.4,1.5-2.7,2.8-3.7,3.4c1.1,0.8,2.5,1.3,4,1.3c0.7,0,1.3-0.1,2-0.3
			C-10.1,17.6-11.1,16.1-12.2,15"/>
	</g>
	<g id="g14521" transform="translate(485.0269,282.9667)">
		<path id="path14523" class="st0" d="M-10.5,13.9l0.1-0.2h0.2l-0.1-0.1l0.1-0.2l-0.1,0.1l-0.1-0.1l0.1,0.2l-0.1,0.1h0.2L-10.5,13.9
			z"/>
	</g>
	<g id="g14525" transform="translate(486.6294,282.0345)">
		<path id="path14527" class="st0" d="M-11.1,14.2l0.1-0.2h0.2L-11,14l0.1-0.2l-0.1,0.1l-0.1-0.1l0.1,0.2l-0.1,0.1h0.2L-11.1,14.2z"
			/>
	</g>
	<g id="g14529" transform="translate(485.9423,282.7542)">
		<path id="path14531" class="st0" d="M-10.8,14l0.1-0.2h0.2l-0.1-0.1l0.1-0.2l-0.1,0.1l-0.1-0.1l0.1,0.2l-0.1,0.1h0.2L-10.8,14z"/>
	</g>
	<g id="g14533" transform="translate(486.8898,281.1519)">
		<path id="path14535" class="st0" d="M-11.1,14.5l0.1-0.2h0.2l-0.1-0.1l0.1-0.2l-0.1,0.1l-0.1-0.1l0.1,0.2l-0.1,0.1h0.2L-11.1,14.5
			z"/>
	</g>
	<g id="g14537" transform="translate(486.7758,280.2202)">
		<path id="path14539" class="st0" d="M-11.1,14.9l0.1-0.2h0.2l-0.1-0.1l0.1-0.2l-0.1,0.1l-0.1-0.1l0.1,0.2l-0.1,0.1h0.2L-11.1,14.9
			z"/>
	</g>
	<g id="g14541" transform="translate(486.2607,279.4755)">
		<path id="path14543" class="st0" d="M-10.9,15.1l0.1-0.2h0.2l-0.1-0.1l0.1-0.2l-0.1,0.1l-0.1-0.1l0.1,0.2l-0.1,0.1h0.2L-10.9,15.1
			z"/>
	</g>
	<g id="g14545" transform="translate(485.4517,279.0599)">
		<path id="path14547" class="st0" d="M-10.7,15.3l0.1-0.2h0.2l-0.1-0.1l0.1-0.2l-0.1,0.1l-0.1-0.1l0.1,0.2l-0.1,0.1h0.2L-10.7,15.3
			z"/>
	</g>
	<g id="g14549" transform="translate(483.3974,282.1165)">
		<path id="path14551" class="st0" d="M-9.9,14.2L-10,14h-0.2l0.1-0.1l-0.1-0.2l0.1,0.1l0.1-0.1l-0.1,0.2l0.1,0.1h-0.2L-9.9,14.2z"
			/>
	</g>
	<g id="g14553" transform="translate(484.0669,282.7542)">
		<path id="path14555" class="st0" d="M-10.2,14l-0.1-0.2h-0.2l0.1-0.1l-0.1-0.2l0.1,0.1l0.1-0.1l-0.1,0.2l0.1,0.1h-0.2L-10.2,14z"
			/>
	</g>
	<g id="g14557" transform="translate(483.0862,281.2671)">
		<path id="path14559" class="st0" d="M-9.8,14.5l-0.1-0.2h-0.2l0.1-0.1l-0.1-0.2l0.1,0.1l0.1-0.1l-0.1,0.2l0.1,0.1h-0.2L-9.8,14.5z
			"/>
	</g>
	<g id="g14561" transform="translate(483.1685,280.3345)">
		<path id="path14563" class="st0" d="M-9.9,14.8l-0.1-0.2h-0.2l0.1-0.1l-0.1-0.2l0.1,0.1l0.1-0.1l-0.1,0.2l0.1,0.1h-0.2L-9.9,14.8z
			"/>
	</g>
	<g id="g14565" transform="translate(483.6833,279.5736)">
		<path id="path14567" class="st0" d="M-10,15.1l-0.1-0.2h-0.2l0.1-0.1l-0.1-0.2l0.1,0.1l0.1-0.1l-0.1,0.2l0.1,0.1H-10L-10,15.1z"/>
	</g>
	<g id="g14569" transform="translate(484.4928,279.0914)">
		<path id="path14571" class="st0" d="M-10.3,15.2l-0.1-0.2h-0.2l0.1-0.1l-0.1-0.2l0.1,0.1l0.1-0.1l-0.1,0.2l0.1,0.1h-0.2
			L-10.3,15.2z"/>
	</g>
	<g id="g14573" transform="translate(487.105,272.7885)">
		<path id="path14575" class="st0" d="M-11.2,17.4c-0.3-0.2-0.6-0.3-1-0.5c0,0.1,0,0.2,0,0.3c0.3,0.1,0.6,0.3,0.9,0.5
			C-11.3,17.6-11.3,17.5-11.2,17.4"/>
	</g>
	<g id="g14625" transform="translate(495.7773,272.2524)">
		<path id="path14627" class="st0" d="M-14.2,17.6h-1v0.2l0.2,0v0.8c0,0.3,0,0.4-0.2,0.4v0.2l0.7,0.2c0.1-0.2,0.1-0.3,0.1-0.5h0
			c0.1,0.2,0.2,0.5,0.4,0.5c0.2,0,0.3-0.2,0.3-0.3c0-0.2-0.1-0.3-0.2-0.3c-0.1,0-0.2,0-0.2,0.1c-0.1,0-0.2-0.5-0.2-0.6v-0.3l0.2,0
			V17.6z"/>
	</g>
	<g id="g14629" transform="translate(498.295,274.5579)">
		<path id="path14631" class="st0" d="M-15.1,16.8c0-0.2-0.1-0.2-0.3-0.2c-0.2,0-0.3,0.1-0.3,0.3c-0.1,0-0.1,0-0.1-0.2
			c0-0.3,0.8-0.1,0.8-0.8c0-0.5-0.4-0.7-0.8-0.7c-0.2,0-0.6,0-0.6,0.4c0,0.2,0.1,0.3,0.2,0.3c0.2,0,0.3-0.2,0.3-0.4c0,0,0,0,0.1,0
			c0.1,0,0.2,0.1,0.2,0.1c0,0.3-0.8,0.2-0.8,0.9c0,0.4,0.5,0.6,0.8,0.6C-15.3,17.2-15.1,17.1-15.1,16.8"/>
	</g>
	<g id="g14633" transform="translate(489.2514,272.495)">
		<path id="path14635" class="st0" d="M-12,17.5c-0.4,0-0.3,0.4-0.3,1s0,1,0.3,1c0.4,0,0.4-0.4,0.4-1S-11.7,17.5-12,17.5 M-11.5,20
			c-0.3,0-0.6-0.1-0.8-0.4h0l0,0.5c0,0.3,0.1,1.1,0.5,1.1c0.2,0,0.2-0.3,0.2-0.4c0.1-0.3,0.2-0.6,0.6-0.6c0.3,0,0.6,0.2,0.6,0.5
			c0,0.6-0.5,0.9-1,0.9c-1.5,0-2.1-1.1-2.1-2.5c0-1.2,0.5-2.2,1.7-2.2c0.8,0,1.5,0.6,1.5,1.6C-10.4,19.4-10.8,20-11.5,20"/>
	</g>
	<g id="g14637" transform="translate(482.5327,278.9433)">
		<path id="path14639" class="st2" d="M-9.6,15.3v-1.7c1-0.1,2.1,0,3,1.2c0,0.1,0.1,0,0,0c-0.2-0.5-0.8-0.9-1.2-1.3
			c-0.5-0.4-1.7-1.6-1.7-2.8c0-0.1,0-0.1,0.1,0c0.4,0.3,1.1,0.3,1.5,0.1c0.1,0,0.1,0,0.1,0.1c-0.1,0.9,0.1,1.8,0.5,2.4
			c0.3,0.4,0.9,1.4,1.1,2.1c0,0.1,0,0.1-0.1,0C-7.2,14.4-8.6,14.4-9.6,15.3C-9.6,15.4-9.6,15.3-9.6,15.3"/>
	</g>
	<g id="g14641" transform="translate(492.8196,274.1113)">
		<path id="path14643" class="st0" d="M-13.2,17c0,0.1,0,0.4,0.2,0.4c0.1,0,0.2-0.2,0.2-0.3c0-0.1-0.1-0.2-0.2-0.2l-0.2,0V17z
			 M-12.8,16.1c-0.2,0-0.3,0.2-0.4,0.4l0.9,0.3c0,0.5-0.3,0.9-0.8,0.9c-0.5,0-0.9-0.4-0.9-1c0-0.5,0.3-0.9,0.8-0.9
			c0.3,0,0.6,0.2,0.8,0.4l-0.2,0.2C-12.5,16.2-12.6,16.1-12.8,16.1"/>
	</g>
</g>
</svg>
