<?xml version="1.0" encoding="utf-8"?>
<!-- Generator: Adobe Illustrator 23.0.6, SVG Export Plug-In . SVG Version: 6.00 Build 0)  -->
<svg version="1.1" id="Layer_1" xmlns="http://www.w3.org/2000/svg" xmlns:xlink="http://www.w3.org/1999/xlink" x="0px" y="0px"
	 viewBox="0 0 300 300" style="enable-background:new 0 0 300 300;" xml:space="preserve">
<style type="text/css">
	.st0{fill:#430D6E;}
	.st1{fill:#63696E;}
	.st2{fill:#F0A708;}
	.st3{fill:#D4612C;}
	.st4{fill:#FFFFFF;}
</style>
<g>
	<path class="st0" d="M175.5,101.1c9.1,0,12.9-15.9,24.7-21c11.8-5.1,29.4,0,29.4,0s-12.9,0-16.6,9.8c-3.7,9.8,8.1,11.8,16.9,5.4
		c8.8-6.4,28.1-5.8,34.5-2.7c6.4,3,13.9,3,20.6,0.7c6.8-2.4,13.9-7.8,13.9-7.8s-3.4,15.6-15.2,24.4c-11.8,8.8-26.1,5.8-30.8,7.1
		s-8.1,6.8-7.8,10.5c0.3,3.7,5.1,7.4,10.2,7.4c5.1,0,12.5-1.7,12.5-1.7s1.7,10.2-11.5,21.3c-13.2,11.2-30.5,7.1-30.5,7.1l-63.8,11.5
		l0.4,4.4l-12.4-2.2l-12.4,2.2l0.4-4.4l-63.8-11.5c0,0-17.3,4.1-30.5-7.1c-13.2-11.2-11.5-21.3-11.5-21.3s7.4,1.7,12.5,1.7
		s9.8-3.7,10.2-7.4c0.3-3.7-3-9.1-7.8-10.5c-4.7-1.4-19,1.7-30.8-7.1S1,85.6,1,85.6s7.1,5.4,13.9,7.8s14.2,2.4,20.6-0.7
		s25.7-3.7,34.5,2.7S90.7,99.8,87,90c-3.7-9.8-16.6-9.8-16.6-9.8s17.6-5.1,29.4,0c11.8,5.1,15.6,21,24.7,21
		c11.8,0,12.5-16.2,12.5-16.2s-2.7,0.7-6.4,0s-7.4-2-7.4-2s6.4-2,9.1-4.1c2.7-2,5.1-6.1,5.1-6.1s-2,0-4.7-1c-2.7-1-5.4-3.7-5.4-3.7
		s7.8-0.3,16.2-6.4c8.5-6.1,11.2-6.1,13.5-6.1c2.4,0,3.7,0.7,5.1,1.7l1.4,1c0,0,5.8-2.7,12.2-3c6.4-0.3,12.5,0.7,14.9,4.7
		c0,0-4.1,0.7-8.8,3.4s-8.8,6.4-8.8,6.4s2.7-0.7,5.4-1c2.7-0.3,7.8-0.3,7.8-0.3s-13.5,7.2-17.6,16.6
		C163.1,97.1,168.9,101.1,175.5,101.1L175.5,101.1z"/>
	<g>
		<path class="st1" d="M12.8,97.7c0,0,2.7,3.4,10.8,3.4S36.9,96,50.1,96s23.7,8.5,27.4,12.2c0,0-1.4-2.7-12.9-2.7
			s-13.5,5.4-27.1,5.4S18.6,104.5,12.8,97.7L12.8,97.7z M88.7,83.5c0,0,6.4-1.7,12.9,4.1s4.1,9.1,11.5,13.9c0,0-8.1,1-14.2-4.4
			C92.7,91.6,96.8,88.3,88.7,83.5L88.7,83.5z M286.9,97.7c0,0-2.7,3.4-10.8,3.4S262.9,96,249.7,96c-13.2,0-23.7,8.5-27.4,12.2
			c0,0,1.4-2.7,12.9-2.7c11.5,0,13.5,5.4,27.1,5.4C275.7,110.9,281.1,104.5,286.9,97.7L286.9,97.7z M211.1,83.5
			c0,0-6.4-1.7-12.9,4.1c-6.4,5.8-4.1,9.1-11.5,13.9c0,0,8.1,1,14.2-4.4C207,91.6,203,88.3,211.1,83.5z M140.1,98.4
			c0,0,0-9.8,10.2-22.3s25.4-16.6,25.4-16.6s-6.1,3.7-9.5,7.4c-3.4,3.7-7.4,8.8,3.4,8.8c0,0-8.5,3-16.2,9.1
			C145.5,91,140.1,98.4,140.1,98.4z"/>
	</g>
	<path class="st2" d="M233.3,113.6c7.8-2.4,12.2-2,12.2-2s-9.8-3.7-17.9-2.7c-8.1,1-11.8,7.8-17.9,11.2c-6.1,3.4-14.6,0.7-15.2-7.1
		s5.1-9.5,5.1-9.5s-5.1-0.3-10.5,3c-5.4,3.4-16.2,4.1-24.4,0.7c-2.7-1.1-5.1-2.6-7.2-4.1c-1.5-1.6-3-4.1-3.8-7c-1-4.1,2-8.1,2-8.1
		s-7.1,4.4-10.8,10.5c-3.7,6.1-8.8,8.1-8.8,8.1l0,0.1c-0.4,0.2-0.9,0.4-1.4,0.6c-8.1,3.4-19,2.7-24.4-0.7c-5.4-3.4-10.5-3-10.5-3
		s5.8,1.7,5.1,9.5c-0.7,7.8-9.1,10.5-15.2,7.1c-6.1-3.4-9.8-10.2-17.9-11.2c-8.1-1-17.9,2.7-17.9,2.7s4.4-0.3,12.2,2
		c7.8,2.4,10.8,7.4,10.8,12.9c0,5.4-2.7,8.8-6.4,8.8c-3.7,0-7.8-3-7.8-3s0.3,6.4,5.1,11.2c4.7,4.7,10.2,4.4,10.2,4.4l71.8-0.6
		l71.8,0.6c0,0,5.4,0.3,10.2-4.4c4.7-4.7,5.1-11.2,5.1-11.2s-4.1,3-7.8,3c-3.7,0-6.4-3.4-6.4-8.8C222.5,121.1,225.5,116,233.3,113.6
		z M66.5,202.6l25.8,8.8l113.4,0.7l26.4-9.4l-18.9-12.2l-135.4-1.4L66.5,202.6z"/>
	<path class="st1" d="M77,188.4l-12.3,14.7l27.5,9.4l113.7,0.7l28.6-10.2l-21-13.6L77.3,188L77,188.4L77,188.4z M78.3,190.2
		l134.6,1.3l16.8,10.9l-24.1,8.6l-113-0.7l-24.2-8.3C71.7,198.1,75,194.2,78.3,190.2L78.3,190.2z"/>
	<circle class="st0" cx="149.6" cy="176.1" r="68.9"/>
	<g>
		<path class="st3" d="M176.6,129.1c4.3-0.9,7.5-3.4,10.1-7.6c-8.8-6.5-19.6-10.6-31.3-11.2c3.2,2.2,6.4,4.6,8.4,6.3
			C167.1,119.6,172,123.9,176.6,129.1z M142.5,119.7c7.8,3,19.5,8.4,27.1,9.6c-2.4-2.8-6.4-7.2-11.2-10.9c-3.9-3.1-7.9-5.9-10.9-7.9
			c-7.6,0.6-14.9,2.7-21.7,6.2C130.9,117,137.7,117.9,142.5,119.7z M190.9,125c-1,1.6-2.2,3.2-3.7,4.6c-2,1.8-4.5,3.3-6.7,4.3
			c1.1,1.4,2.1,2.9,3,4.4l1-1l7.1,40.6l-3,23c0,0-3.4,9.6-7.4,17.7c17.4-10,29.2-28.8,29.2-50.4C210.3,151.1,202.8,135.6,190.9,125
			L190.9,125z"/>
		<path class="st3" d="M133.7,197.9c6.8-14.2,13.9-16.9,13.9-16.9l-3.7,20.3c0,0-8.6,12.3-15.3,20c7.5,3.4,15.6,5.1,23.7,5.1
			c4,0,7.8-0.4,11.6-1.2c4.2-5.5,12-16.8,15.8-28.6c5.4-16.6,1.7-34.5,1.7-34.5l-1.4-20.6l1.5-1.3c-1.7-1.1-3.7-2.8-5.5-4.3
			c-0.4,0.1-0.7,0.2-0.7,0.2l-17.9-4.4c0,0-10.8-4.7-28.4-6.4c-5.3-0.5-10.5-0.5-15.2-0.2c-12,10.6-19.5,26.1-19.5,43.4
			c0,19.8,9.9,37.3,25.1,47.8C122.8,213.4,129,207.7,133.7,197.9L133.7,197.9z"/>
	</g>
	<path class="st2" d="M160.7,244.1l3.1-0.6c0.2-0.2,20.5-19,26.2-43.7l-1.7-0.4C182.7,223.6,160.9,243.9,160.7,244.1L160.7,244.1z
		 M110.2,232.6l2.9,1.9c18.1-2.8,31.4-31.4,32-32.6l-2.6-1.3C142.4,201,126.9,230,110.2,232.6L110.2,232.6z M101.2,126.7l-2.4,2.7
		c0.1,0,11.4-3.7,22.3-3.4c11.2,0.3,29,3.7,42.4,8.1l0.6-1.7c-13.5-4.4-31.5-7.8-42.9-8.2C110,123.9,101.6,126.6,101.2,126.7
		L101.2,126.7z M148.9,106.8c0.1,0.1,11.7,7.5,16,11.1c4.3,3.6,10.9,11.4,11,11.5l1.6-0.5c-0.3-0.3-7-8.6-11.4-12.4
		c-4.4-3.7-12.8-9.1-13.2-9.3L148.9,106.8z M185,124c-6.1-3.7-15.1-8-15.1-8s7.9,6.3,12.3,10.6C183,126,184.1,125.1,185,124z
		 M187.4,128.8c-2.5,2.6-9,5.8-9,5.8l2.9,0.5c0.2-0.1,4.7-2.2,7.4-5.1c2.7-2.9,4.8-7.4,4.9-7.6l-1.4-1.3
		C192.2,121.1,189.9,126.1,187.4,128.8L187.4,128.8z"/>
	<path class="st2" d="M200,140.4c-2.7-5.3-6.3-9.7-10.6-13.3c0,0-2.4,2.7-3.5,3.5c3.2,3.7,6.3,7.8,6.3,7.8S202.7,145.8,200,140.4
		L200,140.4z"/>
	<path class="st0" d="M233.2,148.8v53.1H65.8v-53.1c0,0,41-15.7,82.7-15.7S233.2,148.8,233.2,148.8L233.2,148.8z"/>
	<path class="st1" d="M65.4,147.8l-0.7,0.3V203h169.5v-55l-0.7-0.3c-0.4-0.2-43.5-15.8-85-15.8C107.1,132,65.8,147.6,65.4,147.8
		L65.4,147.8z M148.6,134.1c38.2,0,77.9,13.4,83.5,15.4v51.3H66.9v-51.3C72.4,147.5,110.4,134.1,148.6,134.1z"/>
	<g>
		<path d="M117,148.3c-2.1-1.9-5.7-2.7-9.4-2.1c-6.8,0.9-27.5,7.9-28.4,8.2l-0.7,0.2v8.6l3.3-0.4v21.3h-3.5v9.2h23.3v-10.5h-4.4
			v-6.7c2.1-0.2,7.6-0.7,13.1-1.3c8.6-1,8.8-8.3,8.8-8.9l0,0l0,0v-13.1C119,151,118.3,149.5,117,148.3L117,148.3z M97,166.9V159
			l6.2-1.1v8.3L97,166.9L97,166.9z M162.7,142.4c-7.1-0.6-11.6-0.2-11.8-0.2l-1,0.1v19.4h-7.1v-19.5h-1.1c0,0-4.4,0-11.4,0.6
			c-4.9,0.4-9.3,1.3-9.4,1.4l-0.8,0.2v11.1h4.4V182H120v11.3h22.8v-19.8h7.1v19.8h22.8V182h-4.4v-27.3h4.4v-10.9l-0.9-0.2
			C171.6,143.6,167.6,142.8,162.7,142.4L162.7,142.4z M216.3,183.5l-8.6-12.5l7.5-8.5c0.9,0.3,4.1,1.2,4.1,1.2v-9.4l-0.6-0.3
			c-2.3-1.3-14.3-4.6-15.7-5l-1.4-0.4v7.1l-2.6,2.6l-8.4-12.3l-15.9-2.3v11.8l4.2,0.1l10.1,14.2l-9.6,12.1h-4.7v11.3h19.5v-6.1
			l3.8-4.8l7.8,10.9h14.3v-9.8L216.3,183.5L216.3,183.5z"/>
		<g>
			<path class="st4" d="M120.1,164.5v-13.1c0-4.2-5-6.3-10.3-5.5c-6.8,0.9-28.2,8.2-28.2,8.2v6.6l3.3-0.4v23.6h-3.5v7h21.2v-8.4
				h-4.4v-8.8c0,0,7-0.6,14-1.4C120.3,171.4,120.1,164.5,120.1,164.5L120.1,164.5z M106.4,165.6l-8.3,1.1v-10.1l8.3-1.5V165.6z
				 M173.7,152.2v-8.9c0,0-4-0.9-8.9-1.2c-7.1-0.6-11.7-0.2-11.7-0.2v19.5h-9.3v-19.5c0,0-4.3,0-11.3,0.6c-4.9,0.4-9.3,1.3-9.3,1.3
				v9.2h4.4v28.8h-4.4v9.1h20.6V171h9.3v19.8h20.6v-9.1h-4.4v-29.5L173.7,152.2L173.7,152.2z M178.1,153.1v-9.5l14.2,2l8.8,13
				l3.8-3.8v-6.2c0,0,13.2,3.7,15.4,4.9v7.3l-3.4-1l-8.5,9.6l9.4,13.7h3.4v7.7h-12.6l-8.3-11.6l-4.9,6.2v5.4h-17.4v-9.1h4.1
				l10.4-13.1l-10.9-15.3L178.1,153.1L178.1,153.1z"/>
		</g>
		<g>
			<path class="st1" d="M109.7,144.7c-6.8,0.9-27.5,7.9-28.4,8.2l-0.7,0.2v8.6l3.3-0.4v21.3h-3.5v9.2h23.3v-10.5h-4.4v-6.7
				c2.1-0.2,7.6-0.7,13.1-1.3c8.6-1,8.8-8.3,8.8-8.9l0,0l0,0v-13.1c0-1.7-0.7-3.3-2.1-4.5C117,145,113.5,144.2,109.7,144.7
				L109.7,144.7z M110,146.8c3.1-0.4,6.1,0.2,7.7,1.6c0.9,0.8,1.3,1.7,1.3,2.9v13.2c0,0.2,0.1,6-6.9,6.7c-7,0.8-13.9,1.3-14,1.3
				l-1,0.1v10.8h4.4v6.2h-19v-4.9H86V159l-3.3,0.4v-4.7C86.4,153.5,104.1,147.7,110,146.8L110,146.8z"/>
			<path class="st1" d="M106.2,154.1l-9.2,1.7v12.2l10.5-1.4v-12.7L106.2,154.1z M105.3,156.4v8.3l-6.2,0.8v-7.9L105.3,156.4
				L105.3,156.4z M153,140.7l-1,0.1v19.4h-7.1v-19.5h-1.1c0,0-4.4,0-11.4,0.6c-4.9,0.4-9.3,1.3-9.4,1.4l-0.8,0.2V154h4.4v26.6h-4.4
				v11.3h22.8v-19.8h7.1v19.8h22.8v-11.3h-4.4v-27.3h4.4v-10.9l-0.9-0.2c-0.2,0-4.1-0.9-9.1-1.3C157.8,140.4,153.2,140.7,153,140.7z
				 M164.6,143.1c3.5,0.3,6.5,0.8,8,1.1v6.9h-4.4v31.6h4.4v7h-18.4V170h-11.4v19.8h-18.4v-7h4.4v-30.9h-4.4v-7.2
				c1.5-0.3,4.8-0.9,8.3-1.2c4.9-0.4,8.5-0.5,10.1-0.5v19.5h11.4v-19.5C155.9,142.8,159.6,142.7,164.6,143.1L164.6,143.1z
				 M177,143.6v10.6l4.2,0.1l10.1,14.2l-9.6,12.1H177v11.3h19.5v-6.1l3.8-4.8l7.8,10.9h14.3V182h-3.9l-8.6-12.5l7.5-8.5
				c0.9,0.3,4.1,1.2,4.1,1.2v-9.4l-0.6-0.3c-2.3-1.3-14.3-4.6-15.7-5l-1.4-0.4v7.1l-2.6,2.6l-8.4-12.3l-15.9-2.3L177,143.6
				L177,143.6z M179.1,144.8l12.5,1.8l9.3,13.7l5-5v-5.2c3.9,1.1,10.9,3.2,13.3,4.2v5.1l-2.6-0.8l-9.5,10.8l10.2,14.8h2.8v5.5h-11
				l-8.8-12.3l-6.1,7.6v4.7h-15.2v-7h3.6l11.2-14.1l-11.6-16.4l-3.2-0.1L179.1,144.8L179.1,144.8z"/>
		</g>
	</g>
</g>
</svg>
