<?xml version="1.0" encoding="utf-8"?>
<!-- Generator: Adobe Illustrator 23.0.6, SVG Export Plug-In . SVG Version: 6.00 Build 0)  -->
<svg version="1.1"
	 id="Layer_1" xmlns:cc="http://creativecommons.org/ns#" xmlns:dc="http://purl.org/dc/elements/1.1/" xmlns:rdf="http://www.w3.org/1999/02/22-rdf-syntax-ns#"
	 xmlns="http://www.w3.org/2000/svg" xmlns:xlink="http://www.w3.org/1999/xlink" x="0px" y="0px" viewBox="0 0 300 300"
	 style="enable-background:new 0 0 300 300;" xml:space="preserve">
<style type="text/css">
	.st0{fill:#FFFFFF;}
	.st1{fill:#CF0A2C;}
</style>
<g>
	<path d="M252.2,81c-4.4-6.6-9.4-12.7-15.1-18.2c-2.4-2.5-5-4.8-7.6-6.9l55-54.8H124.6L62.9,62.7l-0.1,0.1
		c-5.6,5.6-10.6,11.7-15.1,18.2c-4.4,6.6-8.2,13.7-11.3,21c-12.9,30.6-12.9,65.2,0,95.9c3.1,7.3,6.9,14.3,11.3,20.9
		c4.4,6.6,9.4,12.7,15.1,18.2c2.4,2.5,4.9,4.9,7.6,7.1L15.6,299h159.8l61.9-62c11.2-11.1,20.2-24.4,26.3-39
		c12.9-30.6,12.9-65.2,0-95.9C260.6,94.7,256.8,87.6,252.2,81z"/>
	<path class="st0" d="M230,70c-2.4-2.5-5-4.9-7.5-7.1l-67,67.3c3.4,1,6.6,2.8,9.1,5.3c7.9,8.1,7.9,21.1,0,29.3L40.3,289.1H55
		l116.9-117c12.1-12.1,12.2-31.6,0.3-43.8l7.2-7.2c16,16.1,16,42.1-0.1,58.2c0,0,0,0,0,0l-0.1,0.1L69.5,289.1h14.6l102.5-102.5
		c20-20.2,20.1-52.7,0.1-72.9l7.2-7.2c24.1,24.2,24.1,63.3-0.1,87.4l-0.1,0.1l-95.1,95.1h14.6l87.9-87.9
		c28.2-28.1,28.3-73.8,0.1-102l7.4-7.4c32.1,32.3,32,84.6-0.3,116.7l-80.6,80.6h14.7l73.2-73.4c36.3-36.1,36.3-94.8,0.2-131.1
		l-0.1-0.1l7.4-7.4c40.2,40.3,40.1,105.6-0.3,145.8c0,0,0,0,0,0l-65.9,66h14.6l58.7-58.7C274.3,186.1,274.3,114.3,230,70z"/>
	<path class="st1" d="M70.2,230.2c2.4,2.5,4.9,4.8,7.5,6.9l67-67c-3.5-0.9-6.6-2.7-9.1-5.3c-8.1-8.1-8.1-21.2,0-29.2l0,0L260,11
		h-14.6L128.3,128.2c-12.1,12.1-12.2,31.7-0.1,43.8l-7.4,7.2c-16-16-16-42,0.1-58c0.1-0.1,0.2-0.2,0.2-0.2L230.9,11h-14.6
		L113.8,113.6c-20.1,20.1-20.2,52.7-0.1,72.9l-7.4,7.2c-24-24.2-23.9-63.3,0.1-87.5L201.8,11h-14.6L99.2,99.1
		c-28.2,28.1-28.3,73.8-0.1,102l-7.4,7.4c-32.1-32.3-32-84.5,0.1-116.7L172.6,11H158L84.7,84.5c-36.2,36.2-36.4,94.8-0.3,131.1
		l-7.2,7.4C36.9,182.7,37,117.4,77.3,77.2l0,0L143.5,11h-14.6L70,70C25.8,114.3,25.9,186,70.2,230.2L70.2,230.2z"/>
</g>
</svg>
