<?xml version="1.0" encoding="utf-8"?>
<!-- Generator: Adobe Illustrator 23.0.6, SVG Export Plug-In . SVG Version: 6.00 Build 0)  -->
<svg version="1.1"
	 id="Layer_1" xmlns:cc="http://creativecommons.org/ns#" xmlns:dc="http://purl.org/dc/elements/1.1/" xmlns:rdf="http://www.w3.org/1999/02/22-rdf-syntax-ns#"
	 xmlns="http://www.w3.org/2000/svg" xmlns:xlink="http://www.w3.org/1999/xlink" x="0px" y="0px" viewBox="0 0 300 300"
	 style="enable-background:new 0 0 300 300;" xml:space="preserve">
<style type="text/css">
	.st0{clip-path:url(#SVGID_2_);}
	.st1{fill:#FFFFFF;}
	.st2{clip-path:url(#SVGID_4_);}
	.st3{fill:#5C6670;}
	.st4{clip-path:url(#SVGID_6_);}
	.st5{clip-path:url(#SVGID_8_);}
	.st6{clip-path:url(#SVGID_10_);}
	.st7{fill:#5B2B82;}
	.st8{clip-path:url(#SVGID_12_);}
	.st9{clip-path:url(#SVGID_14_);}
	.st10{clip-path:url(#SVGID_16_);}
	.st11{clip-path:url(#SVGID_18_);}
	.st12{clip-path:url(#SVGID_20_);}
	.st13{clip-path:url(#SVGID_22_);}
	.st14{clip-path:url(#SVGID_24_);}
	.st15{clip-path:url(#SVGID_26_);}
	.st16{clip-path:url(#SVGID_28_);}
	.st17{clip-path:url(#SVGID_30_);}
	.st18{clip-path:url(#SVGID_32_);}
	.st19{clip-path:url(#SVGID_34_);}
	.st20{clip-path:url(#SVGID_36_);}
	.st21{clip-path:url(#SVGID_38_);}
	.st22{clip-path:url(#SVGID_40_);}
	.st23{clip-path:url(#SVGID_42_);}
</style>
<g>
	<g>
		<defs>
			<rect id="SVGID_1_" x="18.5" width="263" height="300"/>
		</defs>
		<clipPath id="SVGID_2_">
			<use xlink:href="#SVGID_1_"  style="overflow:visible;"/>
		</clipPath>
		<g class="st0">
			<path class="st1" d="M281.5,0l-37.6,37.8L212.4,6.4l-31.6,31.4L149.4,6.4L118,37.8L86.6,6.4L55.2,37.8l-36.7-37V168
				c0,72.8,58.4,132,131.1,132c72.8-0.1,131.8-59.1,131.9-132V0z"/>
		</g>
	</g>
	<g>
		<defs>
			<rect id="SVGID_3_" x="18.5" width="263" height="300"/>
		</defs>
		<clipPath id="SVGID_4_">
			<use xlink:href="#SVGID_3_"  style="overflow:visible;"/>
		</clipPath>
		<g class="st2">
			<path class="st3" d="M30.3,191c3.1,15.8,9.3,30.7,18.3,44c5.5-9.6,16.4-21.5,37.9-26.6c-1.7-5.5-3.1-11.4-4.4-17.5L30.3,191
				L30.3,191z"/>
		</g>
	</g>
	<g>
		<defs>
			<rect id="SVGID_5_" x="18.5" width="263" height="300"/>
		</defs>
		<clipPath id="SVGID_6_">
			<use xlink:href="#SVGID_5_"  style="overflow:visible;"/>
		</clipPath>
		<g class="st4">
			<path class="st3" d="M57.1,246.3c22.9,27.1,56.5,42.8,91.9,43.1c-3.3-1.7-6.6-3.6-9.7-5.6c-14.9-9.7-35.5-28.5-48.8-63.3
				C69.7,225.1,60.9,237,57.1,246.3"/>
		</g>
	</g>
	<g>
		<defs>
			<rect id="SVGID_7_" x="18.5" width="263" height="300"/>
		</defs>
		<clipPath id="SVGID_8_">
			<use xlink:href="#SVGID_7_"  style="overflow:visible;"/>
		</clipPath>
		<g class="st5">
			<path class="st3" d="M103.5,218.8c9.4,23.7,23.6,41.9,42.3,54.1c9.7,6.4,20.6,10.9,32,13.4c19.6-4.6,37.7-14,52.8-27.3
				c-11.9-1.3-24.1-8.2-37-15.4c-20.1-11.3-45.2-25.3-79-25.3C110.9,218.3,107.2,218.4,103.5,218.8"/>
		</g>
	</g>
	<g>
		<defs>
			<rect id="SVGID_9_" x="18.5" width="263" height="300"/>
		</defs>
		<clipPath id="SVGID_10_">
			<use xlink:href="#SVGID_9_"  style="overflow:visible;"/>
		</clipPath>
		<g class="st6">
			<path class="st7" d="M154.3,129.4h-43.5v51.8h18.1v-41.5h13.6v41.5h17.2v-44.5C159.7,132.7,157.3,129.4,154.3,129.4"/>
		</g>
	</g>
	<g>
		<defs>
			<rect id="SVGID_11_" x="18.5" width="263" height="300"/>
		</defs>
		<clipPath id="SVGID_12_">
			<use xlink:href="#SVGID_11_"  style="overflow:visible;"/>
		</clipPath>
		<g class="st8">
			<path class="st7" d="M167.3,129.4v44.4c0,4,2.4,7.4,5.3,7.4h43.5v-31.4l-17.4,0v21.2h-13.6v-31.5h30.9v-10H167.3L167.3,129.4z"/>
		</g>
	</g>
	<g>
		<defs>
			<rect id="SVGID_13_" x="18.5" width="263" height="300"/>
		</defs>
		<clipPath id="SVGID_14_">
			<use xlink:href="#SVGID_13_"  style="overflow:visible;"/>
		</clipPath>
		<g class="st9">
			<polygon class="st7" points="62.7,129.4 52.9,150.3 47.2,150.3 47.2,129.4 29.2,129.4 29.2,181.2 47.2,181.2 47.2,160.3 
				52.9,160.3 62.7,181.2 80.7,181.2 68,155.3 80.7,129.4 			"/>
		</g>
	</g>
	<g>
		<defs>
			<rect id="SVGID_15_" x="18.5" width="263" height="300"/>
		</defs>
		<clipPath id="SVGID_16_">
			<use xlink:href="#SVGID_15_"  style="overflow:visible;"/>
		</clipPath>
		<g class="st10">
			<rect x="85.5" y="129.4" class="st7" width="18.6" height="51.8"/>
		</g>
	</g>
	<g>
		<defs>
			<rect id="SVGID_17_" x="18.5" width="263" height="300"/>
		</defs>
		<clipPath id="SVGID_18_">
			<use xlink:href="#SVGID_17_"  style="overflow:visible;"/>
		</clipPath>
		<g class="st11">
			<path class="st7" d="M270.8,143.4v-14h-47.7v23.7c0,3.9,2.4,7.1,5.3,7.1h24.3v11.3h-29.7v9.7h47.8v-23.8c0-3.7-2-7.1-4.8-7.1H241
				v-10.8h12.5v4L270.8,143.4L270.8,143.4z"/>
		</g>
	</g>
	<g>
		<defs>
			<rect id="SVGID_19_" x="18.5" width="263" height="300"/>
		</defs>
		<clipPath id="SVGID_20_">
			<use xlink:href="#SVGID_19_"  style="overflow:visible;"/>
		</clipPath>
		<g class="st12">
			<polygon class="st7" points="220,76.9 204.8,76.9 236.2,45.4 212.4,21.6 180.8,53 149.4,21.6 94.2,76.9 78.9,76.9 110.3,45.4 
				86.6,21.6 55.2,53 29.2,27.2 29.2,78.8 29.2,119.9 270.8,119.9 270.8,80 270.8,26 			"/>
		</g>
	</g>
	<g>
		<defs>
			<rect id="SVGID_21_" x="18.5" width="263" height="300"/>
		</defs>
		<clipPath id="SVGID_22_">
			<use xlink:href="#SVGID_21_"  style="overflow:visible;"/>
		</clipPath>
		<g class="st13">
			<path class="st1" d="M82,109.9c0,1.3,1.1,2.4,2.4,2.4H98v-3.6H86.9V96.9H98v-3.6H82V109.9z"/>
		</g>
	</g>
	<g>
		<defs>
			<rect id="SVGID_23_" x="18.5" width="263" height="300"/>
		</defs>
		<clipPath id="SVGID_24_">
			<use xlink:href="#SVGID_23_"  style="overflow:visible;"/>
		</clipPath>
		<g class="st14">
			<path class="st1" d="M59.9,93.3v19.1h4.9v-5h6.1v5h4.9V95.7c0-1.4-1.2-2.5-2.5-2.4c-0.1,0-0.1,0-0.2,0H59.9z M70.9,103.7h-6.1
				v-6.8h6.1L70.9,103.7z"/>
		</g>
	</g>
	<g>
		<defs>
			<rect id="SVGID_25_" x="18.5" width="263" height="300"/>
		</defs>
		<clipPath id="SVGID_26_">
			<use xlink:href="#SVGID_25_"  style="overflow:visible;"/>
		</clipPath>
		<g class="st15">
			<path class="st1" d="M259.4,93.3h-11.2c-1.3,0-2.4,1.1-2.4,2.4v14.3c0,1.3,1.1,2.4,2.4,2.4h11.2c1.3,0,2.4-1.1,2.4-2.4V95.7
				C261.8,94.3,260.8,93.3,259.4,93.3 M256.9,108.7h-6.1V96.9h6.1V108.7z"/>
		</g>
	</g>
	<g>
		<defs>
			<rect id="SVGID_27_" x="18.5" width="263" height="300"/>
		</defs>
		<clipPath id="SVGID_28_">
			<use xlink:href="#SVGID_27_"  style="overflow:visible;"/>
		</clipPath>
		<g class="st16">
			<path class="st1" d="M37.7,102.2c0,1.3,1.1,2.4,2.4,2.4h8.6v4.1H37.7v3.6h16v-9c0-1.2-0.9-2.3-2.2-2.4l-0.1,0h-8.8v-4.1h11.1
				v-3.6h-16V102.2z"/>
		</g>
	</g>
	<g>
		<defs>
			<rect id="SVGID_29_" x="18.5" width="263" height="300"/>
		</defs>
		<clipPath id="SVGID_30_">
			<use xlink:href="#SVGID_29_"  style="overflow:visible;"/>
		</clipPath>
		<g class="st17">
			<path class="st1" d="M139.4,93.3h-13.6v19.1h4.9v-5h6.1v5h4.9V95.7C141.9,94.3,140.8,93.3,139.4,93.3 M136.9,103.7h-6.1v-6.8h6.1
				L136.9,103.7z"/>
		</g>
	</g>
	<g>
		<defs>
			<rect id="SVGID_31_" x="18.5" width="263" height="300"/>
		</defs>
		<clipPath id="SVGID_32_">
			<use xlink:href="#SVGID_31_"  style="overflow:visible;"/>
		</clipPath>
		<g class="st18">
			<polygon class="st1" points="224.3,96.9 229.8,96.9 229.8,112.4 234.7,112.4 234.7,96.9 240.3,96.9 240.3,93.3 224.3,93.3 			"/>
		</g>
	</g>
	<g>
		<defs>
			<rect id="SVGID_33_" x="18.5" width="263" height="300"/>
		</defs>
		<clipPath id="SVGID_34_">
			<use xlink:href="#SVGID_33_"  style="overflow:visible;"/>
		</clipPath>
		<g class="st19">
			<path class="st1" d="M173,93.3h-24.6v19.1h4.9V96.9h6.1v15.5h5V96.9h6.1v15.5h4.9V95.7C175.4,94.4,174.4,93.3,173,93.3"/>
		</g>
	</g>
	<g>
		<defs>
			<rect id="SVGID_35_" x="18.5" width="263" height="300"/>
		</defs>
		<clipPath id="SVGID_36_">
			<use xlink:href="#SVGID_35_"  style="overflow:visible;"/>
		</clipPath>
		<g class="st20">
			<path class="st1" d="M216.8,93.3h-13.6v19.1h4.9V96.9h6.1v15.5h4.9V95.7C219.3,94.3,218.2,93.3,216.8,93.3"/>
		</g>
	</g>
	<g>
		<defs>
			<rect id="SVGID_37_" x="18.5" width="263" height="300"/>
		</defs>
		<clipPath id="SVGID_38_">
			<use xlink:href="#SVGID_37_"  style="overflow:visible;"/>
		</clipPath>
		<g class="st21">
			<path class="st1" d="M182.2,109.9c0,1.3,1.1,2.4,2.4,2.4h13.6v-3.6h-11.1v-4.1h11.1V101h-11.1v-4.1h11.1v-3.6h-16L182.2,109.9
				L182.2,109.9z"/>
		</g>
	</g>
	<g>
		<defs>
			<rect id="SVGID_39_" x="18.5" width="263" height="300"/>
		</defs>
		<clipPath id="SVGID_40_">
			<use xlink:href="#SVGID_39_"  style="overflow:visible;"/>
		</clipPath>
		<g class="st22">
			<path class="st1" d="M117.1,105.4h2.6v-9.7c0-1.4-1.2-2.5-2.6-2.4c0,0-0.1,0-0.1,0h-13.3v19.1h4.9v-7h3.6l3,7h4.8L117.1,105.4z
				 M114.8,101.8h-6.1v-4.9h6.1V101.8z"/>
		</g>
	</g>
	<g>
		<defs>
			<rect id="SVGID_41_" x="18.5" width="263" height="300"/>
		</defs>
		<clipPath id="SVGID_42_">
			<use xlink:href="#SVGID_41_"  style="overflow:visible;"/>
		</clipPath>
		<g class="st23">
			<path class="st3" d="M111.9,205.6c25.7-0.5,51.2,5.9,83.7,24.4c24,13.7,34.6,17.8,41.8,16.1c6.6-1.6,12.8-5.5,23.6-28.5
				c3.9-8.5,6.8-17.5,8.6-26.7H95c1.2,5.3,2.4,10.6,4,15.4C103.3,205.9,107.6,205.6,111.9,205.6"/>
		</g>
	</g>
</g>
</svg>
