<?xml version="1.0" encoding="utf-8"?>
<!-- Generator: Adobe Illustrator 23.0.6, SVG Export Plug-In . SVG Version: 6.00 Build 0)  -->
<svg version="1.1"
	 id="Layer_1" xmlns:cc="http://creativecommons.org/ns#" xmlns:dc="http://purl.org/dc/elements/1.1/" xmlns:rdf="http://www.w3.org/1999/02/22-rdf-syntax-ns#"
	 xmlns="http://www.w3.org/2000/svg" xmlns:xlink="http://www.w3.org/1999/xlink" x="0px" y="0px" viewBox="0 0 300 300"
	 style="enable-background:new 0 0 300 300;" xml:space="preserve">
<style type="text/css">
	.st0{fill:#FFFFFF;}
	.st1{fill:#C4CED4;}
</style>
<g>
	<path class="st0" d="M90.7,162.9h18.3l-5.5,13.8L90.7,162.9z M68.8,225l-29.1,43.1l47.7-15.6l19.3,46.5l14.5-50l53.7,13.8
		l-34.8-40.3L182,188l-37.2,2.3l24.7-27.7h48.1l55-97.4V1h-39l-18.6,33.2l-3.5,25l-28,49.8h-25.7l25.2-44.5V1.2h-40.4l-18.1,33
		L121,59.4l-44,78.6l6.7,17.4l-8.5-9.2l3.5,47.4l-51.3,2.3L68.8,225z"/>
	<polygon points="126.9,61.7 83.6,138.6 90.8,156.6 117.6,156.6 105.4,187.6 82.5,162.8 85.2,199.3 45.3,201.1 77,223.3 54.5,256.8 
		90.8,245.1 105.7,281.1 117.3,241.7 157.7,252 131.5,221.8 163.6,195.2 130.4,197.4 166.4,156.6 213.8,156.6 266.1,63.8 266.1,7.4 
		236.7,7.4 219.6,37.4 216.8,61.7 186.5,115.8 146.7,115.8 176.3,63.4 176.3,7.6 145.7,7.6 129.3,37.4 	"/>
	<polygon class="st1" points="255.1,15.7 241.3,15.7 230.6,34.3 245,34.3 	"/>
	<polygon class="st1" points="165.5,15.7 150.8,15.7 140.3,34.3 155.9,34.3 	"/>
	<polygon class="st1" points="137.7,134.6 106.8,205 93,190.1 94.4,208.9 73.6,209.8 90.1,221.5 78.6,238.9 97.4,232.7 105.2,251.3 
		111.1,230.9 132.2,236.4 118.5,220.6 135.2,206.8 111.8,208.4 110.2,208.4 158.8,134.9 201,134.9 238.4,68.1 223.9,68.1 
		192.5,123.2 116.9,123.2 148.5,68.1 133.8,68.1 95.6,134.9 137.7,134.9 	"/>
	<polygon class="st1" points="152,42 138.4,42 136.6,58.1 150.6,58.1 	"/>
	<polygon class="st1" points="242,42 228.5,42 226.7,58.1 240.6,58.1 	"/>
	<path d="M100.2,225.9c3.3,0.1,6.1-2.6,6.2-5.9c0-0.1,0-0.2,0-0.3c0-3.4-2.7-6.2-6.1-6.2l0,0c0,0-0.1,0-0.1,0c-3.4,0.1-6.1,3-6,6.4
		C94.3,223.2,97,225.8,100.2,225.9z"/>
</g>
</svg>
