<?xml version="1.0" encoding="utf-8"?>
<!-- Generator: Adobe Illustrator 23.0.6, SVG Export Plug-In . SVG Version: 6.00 Build 0)  -->
<svg version="1.1"
	 id="Layer_1" xmlns:cc="http://creativecommons.org/ns#" xmlns:dc="http://purl.org/dc/elements/1.1/" xmlns:rdf="http://www.w3.org/1999/02/22-rdf-syntax-ns#"
	 xmlns="http://www.w3.org/2000/svg" xmlns:xlink="http://www.w3.org/1999/xlink" x="0px" y="0px" viewBox="0 0 300 300"
	 style="enable-background:new 0 0 300 300;" xml:space="preserve">
<style type="text/css">
	.st0{fill:#CD1141;}
	.st1{fill:#FFFFFF;}
	.st2{fill:#A0A0A3;}
</style>
<g>
	<path class="st0" d="M299,150.1c-0.1,82.3-66.9,148.9-149.1,148.9S0.9,232.1,1,149.9C1.1,67.6,67.8,1,150,1
		C232.3,1.1,299,67.8,299,150.1z"/>
	<path d="M150,291.3C72,291.3,8.7,228,8.7,150C8.7,72.6,71,9.6,148.4,8.7h1.6c78,0,141.3,63.2,141.3,141.3
		c0,36.9-14.5,72.4-40.3,98.8c-26.2,26.9-62,42.2-99.5,42.5H150z"/>
	<path class="st1" d="M149.6,28.8l-1.5,1.5v18.1l1.5,1.5h4.9l1.5-1.5V30.3l-1.5-1.5L149.6,28.8z M163.9,53.1l-5,4.9h-13.8l-4.9-4.9
		V25.7l4.9-4.9h13.8l4.9,4.9v27.4H163.9z"/>
	<path class="st1" d="M259.2,94l-1.9-0.6l-16.1,7.8l-0.7,1.9l2.1,4.4l1.9,0.7l16.3-7.8l0.7-1.9L259.2,94z M243.6,117.4l-6.5-2.4
		l-5.9-12.3l2.4-6.7l24.6-11.7l6.5,2.2l5.9,12.4l-2.2,6.7L243.6,117.4z"/>
	<path class="st1" d="M63.5,67.2v2.1l13,12.6h2.1l3.6-3.6v-2.2L69.3,63.5h-2.2L63.5,67.2z M90.8,73.7l0.1,7l-9.6,9.9h-7l-19.6-19
		l-0.1-7l9.6-9.9l7.1-0.1L90.8,73.7z"/>
	<polygon class="st1" points="214.4,36.5 200.1,70.8 194,68.2 192.5,44 184.1,63.9 177.5,61.3 192.1,27.1 200.1,30.5 200.2,51.8 
		207.8,33.7 	"/>
	<path class="st1" d="M103.8,47.8l5.8-2.7c0.3-0.6,0.6-1.3,0.7-1.9l-1.9-4.6l-2.1-0.7l-5.8,2.7L103.8,47.8z M118.9,44.4l-1.6,5.8
		l10.4,10.1l-7.3,3.3l-9.6-9.3l-3.4,1.6l4.9,11.3l-6.7,2.8L90.8,35.8l16-7l6.8,2.8L118.9,44.4z"/>
	<polygon class="st1" points="243.6,69.9 238.7,65.1 218.3,85.9 212.8,80.5 233.2,59.7 228.4,54.9 234,49.1 249.2,64.2 	"/>
	<polygon class="st1" points="45.4,91.1 42.6,97.3 69.3,109.1 66.2,116.2 39.5,104.4 36.7,110.6 29.3,107.2 38.2,87.8 	"/>
	<polygon class="st1" points="249.1,185.8 245.4,192.8 242.7,191.5 242,192.8 239.8,197.2 240.3,199.2 244.1,201.2 243.6,201 
		245.5,200.4 250,192.1 256.8,190 268,195.8 270,202.4 263.6,214.7 256.9,216.8 251.3,213.8 255,206.9 257.8,208.4 260.9,202.6 
		260.2,200.5 257.2,199 255.2,199.6 251,207.8 244.1,209.8 232.8,204.1 230.6,197.2 236.9,185 243.8,183 	"/>
	<path class="st1" d="M53.7,196.5l3,5.6c0.7,0.3,1.4,0.6,2.1,0.7l4.4-2.4l0.6-2.1l-3-5.6L53.7,196.5z M58.2,211.5l-5.9-1.2l-9.3,11
		l-3.7-7l8.6-10.2l-1.8-3.4l-11,5.6l-3.3-6.4l32.9-17.2l8.1,15.4l-2.2,6.8L58.2,211.5z"/>
	<path class="st1" d="M109.6,249.8l5.2,2.2l1.9-0.9l2.1-4.7l-0.7-1.9l-5.3-2.2L109.6,249.8z M106.8,256.3l-5.3,12.9l-6.5-2.7
		l14.2-34.4l15.7,6.5l2.7,6.7l-5.2,12.6l-5.2,2.7L106.8,256.3z"/>
	<polygon class="st1" points="163.2,250 156.4,250.1 156.7,279.2 148.8,279.3 148.5,250.1 141.9,250.3 141.7,242.1 163,242 	"/>
	<path class="st1" d="M184.4,244.6l-0.9,1.9l6.4,16.9l1.9,0.7l4.7-1.8l0.9-1.9l-6.4-16.9l-1.9-0.7L184.4,244.6z M206.3,262.1
		l-2.7,6.4l-12.9,4.9l-6.4-2.8l-9.8-25.6l2.8-6.4l12.9-4.9l6.4,2.8L206.3,262.1z"/>
	<path class="st1" d="M220.1,233.8l4.9-4.3l0.1-1.9l-3.3-4l-1.9-0.1l-4.9,4.1L220.1,233.8z M233.5,226.1l0.1,6.1l12.9,6.8l-6.1,5
		l-11.8-6.1l-2.8,2.5l7.8,9.3l-5.3,4.7l-24.1-28.4l13.2-11.1l7.3,0.6L233.5,226.1z"/>
	<path class="st1" d="M76.2,239l5.2-10.2l-9.9,5.9L76.2,239z M76.1,256.6l-5.8-5.3l2.7-5.5l-8-7.4l-5.3,3.3l-5.8-5.5l33.6-20.1
		l5.8,5.3L76.1,256.6z"/>
	<path class="st2" d="M178.9,224.8l0.3,0.3c0.4,0,0.8-0.1,1.2-0.1l0.9-0.3l2.4-1l5.8-2.7l1-0.6l0.6-0.3l0.6-0.4l1-0.6l1.2-0.7l1.6-1
		l2.7-1.9l1.5-1l1.9-1.3l1.8-1.3l0.7-0.6l1.3-1.2l1.2-1.2l1.9-2.1l2.2-2.2l2.7-3.1l1.5-1.9l0.4-0.6l1.6-1.9l3-4.4l0.9-1.3l2.1-4
		l1-2.1l1.9-4l1-2.5l1.2-3.7c0,0,1.3-4.9,2.1-7.4c0.1-0.1,0.1-0.4-0.1-0.7c-0.4-0.6-0.7-1.3-1-1.9c-0.2-0.4-0.4-0.7-0.6-1
		c-0.3-0.3-0.7-0.9-1-1.2c-0.1-0.3-0.4-0.4-0.7-0.7c-0.6-0.4-1.2-1.2-1.6-1.5c-0.3-0.1-0.4-0.3-0.7-0.4c-1.5-1.3-3.3-2.4-5.2-3.1
		c-0.8-0.4-1.6-0.7-2.4-0.9c-0.7-0.3-1.4-0.5-2.1-0.6c-0.3-0.2-0.7-0.1-0.9,0.1c-0.1,0.1-0.1,0.4-0.1,0.9c-0.2,1-0.3,2.1-0.3,3.1
		c-0.2,1-0.3,2.1-0.3,3.1c-0.1,1-0.1,1.9-0.3,3c-0.1,1.2-0.3,2.5-0.6,3.7c-0.4,2.4-0.9,4.7-1.3,7c-0.1,0.7-0.2,1.3-0.4,1.9
		c-0.4,1-0.8,2-1,3c-0.5,2.2-1.1,4.3-1.9,6.4c-0.5,1.8-1.2,3.5-2.2,5c0,0.1,0,0.1-0.1,0.4c-0.4,1-0.9,2.1-1.3,3.3
		c-0.3,0.6-0.7,1.2-1,1.9c-0.4,0.9-0.9,1.7-1.5,2.5c-0.7,1.3-1.6,2.5-2.4,3.9c-0.5,0.9-1,1.7-1.6,2.5c-0.1,0.3-0.3,0.4-0.4,0.7
		c-0.4,0.7-0.9,1.4-1.5,2.1c-1,1.3-2.1,2.7-3.1,3.9c-0.7,0.7-1.5,1.5-2.2,2.2l-1.9,1.9c-0.1,0.3-0.3,0.3-0.4,0.4
		c-0.5,0.3-0.9,0.6-1.2,1c-0.8,0.9-1.7,1.6-2.7,2.2c-0.4,0.3-0.8,0.7-1.2,1C181.4,223.4,180.2,224.2,178.9,224.8z"/>
	<path class="st2" d="M231.2,162.3l0.1-0.1v-0.6l0.6-5l0.3-4.7v-5.5l-0.4-5.3c0,0-0.7-4.9-1.2-7.4c-0.1-0.9-0.7-1.2-1.5-1.6
		c-0.3-0.1-0.4-0.3-0.7-0.3c-0.6-0.1-1.1-0.3-1.6-0.6c-1.2-0.1-2.4-0.7-3.6-0.9c-1.5-0.3-3-0.3-4.4-0.6c-1.2,0-2.4-0.1-3.6-0.1h-2.5
		c-0.6,0-1,0-1.3,0.4c-0.3,0.3,0,0.9,0,1.5c0.1,1.2,0.4,1.8,0.6,2.8c0.7,3.4,1.1,6.9,1.3,10.4c0,1.6,0.1,3.1,0.1,4.7v1.2
		c0,0.2,0.1,0.5,0.1,0.7c0.2,0.2,0.5,0.3,0.7,0.4c0.3,0,0.6,0,0.9,0.1c0.4,0,0.8,0.1,1.2,0.3c1.3,0.4,2.8,0.9,4.3,1.5
		c0.9,0.4,1.8,0.8,2.7,1.3c0.1,0.1,0.2,0.1,0.3,0.1c0.6,0.4,1.2,0.9,1.6,1.2c1.3,0.9,2.5,2,3.6,3.3c0.1,0.3,0.3,0.5,0.6,0.6
		c0.4,0.4,1,1.6,1.5,2.1C231,162.1,231,162.3,231.2,162.3z"/>
	<path class="st2" d="M195.3,105.1h1.3c0.3,0,0.6,0,0.6-0.4c0.1-0.3,0-0.4-0.1-0.7c-0.1-0.3-1-1.8-1-1.8l-0.9-1.5l-3.9-5.3l-0.7-1
		l-0.7-1l-1.2-1.3l-3.1-3.3l-1.2-1.3l-4.7-4.4l-3.9-3l-1.5-0.7l-4.4-2.7l-3.3-1.8l-0.6-0.3l-2.7-0.9l-3.9-1.5l-0.3-0.1l-1.2-0.3
		l-1.5-0.3l-2.2-0.4h-1.2l-2.1-0.4l-2.4-0.1l-0.9-0.1h-1.5l-2.7,0.1l-2.5,0.3h-1.9l-1.8,0.1l-1.6,0.3l-1.5,0.4l-2.2,0.4h-0.4
		l-2.1,0.7l-1.2,0.4l-0.7,0.4l-1.8,0.4l-0.7,0.4l-1,0.6l-2.7,1.2l-3.4,1.3l-1,0.4l-2.4,1.3l-2.1,1.3l-1.9,1l-0.7,0.3l-2.1,1.2
		l-0.4,0.1l-2.4,1.8l-1.9,1.3l-0.4,0.3l-2.2,1.8l-0.7,0.6c-0.4,0.4-0.8,0.8-1.2,1.2l0.7-0.1l1.6-0.6h0.3l2.2-0.9h0.3l2.4-1l1.3-0.3
		l1.2-0.4l1.8-0.7l4.4-1.6h0.3l2.2-0.7l1.8-0.7l0.3,0.1l3.4,0.1l2.2,0.1h0.1l4.3,0.4l6.1,0.3v0.1l2.2,1.8h0.1l2.2,2.2l0.1-0.1
		l3.1,0.1l0.1-0.1l7.6,0.4v0.1l3.4,2.1h0.1l5.9,2.8V94l3.4-1.3l5,1.6l0.9,1.5h1.8l1.8,1.9h0.1l1.5,1.6v0.1h0.1l3.9,0.9l1.5,2.2
		l3.6,1.3c1.9,0.5,3.9,0.9,5.9,1.2C191.8,105.3,193.6,105.3,195.3,105.1z"/>
	<path class="st2" d="M229.1,128.1c-0.1-0.4-0.6-1.6-0.6-1.6l-0.1-0.7l-0.3-0.7l-0.6-1.9l-0.6-1.6l-1.9-4.1l-0.9-2.1l-0.9-2.4
		l-1.3-1.9l-1.2-2.2l-0.7-1.3l-0.4-0.4l-5.3-7.4l-0.9-0.9c0-0.2-0.1-0.3-0.3-0.3c0,0-1.6,2.7-2.4,3.6c-0.7,0.7-2.2,2.1-2.2,2.1
		s-1.2,0.9-1.3,1c-0.4,0.3-0.8,0.5-1.2,0.7l-1.2,0.7c-0.3,0.2-0.7,0.3-1,0.4c-0.3,0.1-0.4,0.1-0.4,0.3c-0.1,0.1-0.1,0.1-0.1,0.4
		c0,0.3,0.1,0.3,0.1,0.4c0.4,1.1,0.9,2.2,1.5,3.3c0.8,1.5,1.5,3.1,2.1,4.7c0.2,0.5,0.4,1,0.6,1.5c0.4,1.5,1,2.8,1.3,4.1
		c0.1,0.7,0.4,1.2,0.6,1.9c0.1,0.6,0.3,1.3,0.4,1.8c0.1,0.4,0.3,0.7,0.9,0.6h1.2c1.5,0,2.8-0.1,4.3-0.1c0.4,0,3.4,0.3,3.4,0.3
		s0.9,0.1,1.5,0.3c1.2,0.1,2.2,0.4,3.4,0.6c0.9,0.2,1.8,0.5,2.7,0.9l1.3,0.4c0.2,0,0.3,0.1,0.4,0.1
		C229.1,128.4,229.1,128.2,229.1,128.1z"/>
	<path class="st2" d="M210,95.8c-0.1-0.3-0.3-0.5-0.4-0.7l-0.3-0.4l-0.7-1l-0.4-0.7l-1-0.9c-0.1-0.1-0.3-0.2-0.4-0.3
		c-1.8-1.3-5.2-4.1-5.2-4.1l-0.9-0.7l-1.8-1.6l-8.9-5.3l-7.1-3.3l-3.9-1.5l-1.3-0.4L173,73l-3.3-0.9l-3.1-0.6h-0.4l-0.3,0.3
		c0,0,0.3,0.3,0.4,0.3c1,0.3,2.1,0.7,3,1c0.7,0.3,1.3,0.6,2.1,0.9c0.5,0,0.9,0.3,1.2,0.6c1.5,0.7,3,1.6,4.6,2.5
		c0.9,0.6,1.7,1.2,2.5,1.9l1.8,1.3c0.3,0.2,0.6,0.5,0.9,0.7c0.1,0.1,0.3,0.3,0.4,0.3c0.9,0.7,1.9,1.5,2.7,2.2c0.8,1,1.6,1.9,2.5,2.7
		c0.9,0.9,1.6,1.6,2.4,2.5c0.6,0.8,1.2,1.5,1.9,2.2c1.3,1.3,2.2,2.8,3.6,4.1c0.1,0.1,0.1,0.3,0.3,0.6c0.7,1.2,1.5,2.4,2.4,3.6
		c0.7,0.8,1.3,1.6,1.8,2.5c0.2,0.6,0.5,1.1,0.9,1.6c0.3,0.1,0.6,0.4,0.7,0.4c0.2,0,0.4-0.1,0.6-0.3l0.6-0.1c0.4-0.2,0.7-0.4,1-0.6
		c0.4-0.1,0.7-0.3,1-0.6c0.5-0.3,1-0.7,1.5-1.2c0.4-0.4,1.5-1.6,1.5-1.6l0.7-0.9l1.2-2.1C209.8,96.5,210.1,96.1,210,95.8z"/>
	<path class="st2" d="M206.3,125.7c-0.4-1.5-0.7-3-1.3-4.4c-0.4-1.2-0.8-2.4-1.3-3.6c-0.3-0.7-0.4-1.5-0.7-2.2
		c-0.1-0.4-0.3-0.7-0.4-1.2c-0.7-1.8-1.5-3.5-2.5-5.2c0-0.1-0.1-0.2-0.1-0.3c-0.1-0.1-0.1-0.3-0.3-0.4c-0.3-0.1-0.4,0-0.9,0
		c-0.7,0-1.8,0.1-2.1,0.1c-0.4,0-1.9,0.1-3.1,0.1h-1.8l-3.9-0.6c-1.5-0.1-4.6-0.9-4.6-0.9l-2.5-0.9l-3-1l-0.1,0.1L173,105l-0.1,0.1
		l-2.5-1.9H170l-1.6-1.5v-0.3l-1.8-0.3l-0.3,0.1l-1.5-0.6l-0.1-0.1l-3.3,0.3l-3.1-1.2l-10.5,0.6l-0.1-0.1l-2.1,0.1l-0.1,0.3
		l-5.2,0.3l-0.1-0.1l-7.4,4.3l-0.1,0.3l-0.3,0.3l-0.1-0.1l-3.7-0.3h-7l-1.9-0.1l-0.6-0.3l-6.8,5.3v0.1l-2.4,1.9l-2.7-1.3l-0.1,0.1
		l-1-0.3c0,0-5,1.2-4.9,1.2l-4.7-0.7l-0.3-0.1l-0.7,0.9l-1.9,0.9v0.1l-3.7,3l-5.3,3.7l-5.9,4.4l-2.7,1.9l-0.1,1.2l-1,2.5l-0.4,2.2
		l-0.7,4.6l-0.4,1.9l-0.3,2.4l-0.6,4.9l-0.3,10.7l0.3,0.6l0.1,3c0,0,0,0.6,0.1,0.6l13.2-13.5l4.1-1.8l3.7-0.1l2.2-2.5l0.1-0.4h0.3
		l5.9-0.6l0.3-0.1h2.5l0.7-0.9l2.7-1.6l3-1.9h7.8l0.1,0.1l3.1,0.3l2.5-0.4l4.4-4.4l3.6-3.4l5.3-0.6l0.1-0.3l0.3,0.3l2.7,1.2l0.3-0.1
		l2.4-0.3h0.1l2.2-0.4h0.1l2.5,2.1l0.1-0.1l5-0.1l0.4-0.3l4.1,0.1l0.1,0.1l0.7-0.1v-0.1l1.6-0.7h0.3l1.8-0.9l0.1-0.1l2.1-0.7
		l0.1-0.3l5.8-2.2l1-0.3l0.1-0.1l0.3,0.3l1.6,0.7h0.6l1.8,1l0.1-0.1l0.4-0.3h0.1l0.9-0.4v-0.1l1.3-0.3l3.4,0.9l0.7-0.1l0.6,0.3
		l2.5,0.4l2.4,0.9l1.3-0.1l0.6,0.3l0.3-0.1c0,0,4.7-0.6,7.1-0.7c1.6-0.1,3.1-0.3,4.6-0.4c0.9-0.1,1.8-0.1,2.7-0.3
		C206.3,126.5,206.6,126.2,206.3,125.7z"/>
	<path class="st2" d="M209.8,150c0-0.4-0.1-0.6-0.1-0.9c-0.1-0.9-0.2-1.8-0.1-2.7c0-0.3-0.1-0.7-0.1-1c-0.1-1.1-0.2-2.3-0.1-3.4
		c-0.1-1.5-0.4-2.8-0.6-4.3c-0.1-1.1-0.3-2.2-0.6-3.3c-0.1-1.1-0.3-2.3-0.6-3.4c-0.3-1.2-0.4-1.2-1.6-1.2c-0.1,0-0.3,0-0.3,0.1
		c-0.5,0.1-1,0.2-1.5,0.1c-2.4,0.3-4.6,0.4-6.8,0.7l-6.7,2.4L181,133l-1-0.4v0.3l-3,2.1h-0.3l-2.2,2.1l-0.1,0.3l-5.8,0.7l-5.2,4.1
		h-0.6l-2.8,1.6l-1,0.1l-1.2,0.9l-0.3-0.1l-5.3-0.4l-0.9,1v0.1l-4.6,5.2l-0.1,0.3h-0.1l-5.9,6.7h-1.6l-0.1,0.1l-4.9,0.9h-0.4v0.3
		l-8.1,4.4l-3.6-0.4l-0.7,0.3l-3.6-0.3l-3.6,3.9l-2.2,0.4h-1.2l-1.2,0.4h-0.7v0.1l-4.4,3.4l-0.6,0.1l-6.8,5.3v0.3l-4.3,10.4l0.3,0.4
		l-7.1,0.6l-2.2,2.1l-0.3,0.7l3.3,4.3l2.2,3.6l2.1,2.7l3.3,3.4v0.3c0.1,0,0.6,0,0.6,0.1l1.9,0.6l2.4,0.7c0,0.1,0.1,0.1,0.1,0.1
		c0,0,0,0,0,0h0.1l4,1.6h0.3l0.1,0.1h0.4l0.9,0.7l1.6-0.9h0.1l0.7-0.6l6.1,1.5l4.4-2.2l9.8-0.9l4-6.5c0.7-0.7,1.8-1.8,1.8-1.8h0.3
		l1.3-1.3v-0.1l2.5-2.4l1.2-1.2l0.3-0.1l1.3-1.3l1.2-1.2l0.3-0.1l-0.3-0.9l1-4.3l2.2-0.6l0.1-0.1l0.6-0.1v-0.3l3-4.9h0.3l1.2-2.5
		l2.1-1l0.3-0.4l0.3,0.1l1.2-0.6h0.1l2.1-1l0.3-0.3l7.1-3.3h0.6v-0.4l0.3-0.1l0.7-2.5l2.4-1l2.5-0.1l2.4-1.8l3.6,0.3l0.3,0.1
		l0.1-0.1l4.9-2.1v-0.7l1-2.2l2.4-0.6l0.1-0.1l3.1-0.7l1.3-1.5h0.1l0.7-0.7l2.2,0.3v0.1l1.3,0.1l0.7,0.1c0,0,3.1-1.5,4.6-2.1
		c0.6-0.1,1.1-0.3,1.6-0.6c0.7-0.3,1.5-0.4,2.2-0.7c0.4,0,0.8-0.1,1.2-0.3l1.5-0.3l1.6-0.3l1.2-0.1h0.7c0.3,0,0.5-0.1,0.7-0.3
		c0.3-0.1,0.1-0.4,0.3-0.6C209.9,150.6,209.8,150.3,209.8,150z"/>
	<path class="st2" d="M209.8,156.2c0-0.3-0.1-0.6-0.3-0.9c-0.2-0.2-0.4-0.3-0.6-0.3c-0.1,0-1,0.1-1,0.1l-1.3,0.1
		c-0.3,0-0.3,0.1-0.4,0.1c-0.9,0.1-1.7,0.3-2.5,0.6c-0.9,0.2-1.8,0.5-2.7,0.9c-1,0.4-2,0.8-3,1.3c-0.3,0.1-3.4,1.6-4.7,2.4l-1.9,1.9
		v0.3h-1.5v0.1l-3.7,1.2v0.4l-0.4,0.3v0.3l-1.8,3.1h-0.3v0.3c0,0-0.3,0.4-0.7,1.2l-7.7,4.9H175l-1.3,1L173,179l-0.7,0.7l-3.1,11.3
		l0.4,1.3l-4.4,2.1h-0.7l-0.9,3.9l-0.1,0.1l-1.2,3.6l0.1,0.1l-0.4,3l-0.1,0.3l0.1,0.3l-4.4,6.8h-0.3l-1,1.8v0.3l-3.7,5.2l-3.9,2.4
		l0.1,0.3l-0.1,1.6l0.3,0.6l-0.4,0.1l-2.8,1.6h-0.3l-4.1,2.4l-0.4,0.7l1.5,0.3l2.7,0.1l1.9,0.1h6.2l5.8-0.7l3.4-0.7l2.7-0.7l2.8-0.7
		l3.6-1.5l0.3-0.1l1-0.6c1.4-0.7,2.8-1.6,4.1-2.5c2.3-1.6,4.4-3.3,6.5-5.2c0.7-0.7,1.3-1.3,1.9-2.1c0.7-0.6,1.3-1.2,1.9-1.9
		c0.1-0.1,0.3-0.1,0.3-0.4c0.3-0.4,0.7-0.8,1-1.2c0.3-0.3,0.5-0.6,0.7-0.9c0.5-0.6,1-1.2,1.6-1.8c0.6-0.4,1-0.9,1.3-1.5
		c0.7-0.9,1.4-1.9,1.9-3c1-1.3,1.9-2.6,2.7-4c0.7-1.5,1.5-3,2.4-4.4c0.7-1.2,1.3-2.5,1.9-3.7c0.9-2.2,1.9-4.4,2.7-6.5
		c0.9-2.3,1.7-4.7,2.2-7.1c0.4-1.9,0.9-3.7,1.5-5.5c0-0.3,0-0.5,0.1-0.7c0.3-1.5,0.4-3,0.7-4.4c0.1-1.3,0.3-2.7,0.6-4.1
		c0.2-0.9,0.4-1.9,0.4-2.8c0-1.3,0.1-2.7,0.1-4v-0.4C209.6,156.6,209.7,156.4,209.8,156.2z"/>
</g>
</svg>
