<?xml version="1.0" encoding="utf-8"?>
<!-- Generator: Adobe Illustrator 23.0.6, SVG Export Plug-In . SVG Version: 6.00 Build 0)  -->
<svg version="1.1"
	 id="Layer_1" xmlns:cc="http://creativecommons.org/ns#" xmlns:dc="http://purl.org/dc/elements/1.1/" xmlns:rdf="http://www.w3.org/1999/02/22-rdf-syntax-ns#"
	 xmlns="http://www.w3.org/2000/svg" xmlns:xlink="http://www.w3.org/1999/xlink" x="0px" y="0px" viewBox="0 0 300 300"
	 style="enable-background:new 0 0 300 300;" xml:space="preserve">
<style type="text/css">
	.st0{fill:#FFFFFF;}
	.st1{fill:#0D2240;}
	.st2{fill:#FFA400;}
	.st3{fill:#2B5134;}
</style>
<g>
	<path class="st0" d="M125.2,192.5v-1.7c3.3-7.8,30.5-70.1,36.1-82.7h110.3L299,45.4H164.8l-49.7,113.9
		c-18.4-28.8-56.7-37.2-85.5-18.8S-7.7,197.2,10.8,226c11.4,17.8,31,28.5,52.1,28.5c20.1,0,38.7-9.4,49.8-24.2
		C125.4,213.4,125.2,192.5,125.2,192.5z"/>
	<path class="st1" d="M4.7,195.4c0.7,14.7,7,28.7,17.5,39c11.4-9.8,18.3-23.9,19-39H4.7z"/>
	<path class="st2" d="M46.4,195.4c-0.8,16.3-8,31.6-20.2,42.5c9.7,7.9,21.7,12.4,34.2,13v-55.5H46.4z"/>
	<path class="st1" d="M4.7,190.2h36.5c-0.6-15.3-7.4-29.6-19-39.6C11.6,161.1,5.3,175.3,4.7,190.2z"/>
	<path class="st2" d="M26.2,147.3c12.4,10.9,19.7,26.4,20.2,42.9h13.8v-56.1C47.8,134.9,35.9,139.5,26.2,147.3z"/>
	<path class="st1" d="M121.1,195.4H84.5c0.7,15.1,7.5,29.2,19,39C114,224,120.2,210.1,121.1,195.4z"/>
	<path class="st3" d="M79.4,195.4h-14v55.3c12.5-0.4,24.6-5,34.2-13C87.3,227,80,211.7,79.4,195.4z"/>
	<path class="st3" d="M99.6,147.3c-9.8-7.8-21.7-12.5-34.2-13.2v56.1h14C79.9,173.7,87.2,158.2,99.6,147.3z"/>
	<path class="st1" d="M167.1,49.1l-51.6,118.4c-3.1-6.3-7.2-12-12.2-16.9c-11.5,10-18.4,24.4-19,39.6h36.7l37.3-85.8h109.3
		l24.1-55.3H167.1z"/>
</g>
</svg>
