<?xml version="1.0" encoding="utf-8"?>
<!-- Generator: Adobe Illustrator 23.0.6, SVG Export Plug-In . SVG Version: 6.00 Build 0)  -->
<svg version="1.1"
	 id="Layer_1" xmlns:cc="http://creativecommons.org/ns#" xmlns:dc="http://purl.org/dc/elements/1.1/" xmlns:rdf="http://www.w3.org/1999/02/22-rdf-syntax-ns#"
	 xmlns="http://www.w3.org/2000/svg" xmlns:xlink="http://www.w3.org/1999/xlink" x="0px" y="0px" viewBox="0 0 300 300"
	 style="enable-background:new 0 0 300 300;" xml:space="preserve">
<style type="text/css">
	.st0{fill:#C4CED4;}
	.st1{fill:#FFFFFF;}
	.st2{fill:#E31837;}
	.st3{fill:#002B5C;}
</style>
<g>
	<path class="st0" d="M281,79c-9.2-16.9-21.5-31.8-36.2-43.9c-2.8-2.3-5.6-4.4-8.5-6.5C212.1,11.3,182.4,1,150.3,1H150
		C70.4,1,5.3,63.5,1.2,142.1c-0.1,2.5-0.2,5.1-0.2,7.7v0.3c0,20.6,4.2,40.1,11.7,58c0.9,2.2,1.9,4.4,3,6.6
		c8.4,17.4,20,32.8,34.1,45.7c3.5,3.2,7.2,6.3,11,9.1c24.8,18.6,55.7,29.6,89.1,29.7h0.1h0.1h0c18,0,35.2-3.2,51.2-9
		c57-20.9,97.7-75.6,97.8-139.8v-0.1v0V150c0-20.5-4.2-40.1-11.7-57.9C285.4,87.6,283.3,83.3,281,79"/>
	<path class="st1" d="M150.2,4.8c-80.1,0-145,64.9-145,145s64.9,145,145,145c80.1,0,145-64.9,145-145S230.3,4.8,150.2,4.8
		C150.2,4.8,150.2,4.8,150.2,4.8z"/>
	<g>
		<path class="st2" d="M150.1,16.8c-9.7,0-19,1-28.1,3c6.7,3.5,13.3,9.8,17.6,21.4l10.5-15.5l10.5,15.5
			c4.2-11.5,10.9-17.9,17.5-21.3C169.1,17.9,159.7,16.8,150.1,16.8L150.1,16.8z M108.1,23.6c-38.9,13-69.8,43.6-83.2,82.3
			c17.8-26.8,52.7-57.2,106-63.2C126.2,31.4,116.7,26.1,108.1,23.6L108.1,23.6z M191.9,23.6c-8.5,2.5-18,7.8-22.7,19
			c52.9,6,87.7,36,105.6,62.6C261.4,66.8,230.6,36.5,191.9,23.6L191.9,23.6z"/>
		<path class="st3" d="M195.6,58.1c-4.8,0.1-7,1.7-7,1.7l-15.4,8.6l0.8,2.9l3.4,12.2c0,0,6.3,17.6,21.4,32.7
			c28.5,28.1,64.8,69.3,61.1,106.9c13.8-20.5,22-45.1,22.5-71.5c-2.3-13.3-6.6-25.1-11.9-35.4c-9.9-19.1-29.1-37-52.7-50.9
			C207.6,59.4,200.3,58,195.6,58.1L195.6,58.1z M104.6,58.2c-4.8-0.1-12,1.2-22.1,7.1c-23.6,13.9-42.7,31.9-52.7,51
			c-5.5,10.6-9.9,22.7-12.1,36.5c0.7,26.2,9,50.4,22.7,70.7c-3.9-37.7,32.5-79,61-107.2c15.1-15.1,21.4-32.7,21.4-32.7l3.4-12.2
			l0.8-2.9l-15.4-8.6C111.7,59.8,109.4,58.3,104.6,58.2L104.6,58.2z M150.1,86c-1.5,1.1-50.4,36.2-71.9,71
			c-29,47-25.3,74.1-17.8,89.5c18.7,17.2,42.4,29.1,68.7,33.3l11.3-160.4l9.4-9.5l0.1-0.1h0l0.1,0.1l9.4,9.5l11.4,160.3l-0.2,0.1
			c26.5-4.2,50.3-16.2,69.1-33.6c7.4-15.5,10.9-42.5-17.9-89.2C200.5,122.3,151.6,87.1,150.1,86L150.1,86z"/>
		<path class="st0" d="M150.1,36l-1.6,3.1l-3.1,6.3h0l-0.1,0.3l-0.1,0.3l-1.7,3.4l-0.1,0.3l0,0l-4.1,0.3c-5.8,0.4-11.6,1.2-17.4,2.2
			c-2.5,0.4-5.1,0.8-7.6,1.4l8.1,4.4l8.1,4.4l2.5,1.3l2.5,1.3l-1.5,5.5l-0.1,0.3l-0.7,2.5l-4.5,16.4l10.3-7.6l7-5.1l2.1-1.5l2-1.5
			v-0.1l0.1,0l0.1,0v0.1l2.1,1.5l2.1,1.5l17.2,12.7L167,73.2l-0.4-1.4l-0.4-1.4l-1.5-5.5l1.6-0.9l3.4-1.8l11-5.9l5.3-2.9
			c-2.5-0.6-5.1-0.9-7.6-1.4c-5.7-1-11.5-1.8-17.4-2.2l-4.1-0.3l-0.1-0.2l-0.1-0.2l-1.7-3.4l-0.1-0.2L150.1,36L150.1,36z M150.1,110
			l0.1,181.6l20.6-11.7l0.2-0.1l-11.4-160.3L150.1,110L150.1,110z"/>
	</g>
</g>
</svg>
